<svg xmlns="http://www.w3.org/2000/svg" xmlns:xlink="http://www.w3.org/1999/xlink" width="250" zoomAndPan="magnify" viewBox="0 0 187.5 187.499992" height="250" preserveAspectRatio="xMidYMid meet" version="1.0"><defs><clipPath id="02b44e0293"><path d="M 42.167969 42.167969 L 145.667969 42.167969 L 145.667969 145.667969 L 42.167969 145.667969 Z M 42.167969 42.167969 " clip-rule="nonzero"/></clipPath></defs><g clip-path="url(#02b44e0293)"><path fill="#1a4789" d="M 145.667969 129.925781 C 145.667969 138.613281 138.625 145.652344 129.941406 145.652344 L 57.898438 145.652344 C 49.210938 145.652344 42.171875 138.613281 42.171875 129.925781 L 42.171875 57.886719 C 42.171875 49.199219 49.210938 42.15625 57.898438 42.15625 L 129.941406 42.15625 C 138.625 42.15625 145.667969 49.199219 145.667969 57.886719 Z M 145.667969 129.925781 " fill-opacity="1" fill-rule="nonzero"/></g><path fill="#ffffff" d="M 110.746094 101.949219 L 112.421875 88.972656 L 99.570312 88.972656 L 99.570312 80.683594 C 99.570312 76.929688 100.617188 74.367188 106.003906 74.367188 L 112.871094 74.363281 L 112.871094 62.757812 C 111.6875 62.601562 107.609375 62.246094 102.859375 62.246094 C 92.953125 62.246094 86.171875 68.296875 86.171875 79.402344 L 86.171875 88.972656 L 74.964844 88.972656 L 74.964844 101.949219 L 86.171875 101.949219 L 86.171875 135.246094 L 99.570312 135.246094 L 99.570312 101.949219 Z M 110.746094 101.949219 " fill-opacity="1" fill-rule="nonzero"/></svg>