<svg xmlns="http://www.w3.org/2000/svg" xmlns:xlink="http://www.w3.org/1999/xlink" width="300" zoomAndPan="magnify" viewBox="0 0 224.87999 225" height="300" preserveAspectRatio="xMidYMid meet" version="1.0"><defs><clipPath id="ae3cc54a00"><path d="M 0 0.0585938 L 224.761719 0.0585938 L 224.761719 224.9375 L 0 224.9375 Z M 0 0.0585938 " clip-rule="nonzero"/></clipPath><clipPath id="baf4ea8884"><path d="M 32.902344 32.964844 L 192 32.964844 L 192 192 L 32.902344 192 Z M 32.902344 32.964844 " clip-rule="nonzero"/></clipPath><clipPath id="1ae74525a4"><path d="M 112.441406 192.035156 C 91.203125 192.035156 71.210938 183.769531 56.203125 168.734375 C 41.167969 153.730469 32.902344 133.734375 32.902344 112.5 C 32.902344 91.265625 41.167969 71.269531 56.203125 56.265625 C 71.210938 41.230469 91.203125 32.964844 112.441406 32.964844 C 133.675781 32.964844 153.671875 41.230469 168.675781 56.265625 C 183.710938 71.300781 191.976562 91.265625 191.976562 112.5 C 191.976562 133.734375 183.710938 153.730469 168.675781 168.734375 C 153.671875 183.769531 133.675781 192.035156 112.441406 192.035156 M 112.441406 37.730469 C 92.476562 37.730469 73.6875 45.519531 59.574219 59.632812 C 45.460938 73.75 37.671875 92.535156 37.671875 112.5 C 37.671875 132.464844 45.460938 151.25 59.574219 165.367188 C 73.6875 179.480469 92.476562 187.269531 112.441406 187.269531 C 132.402344 187.269531 151.191406 179.480469 165.304688 165.367188 C 179.417969 151.25 187.207031 132.464844 187.207031 112.5 C 187.207031 92.535156 179.417969 73.75 165.304688 59.632812 C 151.191406 45.519531 132.402344 37.730469 112.441406 37.730469 " clip-rule="nonzero"/></clipPath><clipPath id="e068549176"><path d="M 93 59.359375 L 153.882812 59.359375 L 153.882812 165.800781 L 93 165.800781 Z M 93 59.359375 " clip-rule="nonzero"/></clipPath><clipPath id="aa6324f5ad"><path d="M 70.679688 89 L 128 89 L 128 128 L 70.679688 128 Z M 70.679688 89 " clip-rule="nonzero"/></clipPath></defs><g clip-path="url(#ae3cc54a00)"><path fill="#ffffff" d="M 0 0.0585938 L 224.878906 0.0585938 L 224.878906 232.4375 L 0 232.4375 Z M 0 0.0585938 " fill-opacity="1" fill-rule="nonzero"/><path fill="#ffffff" d="M 0 0.0585938 L 224.878906 0.0585938 L 224.878906 224.941406 L 0 224.941406 Z M 0 0.0585938 " fill-opacity="1" fill-rule="nonzero"/><path fill="#f5d2aa" d="M 0 0.0585938 L 224.878906 0.0585938 L 224.878906 224.941406 L 0 224.941406 Z M 0 0.0585938 " fill-opacity="1" fill-rule="nonzero"/></g><g clip-path="url(#baf4ea8884)"><g clip-path="url(#1ae74525a4)"><path fill="#2f4c72" d="M 32.902344 32.964844 L 191.847656 32.964844 L 191.847656 191.910156 L 32.902344 191.910156 Z M 32.902344 32.964844 " fill-opacity="1" fill-rule="nonzero"/></g></g><g clip-path="url(#e068549176)"><path fill="#2f4c72" d="M 144.421875 162 L 102.828125 162 C 99.699219 162 97.15625 159.441406 97.15625 156.296875 L 97.15625 142.992188 L 150.09375 142.992188 L 150.09375 156.296875 C 150.09375 159.441406 147.550781 162 144.421875 162 Z M 97.15625 74.5625 L 97.15625 68.863281 C 97.15625 65.71875 99.699219 63.160156 102.828125 63.160156 L 144.421875 63.160156 C 147.550781 63.160156 150.09375 65.71875 150.09375 68.863281 L 150.09375 74.5625 Z M 144.421875 59.359375 L 102.828125 59.359375 C 97.617188 59.359375 93.375 63.621094 93.375 68.863281 L 93.375 84.066406 C 93.375 85.117188 94.222656 85.964844 95.265625 85.964844 C 96.3125 85.964844 97.15625 85.117188 97.15625 84.066406 L 97.15625 78.367188 L 150.09375 78.367188 L 150.09375 139.191406 L 97.15625 139.191406 L 97.15625 133.484375 C 97.15625 132.4375 96.3125 131.585938 95.265625 131.585938 C 94.222656 131.585938 93.375 132.4375 93.375 133.484375 L 93.375 156.296875 C 93.375 161.535156 97.617188 165.800781 102.828125 165.800781 L 144.421875 165.800781 C 149.636719 165.800781 153.875 161.535156 153.875 156.296875 L 153.875 68.863281 C 153.875 63.621094 149.636719 59.359375 144.421875 59.359375 " fill-opacity="1" fill-rule="nonzero"/></g><path fill="#2f4c72" d="M 125.515625 66.960938 L 121.734375 66.960938 C 120.691406 66.960938 119.84375 67.8125 119.84375 68.863281 C 119.84375 69.910156 120.691406 70.761719 121.734375 70.761719 L 125.515625 70.761719 C 126.5625 70.761719 127.40625 69.910156 127.40625 68.863281 C 127.40625 67.8125 126.5625 66.960938 125.515625 66.960938 " fill-opacity="1" fill-rule="nonzero"/><path fill="#2f4c72" d="M 123.625 154.394531 C 122.582031 154.394531 121.734375 153.542969 121.734375 152.496094 C 121.734375 151.445312 122.582031 150.59375 123.625 150.59375 C 124.667969 150.59375 125.515625 151.445312 125.515625 152.496094 C 125.515625 153.542969 124.667969 154.394531 123.625 154.394531 Z M 123.625 146.792969 C 120.496094 146.792969 117.953125 149.351562 117.953125 152.496094 C 117.953125 155.640625 120.496094 158.199219 123.625 158.199219 C 126.753906 158.199219 129.296875 155.640625 129.296875 152.496094 C 129.296875 149.351562 126.753906 146.792969 123.625 146.792969 " fill-opacity="1" fill-rule="nonzero"/><g clip-path="url(#aa6324f5ad)"><path fill="#2f4c72" d="M 74.46875 122.082031 L 74.46875 96.0625 L 97.824219 115.929688 C 98.175781 116.230469 98.613281 116.378906 99.046875 116.378906 C 99.480469 116.378906 99.917969 116.230469 100.269531 115.929688 L 123.625 96.0625 L 123.625 122.082031 C 123.625 123.132812 122.777344 123.984375 121.734375 123.984375 L 76.359375 123.984375 C 75.316406 123.984375 74.46875 123.132812 74.46875 122.082031 Z M 120.699219 93.570312 L 99.046875 111.992188 L 77.394531 93.570312 Z M 127.40625 122.082031 L 127.40625 95.472656 C 127.40625 92.328125 124.863281 89.769531 121.734375 89.769531 L 76.359375 89.769531 C 73.230469 89.769531 70.6875 92.328125 70.6875 95.472656 L 70.6875 122.082031 C 70.6875 125.226562 73.230469 127.785156 76.359375 127.785156 L 121.734375 127.785156 C 124.863281 127.785156 127.40625 125.226562 127.40625 122.082031 " fill-opacity="1" fill-rule="nonzero"/></g></svg>