<svg xmlns="http://www.w3.org/2000/svg" xmlns:xlink="http://www.w3.org/1999/xlink" width="230" zoomAndPan="magnify" viewBox="0 0 172.5 113.999999" height="152" preserveAspectRatio="xMidYMid meet" version="1.0"><defs><g/><clipPath id="b957a5c245"><path d="M 74 24.898438 L 111.878906 24.898438 L 111.878906 89.398438 L 74 89.398438 Z M 74 24.898438 " clip-rule="nonzero"/></clipPath><clipPath id="0ea3b7f6ab"><path d="M 60.878906 43 L 96 43 L 96 67 L 60.878906 67 Z M 60.878906 43 " clip-rule="nonzero"/></clipPath></defs><g fill="#2f4c72" fill-opacity="1"><g transform="translate(52.056258, 15.885882)"><g><path d="M 7.59375 0 L 4.140625 -4.421875 L 2.953125 -3.515625 L 2.953125 0 L 0.9375 0 L 0.9375 -9.625 L 2.953125 -9.625 L 2.953125 -5.25 L 7.28125 -9.625 L 9.640625 -9.625 L 5.53125 -5.546875 L 9.96875 0 Z M 7.59375 0 "/></g></g></g><g fill="#2f4c72" fill-opacity="1"><g transform="translate(62.159169, 15.885882)"><g><path d="M 10.296875 -4.859375 C 10.296875 -3.859375 10.097656 -2.976562 9.703125 -2.21875 C 9.304688 -1.457031 8.738281 -0.875 8 -0.46875 C 7.257812 -0.0625 6.398438 0.140625 5.421875 0.140625 C 3.898438 0.140625 2.710938 -0.300781 1.859375 -1.1875 C 1.003906 -2.082031 0.578125 -3.304688 0.578125 -4.859375 C 0.578125 -6.398438 1.003906 -7.601562 1.859375 -8.46875 C 2.710938 -9.332031 3.898438 -9.765625 5.421875 -9.765625 C 6.953125 -9.765625 8.144531 -9.328125 9 -8.453125 C 9.863281 -7.578125 10.296875 -6.378906 10.296875 -4.859375 Z M 8.234375 -4.859375 C 8.234375 -5.890625 7.988281 -6.703125 7.5 -7.296875 C 7.007812 -7.890625 6.316406 -8.1875 5.421875 -8.1875 C 4.523438 -8.1875 3.832031 -7.890625 3.34375 -7.296875 C 2.851562 -6.710938 2.609375 -5.898438 2.609375 -4.859375 C 2.609375 -3.796875 2.859375 -2.960938 3.359375 -2.359375 C 3.859375 -1.753906 4.546875 -1.453125 5.421875 -1.453125 C 6.316406 -1.453125 7.007812 -1.742188 7.5 -2.328125 C 7.988281 -2.921875 8.234375 -3.765625 8.234375 -4.859375 Z M 8.234375 -4.859375 "/></g></g></g><g fill="#2f4c72" fill-opacity="1"><g transform="translate(73.040804, 15.885882)"><g><path d="M 6.796875 0 L 2.609375 -7.40625 C 2.679688 -6.6875 2.71875 -6.109375 2.71875 -5.671875 L 2.71875 0 L 0.9375 0 L 0.9375 -9.625 L 3.234375 -9.625 L 7.484375 -2.15625 C 7.410156 -2.84375 7.375 -3.46875 7.375 -4.03125 L 7.375 -9.625 L 9.15625 -9.625 L 9.15625 0 Z M 6.796875 0 "/></g></g></g><g fill="#2f4c72" fill-opacity="1"><g transform="translate(83.143716, 15.885882)"><g><path d="M 5.28125 -8.0625 L 5.28125 0 L 3.265625 0 L 3.265625 -8.0625 L 0.15625 -8.0625 L 0.15625 -9.625 L 8.390625 -9.625 L 8.390625 -8.0625 Z M 5.28125 -8.0625 "/></g></g></g><g fill="#2f4c72" fill-opacity="1"><g transform="translate(91.68918, 15.885882)"><g><path d="M 7.734375 0 L 6.890625 -2.453125 L 3.21875 -2.453125 L 2.359375 0 L 0.34375 0 L 3.859375 -9.625 L 6.234375 -9.625 L 9.734375 0 Z M 5.046875 -8.140625 L 5 -7.984375 C 4.957031 -7.828125 4.90625 -7.640625 4.84375 -7.421875 C 4.78125 -7.210938 4.390625 -6.0625 3.671875 -3.96875 L 6.4375 -3.96875 L 5.484375 -6.734375 L 5.1875 -7.671875 Z M 5.046875 -8.140625 "/></g></g></g><g fill="#2f4c72" fill-opacity="1"><g transform="translate(101.792092, 15.885882)"><g><path d="M 7.59375 0 L 4.140625 -4.421875 L 2.953125 -3.515625 L 2.953125 0 L 0.9375 0 L 0.9375 -9.625 L 2.953125 -9.625 L 2.953125 -5.25 L 7.28125 -9.625 L 9.640625 -9.625 L 5.53125 -5.546875 L 9.96875 0 Z M 7.59375 0 "/></g></g></g><g fill="#2f4c72" fill-opacity="1"><g transform="translate(111.895003, 15.885882)"><g><path d="M 5.28125 -8.0625 L 5.28125 0 L 3.265625 0 L 3.265625 -8.0625 L 0.15625 -8.0625 L 0.15625 -9.625 L 8.390625 -9.625 L 8.390625 -8.0625 Z M 5.28125 -8.0625 "/></g></g></g><g clip-path="url(#b957a5c245)"><path fill="#2f4c72" d="M 106.074219 87.09375 L 80.585938 87.09375 C 78.671875 87.09375 77.109375 85.542969 77.109375 83.636719 L 77.109375 75.574219 L 109.550781 75.574219 L 109.550781 83.636719 C 109.550781 85.542969 107.992188 87.09375 106.074219 87.09375 Z M 77.109375 34.109375 L 77.109375 30.65625 C 77.109375 28.75 78.671875 27.199219 80.585938 27.199219 L 106.074219 27.199219 C 107.992188 27.199219 109.550781 28.75 109.550781 30.65625 L 109.550781 34.109375 Z M 106.074219 24.898438 L 80.585938 24.898438 C 77.394531 24.898438 74.792969 27.480469 74.792969 30.65625 L 74.792969 39.867188 C 74.792969 40.503906 75.3125 41.019531 75.953125 41.019531 C 76.59375 41.019531 77.109375 40.503906 77.109375 39.867188 L 77.109375 36.414062 L 109.550781 36.414062 L 109.550781 73.273438 L 77.109375 73.273438 L 77.109375 69.816406 C 77.109375 69.179688 76.59375 68.664062 75.953125 68.664062 C 75.3125 68.664062 74.792969 69.179688 74.792969 69.816406 L 74.792969 83.636719 C 74.792969 86.8125 77.394531 89.398438 80.585938 89.398438 L 106.074219 89.398438 C 109.269531 89.398438 111.867188 86.8125 111.867188 83.636719 L 111.867188 30.65625 C 111.867188 27.480469 109.269531 24.898438 106.074219 24.898438 " fill-opacity="1" fill-rule="nonzero"/></g><path fill="#2f4c72" d="M 94.488281 29.503906 L 92.171875 29.503906 C 91.53125 29.503906 91.011719 30.019531 91.011719 30.65625 C 91.011719 31.292969 91.53125 31.808594 92.171875 31.808594 L 94.488281 31.808594 C 95.128906 31.808594 95.648438 31.292969 95.648438 30.65625 C 95.648438 30.019531 95.128906 29.503906 94.488281 29.503906 " fill-opacity="1" fill-rule="nonzero"/><path fill="#2f4c72" d="M 93.332031 82.484375 C 92.691406 82.484375 92.171875 81.96875 92.171875 81.335938 C 92.171875 80.699219 92.691406 80.183594 93.332031 80.183594 C 93.96875 80.183594 94.488281 80.699219 94.488281 81.335938 C 94.488281 81.96875 93.96875 82.484375 93.332031 82.484375 Z M 93.332031 77.878906 C 91.414062 77.878906 89.855469 79.429688 89.855469 81.335938 C 89.855469 83.238281 91.414062 84.789062 93.332031 84.789062 C 95.246094 84.789062 96.804688 83.238281 96.804688 81.335938 C 96.804688 79.429688 95.246094 77.878906 93.332031 77.878906 " fill-opacity="1" fill-rule="nonzero"/><g clip-path="url(#0ea3b7f6ab)"><path fill="#2f4c72" d="M 63.207031 62.90625 L 63.207031 47.136719 L 77.519531 59.179688 C 77.738281 59.359375 78.003906 59.449219 78.269531 59.449219 C 78.535156 59.449219 78.800781 59.359375 79.019531 59.179688 L 93.332031 47.136719 L 93.332031 62.90625 C 93.332031 63.542969 92.8125 64.058594 92.171875 64.058594 L 64.367188 64.058594 C 63.726562 64.058594 63.207031 63.542969 63.207031 62.90625 Z M 91.539062 45.628906 L 78.269531 56.789062 L 65 45.628906 Z M 95.648438 62.90625 L 95.648438 46.78125 C 95.648438 44.875 94.089844 43.324219 92.171875 43.324219 L 64.367188 43.324219 C 62.449219 43.324219 60.890625 44.875 60.890625 46.78125 L 60.890625 62.90625 C 60.890625 64.8125 62.449219 66.359375 64.367188 66.359375 L 92.171875 66.359375 C 94.089844 66.359375 95.648438 64.8125 95.648438 62.90625 " fill-opacity="1" fill-rule="nonzero"/></g></svg>