<svg xmlns="http://www.w3.org/2000/svg" xmlns:xlink="http://www.w3.org/1999/xlink" width="250" zoomAndPan="magnify" viewBox="0 0 187.5 187.499992" height="250" preserveAspectRatio="xMidYMid meet" version="1.0"><defs><clipPath id="2b1fbd4f82"><path d="M 0 0 L 187 0 L 187 187 L 0 187 Z M 0 0 " clip-rule="nonzero"/></clipPath><clipPath id="2697e725a8"><path d="M 79 29.054688 L 107 29.054688 L 107 57 L 79 57 Z M 79 29.054688 " clip-rule="nonzero"/></clipPath></defs><g clip-path="url(#2b1fbd4f82)"><path fill="#ffffff" d="M 0 0 L 187.5 0 L 187.5 195 L 0 195 Z M 0 0 " fill-opacity="1" fill-rule="nonzero"/><path fill="#ffffff" d="M 0 0 L 187.5 0 L 187.5 187.5 L 0 187.5 Z M 0 0 " fill-opacity="1" fill-rule="nonzero"/><path fill="#f5d2aa" d="M 0 0 L 187.5 0 L 187.5 187.5 L 0 187.5 Z M 0 0 " fill-opacity="1" fill-rule="nonzero"/></g><g clip-path="url(#2697e725a8)"><path fill="#2f4c72" d="M 93.21875 56.5 C 100.753906 56.5 106.882812 50.34375 106.882812 42.777344 C 106.882812 35.210938 100.753906 29.054688 93.21875 29.054688 C 85.683594 29.054688 79.554688 35.210938 79.554688 42.777344 C 79.554688 50.34375 85.683594 56.5 93.21875 56.5 Z M 93.21875 32.214844 C 99.019531 32.214844 103.738281 36.953125 103.738281 42.777344 C 103.738281 48.601562 99.019531 53.339844 93.21875 53.339844 C 87.417969 53.339844 82.703125 48.601562 82.703125 42.777344 C 82.699219 36.953125 87.417969 32.214844 93.21875 32.214844 Z M 93.21875 32.214844 " fill-opacity="1" fill-rule="nonzero"/></g><path fill="#2f4c72" d="M 55.910156 82.351562 C 55.710938 84.699219 56.4375 86.980469 57.953125 88.777344 C 58.574219 89.519531 59.304688 90.144531 60.117188 90.632812 L 71.703125 97.664062 C 73.28125 98.621094 75.132812 98.90625 76.921875 98.460938 C 77.890625 98.21875 78.773438 97.785156 79.53125 97.183594 L 79.675781 98.769531 L 68.363281 146.476562 C 67.792969 148.882812 68.1875 151.371094 69.480469 153.476562 C 70.773438 155.582031 72.804688 157.058594 75.199219 157.636719 C 75.914062 157.804688 76.628906 157.886719 77.335938 157.886719 C 81.507812 157.886719 85.300781 155.015625 86.308594 150.769531 L 93.21875 121.632812 L 100.125 150.769531 C 101.304688 155.738281 106.300781 158.808594 111.238281 157.636719 C 113.632812 157.058594 115.664062 155.582031 116.953125 153.476562 C 118.246094 151.371094 118.644531 148.882812 118.074219 146.476562 L 106.761719 98.769531 L 106.90625 97.183594 C 109.097656 98.90625 112.210938 99.195312 114.734375 97.664062 L 126.320312 90.632812 C 128.324219 89.417969 129.738281 87.488281 130.300781 85.203125 C 130.863281 82.917969 130.507812 80.550781 129.292969 78.539062 C 128.796875 77.714844 128.175781 76.980469 127.445312 76.359375 L 112.488281 63.671875 C 108.78125 60.523438 104.0625 58.789062 99.210938 58.789062 L 87.222656 58.789062 C 82.371094 58.789062 77.65625 60.523438 73.945312 63.671875 L 59 76.363281 C 57.207031 77.882812 56.109375 80.007812 55.914062 82.351562 Z M 61.019531 78.773438 L 75.972656 66.085938 C 79.121094 63.417969 83.117188 61.949219 87.226562 61.949219 L 99.210938 61.949219 C 103.324219 61.949219 107.320312 63.417969 110.464844 66.085938 L 125.417969 78.773438 L 125.417969 78.777344 C 125.886719 79.171875 126.285156 79.644531 126.605469 80.167969 C 127.382812 81.460938 127.609375 82.980469 127.25 84.445312 C 126.886719 85.914062 125.980469 87.148438 124.695312 87.929688 L 113.109375 94.960938 C 111.335938 96.035156 109.023438 95.460938 107.957031 93.683594 C 106.890625 91.90625 107.460938 89.585938 109.230469 88.511719 L 116.710938 83.976562 C 117.144531 83.710938 117.421875 83.253906 117.464844 82.75 C 117.503906 82.242188 117.296875 81.746094 116.910156 81.417969 L 108.328125 74.136719 C 107.878906 73.753906 107.25 73.652344 106.71875 73.882812 C 106.175781 74.101562 105.800781 74.613281 105.746094 75.199219 L 103.605469 98.742188 C 103.589844 98.914062 103.601562 99.085938 103.644531 99.25 L 115.015625 147.210938 C 115.792969 150.484375 113.769531 153.78125 110.507812 154.5625 C 107.273438 155.347656 103.964844 153.3125 103.1875 150.039062 L 94.75 114.449219 C 94.414062 113.027344 92.027344 113.027344 91.691406 114.449219 L 83.234375 150.035156 C 82.453125 153.308594 79.175781 155.339844 75.914062 154.558594 C 72.652344 153.777344 70.632812 150.480469 71.410156 147.207031 L 82.78125 99.246094 C 82.820312 99.082031 82.832031 98.910156 82.816406 98.738281 L 80.671875 75.191406 C 80.617188 74.605469 80.246094 74.097656 79.703125 73.875 C 79.507812 73.796875 79.308594 73.757812 79.105469 73.757812 C 78.742188 73.757812 78.382812 73.882812 78.09375 74.128906 L 69.511719 81.410156 C 69.125 81.738281 68.921875 82.234375 68.960938 82.742188 C 69 83.25 69.28125 83.707031 69.714844 83.96875 L 77.191406 88.503906 C 78.960938 89.578125 79.535156 91.898438 78.464844 93.679688 C 77.945312 94.539062 77.125 95.144531 76.15625 95.386719 C 75.195312 95.632812 74.175781 95.476562 73.316406 94.957031 L 61.726562 87.921875 C 61.203125 87.605469 60.738281 87.207031 60.339844 86.734375 C 59.367188 85.582031 58.902344 84.117188 59.03125 82.613281 C 59.15625 81.109375 59.855469 79.742188 61.003906 78.769531 Z M 107.960938 85.589844 L 108.605469 78.503906 L 113.207031 82.410156 Z M 78.476562 85.589844 L 73.230469 82.410156 L 77.832031 78.503906 Z M 78.476562 85.589844 " fill-opacity="1" fill-rule="nonzero"/><path fill="#2f4c72" d="M 54.203125 71.496094 C 60.40625 71.496094 65.449219 66.429688 65.449219 60.199219 C 65.449219 53.972656 60.40625 48.910156 54.203125 48.910156 C 48.003906 48.910156 42.957031 53.976562 42.957031 60.203125 C 42.957031 66.429688 48.003906 71.496094 54.203125 71.496094 Z M 54.203125 52.070312 C 58.671875 52.070312 62.304688 55.714844 62.304688 60.203125 C 62.304688 64.6875 58.671875 68.335938 54.203125 68.335938 C 49.738281 68.335938 46.105469 64.6875 46.105469 60.203125 C 46.105469 55.714844 49.738281 52.070312 54.203125 52.070312 Z M 54.203125 52.070312 " fill-opacity="1" fill-rule="nonzero"/><path fill="#2f4c72" d="M 27.558594 98.757812 L 36.828125 104.378906 C 38.164062 105.1875 39.730469 105.425781 41.242188 105.054688 C 41.871094 104.898438 42.460938 104.644531 42.992188 104.300781 L 43.050781 104.972656 L 34.011719 143.089844 C 33.03125 147.230469 35.589844 151.40625 39.714844 152.394531 C 40.3125 152.539062 40.910156 152.605469 41.496094 152.605469 C 44.976562 152.605469 48.140625 150.214844 48.980469 146.667969 L 54.203125 124.648438 L 59.425781 146.667969 C 60.238281 150.105469 63.261719 152.546875 66.78125 152.605469 L 66.808594 152.605469 C 67.664062 152.605469 68.363281 151.914062 68.378906 151.050781 C 68.394531 150.179688 67.703125 149.460938 66.832031 149.445312 C 64.753906 149.410156 62.964844 147.96875 62.484375 145.9375 L 55.734375 117.464844 C 55.394531 116.042969 53.011719 116.042969 52.675781 117.464844 L 45.921875 145.9375 C 45.34375 148.390625 42.851562 149.902344 40.445312 149.320312 C 38.003906 148.738281 36.492188 146.269531 37.074219 143.820312 L 46.171875 105.453125 C 46.210938 105.285156 46.222656 105.113281 46.207031 104.945312 L 45.664062 98.980469 C 45.65625 98.890625 45.652344 98.804688 45.640625 98.714844 L 44.492188 86.109375 C 44.441406 85.523438 44.066406 85.015625 43.523438 84.792969 C 42.988281 84.570312 42.363281 84.667969 41.914062 85.046875 L 35.046875 90.871094 C 34.660156 91.199219 34.453125 91.695312 34.496094 92.203125 C 34.535156 92.710938 34.816406 93.167969 35.246094 93.429688 L 41.230469 97.0625 C 41.847656 97.433594 42.277344 98.023438 42.449219 98.722656 C 42.480469 98.835938 42.5 98.945312 42.511719 99.0625 L 42.523438 99.195312 C 42.5625 99.742188 42.429688 100.285156 42.144531 100.765625 C 41.773438 101.382812 41.183594 101.816406 40.488281 101.988281 C 39.792969 102.164062 39.070312 102.054688 38.457031 101.679688 L 29.183594 96.050781 C 28.796875 95.8125 28.449219 95.515625 28.152344 95.164062 C 27.429688 94.304688 27.082031 93.21875 27.175781 92.097656 C 27.269531 90.976562 27.792969 89.960938 28.644531 89.238281 L 40.613281 79.085938 C 43.066406 77 46.191406 75.851562 49.410156 75.851562 L 59.011719 75.851562 C 59.878906 75.851562 60.582031 75.144531 60.582031 74.273438 C 60.582031 73.398438 59.878906 72.691406 59.011719 72.691406 L 49.410156 72.691406 C 45.449219 72.691406 41.601562 74.105469 38.582031 76.671875 L 26.617188 86.824219 C 25.121094 88.09375 24.207031 89.871094 24.039062 91.832031 C 23.878906 93.792969 24.484375 95.699219 25.75 97.203125 C 26.269531 97.820312 26.875 98.339844 27.558594 98.753906 Z M 38.753906 91.863281 L 41.636719 89.417969 L 42.039062 93.859375 Z M 38.753906 91.863281 " fill-opacity="1" fill-rule="nonzero"/><path fill="#2f4c72" d="M 64.804688 93.664062 C 63.960938 93.582031 63.171875 94.222656 63.09375 95.09375 L 62.195312 104.945312 C 62.179688 105.113281 62.195312 105.285156 62.234375 105.453125 L 68.636719 132.4375 C 68.808594 133.164062 69.453125 133.652344 70.164062 133.652344 C 70.285156 133.652344 70.40625 133.640625 70.53125 133.609375 C 71.375 133.40625 71.898438 132.554688 71.695312 131.707031 L 65.355469 104.972656 L 66.226562 95.378906 C 66.308594 94.507812 65.667969 93.742188 64.804688 93.660156 Z M 64.804688 93.664062 " fill-opacity="1" fill-rule="nonzero"/><path fill="#2f4c72" d="M 132.238281 71.496094 C 138.441406 71.496094 143.484375 66.429688 143.484375 60.199219 C 143.484375 53.972656 138.441406 48.910156 132.238281 48.910156 C 126.035156 48.910156 120.992188 53.972656 120.992188 60.199219 C 120.992188 66.429688 126.03125 71.496094 132.238281 71.496094 Z M 132.238281 52.070312 C 136.703125 52.070312 140.339844 55.714844 140.339844 60.203125 C 140.339844 64.6875 136.703125 68.335938 132.238281 68.335938 C 127.773438 68.335938 124.136719 64.6875 124.136719 60.203125 C 124.128906 55.714844 127.769531 52.070312 132.238281 52.070312 Z M 132.238281 52.070312 " fill-opacity="1" fill-rule="nonzero"/><path fill="#2f4c72" d="M 159.816406 86.828125 L 147.855469 76.675781 C 144.832031 74.109375 140.988281 72.695312 137.027344 72.695312 L 127.425781 72.695312 C 126.554688 72.695312 125.851562 73.402344 125.851562 74.277344 C 125.851562 75.148438 126.554688 75.855469 127.425781 75.855469 L 137.027344 75.855469 C 140.242188 75.855469 143.367188 77.003906 145.824219 79.089844 L 157.785156 89.238281 C 158.136719 89.535156 158.433594 89.886719 158.671875 90.277344 C 159.863281 92.265625 159.226562 94.855469 157.25 96.054688 L 147.976562 101.679688 C 147.367188 102.054688 146.652344 102.164062 145.949219 101.988281 C 145.25 101.816406 144.664062 101.378906 144.292969 100.761719 C 144.007812 100.285156 143.875 99.742188 143.910156 99.195312 L 143.921875 99.058594 C 143.9375 98.945312 143.957031 98.832031 143.984375 98.722656 C 144.15625 98.023438 144.589844 97.433594 145.203125 97.058594 L 151.183594 93.429688 C 151.617188 93.167969 151.898438 92.710938 151.9375 92.203125 C 151.976562 91.695312 151.773438 91.199219 151.386719 90.871094 L 144.523438 85.046875 C 144.074219 84.667969 143.453125 84.570312 142.914062 84.792969 C 142.367188 85.015625 141.996094 85.523438 141.941406 86.109375 L 140.796875 98.714844 C 140.785156 98.800781 140.777344 98.890625 140.773438 98.980469 L 140.226562 104.945312 C 140.210938 105.113281 140.226562 105.285156 140.265625 105.453125 L 149.359375 143.820312 C 149.941406 146.269531 148.429688 148.738281 145.992188 149.320312 C 143.570312 149.914062 141.09375 148.386719 140.511719 145.9375 L 133.761719 117.464844 C 133.421875 116.042969 131.039062 116.042969 130.703125 117.464844 L 123.949219 145.9375 C 123.46875 147.96875 121.679688 149.410156 119.601562 149.445312 C 118.730469 149.457031 118.035156 150.175781 118.050781 151.050781 C 118.066406 151.914062 118.769531 152.605469 119.625 152.605469 L 119.648438 152.605469 C 123.167969 152.546875 126.195312 150.105469 127.007812 146.667969 L 132.230469 124.648438 L 137.453125 146.667969 C 138.296875 150.214844 141.457031 152.605469 144.941406 152.605469 C 145.527344 152.605469 146.125 152.539062 146.722656 152.394531 C 150.847656 151.40625 153.402344 147.230469 152.417969 143.089844 L 143.386719 104.972656 L 143.445312 104.304688 C 143.976562 104.640625 144.566406 104.898438 145.195312 105.054688 C 146.703125 105.425781 148.273438 105.1875 149.605469 104.382812 L 158.875 98.757812 C 162.335938 96.660156 163.453125 92.121094 161.363281 88.644531 C 160.929688 87.964844 160.410156 87.351562 159.796875 86.835938 Z M 144.804688 89.417969 L 147.6875 91.863281 L 144.402344 93.859375 Z M 144.804688 89.417969 " fill-opacity="1" fill-rule="nonzero"/><path fill="#2f4c72" d="M 115.90625 133.605469 C 116.027344 133.636719 116.152344 133.648438 116.269531 133.648438 C 116.984375 133.648438 117.628906 133.160156 117.800781 132.433594 L 124.203125 105.449219 C 124.242188 105.28125 124.253906 105.109375 124.238281 104.941406 L 123.34375 95.089844 C 123.265625 94.214844 122.480469 93.570312 121.628906 93.660156 C 120.769531 93.738281 120.128906 94.507812 120.207031 95.375 L 121.082031 104.96875 L 114.742188 131.703125 C 114.542969 132.5625 115.0625 133.417969 115.90625 133.613281 Z M 115.90625 133.605469 " fill-opacity="1" fill-rule="nonzero"/></svg>