<svg xmlns="http://www.w3.org/2000/svg" xmlns:xlink="http://www.w3.org/1999/xlink" width="300" zoomAndPan="magnify" viewBox="0 0 224.87999 225" height="300" preserveAspectRatio="xMidYMid meet" version="1.0"><defs><g/><clipPath id="8bcbdcaba4"><path d="M 0 0.0585938 L 224.761719 0.0585938 L 224.761719 224.9375 L 0 224.9375 Z M 0 0.0585938 " clip-rule="nonzero"/></clipPath><clipPath id="9314069009"><path d="M 32.902344 32.964844 L 192 32.964844 L 192 192 L 32.902344 192 Z M 32.902344 32.964844 " clip-rule="nonzero"/></clipPath><clipPath id="8aad1666a9"><path d="M 112.441406 192.035156 C 91.203125 192.035156 71.210938 183.769531 56.203125 168.734375 C 41.167969 153.730469 32.902344 133.734375 32.902344 112.5 C 32.902344 91.265625 41.167969 71.269531 56.203125 56.265625 C 71.210938 41.230469 91.203125 32.964844 112.441406 32.964844 C 133.675781 32.964844 153.671875 41.230469 168.675781 56.265625 C 183.710938 71.300781 191.976562 91.265625 191.976562 112.5 C 191.976562 133.734375 183.710938 153.730469 168.675781 168.734375 C 153.671875 183.769531 133.675781 192.035156 112.441406 192.035156 M 112.441406 37.730469 C 92.476562 37.730469 73.6875 45.519531 59.574219 59.632812 C 45.460938 73.75 37.671875 92.535156 37.671875 112.5 C 37.671875 132.464844 45.460938 151.25 59.574219 165.367188 C 73.6875 179.480469 92.476562 187.269531 112.441406 187.269531 C 132.402344 187.269531 151.191406 179.480469 165.304688 165.367188 C 179.417969 151.25 187.207031 132.464844 187.207031 112.5 C 187.207031 92.535156 179.417969 73.75 165.304688 59.632812 C 151.191406 45.519531 132.402344 37.730469 112.441406 37.730469 " clip-rule="nonzero"/></clipPath></defs><g clip-path="url(#8bcbdcaba4)"><path fill="#ffffff" d="M 0 0.0585938 L 224.878906 0.0585938 L 224.878906 232.4375 L 0 232.4375 Z M 0 0.0585938 " fill-opacity="1" fill-rule="nonzero"/><path fill="#ffffff" d="M 0 0.0585938 L 224.878906 0.0585938 L 224.878906 224.941406 L 0 224.941406 Z M 0 0.0585938 " fill-opacity="1" fill-rule="nonzero"/><path fill="#f5d2aa" d="M 0 0.0585938 L 224.878906 0.0585938 L 224.878906 224.941406 L 0 224.941406 Z M 0 0.0585938 " fill-opacity="1" fill-rule="nonzero"/></g><g clip-path="url(#9314069009)"><g clip-path="url(#8aad1666a9)"><path fill="#000000" d="M 32.902344 32.964844 L 191.847656 32.964844 L 191.847656 191.910156 L 32.902344 191.910156 Z M 32.902344 32.964844 " fill-opacity="1" fill-rule="nonzero"/></g></g><path fill="#000000" d="M 128.632812 77.992188 C 128.308594 77.695312 127.808594 77.714844 127.511719 78.039062 L 121.074219 84.984375 L 120.632812 84.578125 L 127.074219 77.628906 C 127.371094 77.308594 127.351562 76.808594 127.03125 76.507812 C 126.710938 76.210938 126.207031 76.230469 125.910156 76.550781 L 119.46875 83.5 L 119.03125 83.09375 L 125.46875 76.144531 C 125.769531 75.824219 125.75 75.324219 125.429688 75.023438 C 125.109375 74.726562 124.605469 74.746094 124.308594 75.070312 L 117.867188 82.015625 L 117.429688 81.609375 L 123.867188 74.660156 C 124.167969 74.339844 124.148438 73.839844 123.824219 73.539062 C 123.503906 73.242188 123.003906 73.261719 122.707031 73.582031 L 116.265625 80.53125 L 116.0625 80.742188 C 115.886719 80.933594 115.722656 81.128906 115.578125 81.328125 L 115.570312 81.335938 C 115.027344 82.074219 114.714844 82.84375 114.71875 83.742188 C 114.71875 84.6875 115.050781 85.582031 115.65625 86.316406 C 115.25 86.746094 113.441406 88.515625 111.253906 90.632812 C 108.648438 87.859375 106.339844 85.398438 105.875 84.859375 C 106.550781 84.109375 106.949219 83.175781 106.996094 82.175781 C 107.042969 81.222656 106.75 80.390625 106.210938 79.582031 L 106.214844 79.582031 L 106.203125 79.574219 C 106.0625 79.355469 105.898438 79.144531 105.722656 78.929688 L 105.519531 78.695312 L 105.515625 78.699219 L 104.726562 77.875 C 100.375 74.078125 98.214844 73.746094 96.945312 74.832031 C 95.464844 76.101562 94.960938 78.308594 98.289062 83.40625 L 99.019531 84.378906 L 99.019531 84.382812 L 99.101562 84.480469 C 99.992188 85.558594 100.847656 86.167969 102.082031 86.324219 C 103.019531 86.441406 103.949219 86.238281 104.769531 85.761719 C 105.230469 86.320312 107.332031 89.074219 109.675781 92.164062 C 106.449219 95.289062 102.960938 98.65625 102.058594 99.554688 C 101.421875 100.160156 101.070312 100.574219 101.070312 100.574219 C 100.453125 101.238281 100.5 102.28125 101.167969 102.90625 C 101.839844 103.527344 102.882812 103.492188 103.5 102.824219 C 103.5 102.824219 103.9375 102.363281 104.320312 101.914062 L 104.324219 101.917969 C 104.886719 101.269531 108.03125 97.496094 111.011719 93.921875 C 113.808594 97.605469 116.585938 101.269531 117.113281 101.9375 L 117.117188 101.933594 C 117.5 102.429688 117.941406 102.941406 117.941406 102.941406 C 118.5625 103.679688 119.664062 103.765625 120.40625 103.140625 C 121.148438 102.515625 121.246094 101.410156 120.625 100.675781 C 120.625 100.675781 120.273438 100.222656 119.628906 99.550781 C 118.777344 98.621094 115.648438 95.304688 112.582031 92.042969 C 114.578125 89.660156 116.257812 87.664062 116.660156 87.21875 C 117.414062 87.703125 118.277344 87.933594 119.167969 87.863281 C 120.335938 87.773438 121.167969 87.238281 122.054688 86.257812 L 122.136719 86.171875 L 122.136719 86.167969 L 128.675781 79.113281 C 128.972656 78.792969 128.953125 78.292969 128.632812 77.992188 " fill-opacity="1" fill-rule="nonzero"/><g fill="#000000" fill-opacity="1"><g transform="translate(52.271351, 132.34683)"><g><path d="M 4.9375 0.1875 C 4.0625 0.1875 3.21875 0.0703125 2.40625 -0.15625 C 1.59375 -0.394531 0.9375 -0.707031 0.4375 -1.09375 L 1.3125 -3.015625 C 1.78125 -2.660156 2.335938 -2.378906 2.984375 -2.171875 C 3.640625 -1.960938 4.296875 -1.859375 4.953125 -1.859375 C 5.671875 -1.859375 6.203125 -1.960938 6.546875 -2.171875 C 6.898438 -2.390625 7.078125 -2.679688 7.078125 -3.046875 C 7.078125 -3.304688 6.972656 -3.519531 6.765625 -3.6875 C 6.566406 -3.863281 6.304688 -4.003906 5.984375 -4.109375 C 5.660156 -4.210938 5.226562 -4.332031 4.6875 -4.46875 C 3.84375 -4.664062 3.148438 -4.863281 2.609375 -5.0625 C 2.078125 -5.257812 1.617188 -5.578125 1.234375 -6.015625 C 0.847656 -6.460938 0.65625 -7.050781 0.65625 -7.78125 C 0.65625 -8.425781 0.828125 -9.007812 1.171875 -9.53125 C 1.523438 -10.050781 2.050781 -10.460938 2.75 -10.765625 C 3.445312 -11.066406 4.300781 -11.21875 5.3125 -11.21875 C 6.019531 -11.21875 6.707031 -11.132812 7.375 -10.96875 C 8.050781 -10.800781 8.640625 -10.5625 9.140625 -10.25 L 8.359375 -8.3125 C 7.335938 -8.882812 6.316406 -9.171875 5.296875 -9.171875 C 4.578125 -9.171875 4.046875 -9.054688 3.703125 -8.828125 C 3.367188 -8.597656 3.203125 -8.296875 3.203125 -7.921875 C 3.203125 -7.535156 3.398438 -7.25 3.796875 -7.0625 C 4.191406 -6.882812 4.789062 -6.707031 5.59375 -6.53125 C 6.4375 -6.332031 7.125 -6.128906 7.65625 -5.921875 C 8.195312 -5.722656 8.65625 -5.40625 9.03125 -4.96875 C 9.414062 -4.539062 9.609375 -3.960938 9.609375 -3.234375 C 9.609375 -2.597656 9.429688 -2.019531 9.078125 -1.5 C 8.734375 -0.976562 8.207031 -0.566406 7.5 -0.265625 C 6.800781 0.0351562 5.945312 0.1875 4.9375 0.1875 Z M 4.9375 0.1875 "/></g></g></g><g fill="#000000" fill-opacity="1"><g transform="translate(63.4372, 132.34683)"><g><path d="M 6.21875 0.1875 C 4.632812 0.1875 3.40625 -0.242188 2.53125 -1.109375 C 1.65625 -1.984375 1.21875 -3.234375 1.21875 -4.859375 L 1.21875 -11.03125 L 3.765625 -11.03125 L 3.765625 -4.953125 C 3.765625 -2.972656 4.585938 -1.984375 6.234375 -1.984375 C 7.023438 -1.984375 7.628906 -2.222656 8.046875 -2.703125 C 8.472656 -3.179688 8.6875 -3.929688 8.6875 -4.953125 L 8.6875 -11.03125 L 11.203125 -11.03125 L 11.203125 -4.859375 C 11.203125 -3.234375 10.765625 -1.984375 9.890625 -1.109375 C 9.015625 -0.242188 7.789062 0.1875 6.21875 0.1875 Z M 6.21875 0.1875 "/></g></g></g><g fill="#000000" fill-opacity="1"><g transform="translate(76.968634, 132.34683)"><g><path d="M 6.078125 -11.03125 C 7.054688 -11.03125 7.90625 -10.867188 8.625 -10.546875 C 9.351562 -10.222656 9.910156 -9.757812 10.296875 -9.15625 C 10.679688 -8.5625 10.875 -7.851562 10.875 -7.03125 C 10.875 -6.21875 10.679688 -5.507812 10.296875 -4.90625 C 9.910156 -4.300781 9.351562 -3.835938 8.625 -3.515625 C 7.90625 -3.203125 7.054688 -3.046875 6.078125 -3.046875 L 3.859375 -3.046875 L 3.859375 0 L 1.3125 0 L 1.3125 -11.03125 Z M 5.9375 -5.125 C 6.707031 -5.125 7.289062 -5.285156 7.6875 -5.609375 C 8.09375 -5.941406 8.296875 -6.414062 8.296875 -7.03125 C 8.296875 -7.65625 8.09375 -8.128906 7.6875 -8.453125 C 7.289062 -8.785156 6.707031 -8.953125 5.9375 -8.953125 L 3.859375 -8.953125 L 3.859375 -5.125 Z M 5.9375 -5.125 "/></g></g></g><g fill="#000000" fill-opacity="1"><g transform="translate(89.616914, 132.34683)"><g><path d="M 9.859375 -2.046875 L 9.859375 0 L 1.3125 0 L 1.3125 -11.03125 L 9.65625 -11.03125 L 9.65625 -8.984375 L 3.84375 -8.984375 L 3.84375 -6.59375 L 8.96875 -6.59375 L 8.96875 -4.609375 L 3.84375 -4.609375 L 3.84375 -2.046875 Z M 9.859375 -2.046875 "/></g></g></g><g fill="#000000" fill-opacity="1"><g transform="translate(101.303192, 132.34683)"><g><path d="M 8.34375 0 L 6.21875 -3.078125 L 3.859375 -3.078125 L 3.859375 0 L 1.3125 0 L 1.3125 -11.03125 L 6.078125 -11.03125 C 7.054688 -11.03125 7.90625 -10.867188 8.625 -10.546875 C 9.351562 -10.222656 9.910156 -9.757812 10.296875 -9.15625 C 10.679688 -8.5625 10.875 -7.851562 10.875 -7.03125 C 10.875 -6.207031 10.675781 -5.5 10.28125 -4.90625 C 9.894531 -4.3125 9.335938 -3.859375 8.609375 -3.546875 L 11.078125 0 Z M 8.296875 -7.03125 C 8.296875 -7.65625 8.09375 -8.128906 7.6875 -8.453125 C 7.289062 -8.785156 6.707031 -8.953125 5.9375 -8.953125 L 3.859375 -8.953125 L 3.859375 -5.109375 L 5.9375 -5.109375 C 6.707031 -5.109375 7.289062 -5.273438 7.6875 -5.609375 C 8.09375 -5.941406 8.296875 -6.414062 8.296875 -7.03125 Z M 8.296875 -7.03125 "/></g></g></g><g fill="#000000" fill-opacity="1"><g transform="translate(119.566089, 132.34683)"><g><path d="M 3.859375 -8.984375 L 3.859375 -6.0625 L 8.96875 -6.0625 L 8.96875 -4.015625 L 3.859375 -4.015625 L 3.859375 0 L 1.3125 0 L 1.3125 -11.03125 L 9.65625 -11.03125 L 9.65625 -8.984375 Z M 3.859375 -8.984375 "/></g></g></g><g fill="#000000" fill-opacity="1"><g transform="translate(130.747712, 132.34683)"><g><path d="M 6.65625 0.1875 C 5.507812 0.1875 4.472656 -0.0546875 3.546875 -0.546875 C 2.628906 -1.046875 1.910156 -1.726562 1.390625 -2.59375 C 0.867188 -3.457031 0.609375 -4.429688 0.609375 -5.515625 C 0.609375 -6.597656 0.867188 -7.570312 1.390625 -8.4375 C 1.910156 -9.3125 2.628906 -9.992188 3.546875 -10.484375 C 4.472656 -10.972656 5.507812 -11.21875 6.65625 -11.21875 C 7.800781 -11.21875 8.828125 -10.972656 9.734375 -10.484375 C 10.648438 -9.992188 11.367188 -9.3125 11.890625 -8.4375 C 12.421875 -7.570312 12.6875 -6.597656 12.6875 -5.515625 C 12.6875 -4.429688 12.421875 -3.457031 11.890625 -2.59375 C 11.367188 -1.726562 10.648438 -1.046875 9.734375 -0.546875 C 8.828125 -0.0546875 7.800781 0.1875 6.65625 0.1875 Z M 6.65625 -1.984375 C 7.300781 -1.984375 7.882812 -2.132812 8.40625 -2.4375 C 8.9375 -2.738281 9.351562 -3.15625 9.65625 -3.6875 C 9.957031 -4.226562 10.109375 -4.835938 10.109375 -5.515625 C 10.109375 -6.203125 9.957031 -6.8125 9.65625 -7.34375 C 9.351562 -7.882812 8.9375 -8.300781 8.40625 -8.59375 C 7.882812 -8.894531 7.300781 -9.046875 6.65625 -9.046875 C 6 -9.046875 5.40625 -8.894531 4.875 -8.59375 C 4.351562 -8.300781 3.941406 -7.882812 3.640625 -7.34375 C 3.347656 -6.8125 3.203125 -6.203125 3.203125 -5.515625 C 3.203125 -4.835938 3.347656 -4.226562 3.640625 -3.6875 C 3.941406 -3.15625 4.351562 -2.738281 4.875 -2.4375 C 5.40625 -2.132812 6 -1.984375 6.65625 -1.984375 Z M 6.65625 -1.984375 "/></g></g></g><g fill="#000000" fill-opacity="1"><g transform="translate(145.162296, 132.34683)"><g><path d="M 6.65625 0.1875 C 5.507812 0.1875 4.472656 -0.0546875 3.546875 -0.546875 C 2.628906 -1.046875 1.910156 -1.726562 1.390625 -2.59375 C 0.867188 -3.457031 0.609375 -4.429688 0.609375 -5.515625 C 0.609375 -6.597656 0.867188 -7.570312 1.390625 -8.4375 C 1.910156 -9.3125 2.628906 -9.992188 3.546875 -10.484375 C 4.472656 -10.972656 5.507812 -11.21875 6.65625 -11.21875 C 7.800781 -11.21875 8.828125 -10.972656 9.734375 -10.484375 C 10.648438 -9.992188 11.367188 -9.3125 11.890625 -8.4375 C 12.421875 -7.570312 12.6875 -6.597656 12.6875 -5.515625 C 12.6875 -4.429688 12.421875 -3.457031 11.890625 -2.59375 C 11.367188 -1.726562 10.648438 -1.046875 9.734375 -0.546875 C 8.828125 -0.0546875 7.800781 0.1875 6.65625 0.1875 Z M 6.65625 -1.984375 C 7.300781 -1.984375 7.882812 -2.132812 8.40625 -2.4375 C 8.9375 -2.738281 9.351562 -3.15625 9.65625 -3.6875 C 9.957031 -4.226562 10.109375 -4.835938 10.109375 -5.515625 C 10.109375 -6.203125 9.957031 -6.8125 9.65625 -7.34375 C 9.351562 -7.882812 8.9375 -8.300781 8.40625 -8.59375 C 7.882812 -8.894531 7.300781 -9.046875 6.65625 -9.046875 C 6 -9.046875 5.40625 -8.894531 4.875 -8.59375 C 4.351562 -8.300781 3.941406 -7.882812 3.640625 -7.34375 C 3.347656 -6.8125 3.203125 -6.203125 3.203125 -5.515625 C 3.203125 -4.835938 3.347656 -4.226562 3.640625 -3.6875 C 3.941406 -3.15625 4.351562 -2.738281 4.875 -2.4375 C 5.40625 -2.132812 6 -1.984375 6.65625 -1.984375 Z M 6.65625 -1.984375 "/></g></g></g><g fill="#000000" fill-opacity="1"><g transform="translate(159.576879, 132.34683)"><g><path d="M 1.3125 -11.03125 L 6.328125 -11.03125 C 7.523438 -11.03125 8.582031 -10.800781 9.5 -10.34375 C 10.414062 -9.894531 11.128906 -9.253906 11.640625 -8.421875 C 12.148438 -7.585938 12.40625 -6.617188 12.40625 -5.515625 C 12.40625 -4.410156 12.148438 -3.441406 11.640625 -2.609375 C 11.128906 -1.785156 10.414062 -1.144531 9.5 -0.6875 C 8.582031 -0.226562 7.523438 0 6.328125 0 L 1.3125 0 Z M 6.203125 -2.09375 C 7.296875 -2.09375 8.171875 -2.398438 8.828125 -3.015625 C 9.492188 -3.628906 9.828125 -4.460938 9.828125 -5.515625 C 9.828125 -6.566406 9.492188 -7.398438 8.828125 -8.015625 C 8.171875 -8.628906 7.296875 -8.9375 6.203125 -8.9375 L 3.859375 -8.9375 L 3.859375 -2.09375 Z M 6.203125 -2.09375 "/></g></g></g><g fill="#000000" fill-opacity="1"><g transform="translate(86.042822, 154.597585)"><g><path d="M 2.671875 0.0625 C 2.222656 0.0625 1.816406 -0.0351562 1.453125 -0.234375 C 1.085938 -0.429688 0.800781 -0.703125 0.59375 -1.046875 C 0.382812 -1.398438 0.28125 -1.789062 0.28125 -2.21875 C 0.28125 -2.65625 0.382812 -3.046875 0.59375 -3.390625 C 0.800781 -3.742188 1.085938 -4.019531 1.453125 -4.21875 C 1.816406 -4.414062 2.222656 -4.515625 2.671875 -4.515625 C 3.128906 -4.515625 3.539062 -4.414062 3.90625 -4.21875 C 4.269531 -4.019531 4.554688 -3.742188 4.765625 -3.390625 C 4.972656 -3.046875 5.078125 -2.65625 5.078125 -2.21875 C 5.078125 -1.789062 4.972656 -1.398438 4.765625 -1.046875 C 4.554688 -0.703125 4.269531 -0.429688 3.90625 -0.234375 C 3.539062 -0.0351562 3.128906 0.0625 2.671875 0.0625 Z M 2.671875 -0.65625 C 2.972656 -0.65625 3.238281 -0.722656 3.46875 -0.859375 C 3.707031 -0.992188 3.894531 -1.179688 4.03125 -1.421875 C 4.164062 -1.660156 4.234375 -1.925781 4.234375 -2.21875 C 4.234375 -2.519531 4.164062 -2.789062 4.03125 -3.03125 C 3.894531 -3.269531 3.707031 -3.457031 3.46875 -3.59375 C 3.238281 -3.726562 2.972656 -3.796875 2.671875 -3.796875 C 2.378906 -3.796875 2.113281 -3.726562 1.875 -3.59375 C 1.632812 -3.457031 1.445312 -3.269531 1.3125 -3.03125 C 1.175781 -2.789062 1.109375 -2.519531 1.109375 -2.21875 C 1.109375 -1.925781 1.175781 -1.660156 1.3125 -1.421875 C 1.445312 -1.179688 1.632812 -0.992188 1.875 -0.859375 C 2.113281 -0.722656 2.378906 -0.65625 2.671875 -0.65625 Z M 2.671875 -0.65625 "/></g></g></g><g fill="#000000" fill-opacity="1"><g transform="translate(91.845817, 154.597585)"><g><path d="M 0.59375 -4.453125 L 2.546875 -4.453125 C 3.015625 -4.453125 3.429688 -4.359375 3.796875 -4.171875 C 4.171875 -3.984375 4.457031 -3.722656 4.65625 -3.390625 C 4.863281 -3.054688 4.96875 -2.664062 4.96875 -2.21875 C 4.96875 -1.78125 4.863281 -1.390625 4.65625 -1.046875 C 4.457031 -0.710938 4.171875 -0.453125 3.796875 -0.265625 C 3.429688 -0.0859375 3.015625 0 2.546875 0 L 0.59375 0 Z M 2.5 -0.703125 C 2.832031 -0.703125 3.117188 -0.765625 3.359375 -0.890625 C 3.609375 -1.015625 3.800781 -1.191406 3.9375 -1.421875 C 4.070312 -1.648438 4.140625 -1.914062 4.140625 -2.21875 C 4.140625 -2.53125 4.070312 -2.800781 3.9375 -3.03125 C 3.800781 -3.257812 3.609375 -3.4375 3.359375 -3.5625 C 3.117188 -3.6875 2.832031 -3.75 2.5 -3.75 L 1.421875 -3.75 L 1.421875 -0.703125 Z M 2.5 -0.703125 "/></g></g></g><g fill="#000000" fill-opacity="1"><g transform="translate(97.547007, 154.597585)"><g/></g></g><g fill="#000000" fill-opacity="1"><g transform="translate(99.748584, 154.597585)"><g><path d="M 1.8125 -4.453125 L 1.8125 0 L 0.984375 0 L 0.984375 -3.765625 L 0.046875 -3.765625 L 0.046875 -4.453125 Z M 1.8125 -4.453125 "/></g></g></g><g fill="#000000" fill-opacity="1"><g transform="translate(102.618264, 154.597585)"><g><path d="M 1.78125 -4.515625 C 2.394531 -4.515625 2.867188 -4.320312 3.203125 -3.9375 C 3.535156 -3.5625 3.703125 -3.015625 3.703125 -2.296875 C 3.703125 -1.796875 3.609375 -1.367188 3.421875 -1.015625 C 3.242188 -0.660156 2.988281 -0.390625 2.65625 -0.203125 C 2.332031 -0.0234375 1.957031 0.0625 1.53125 0.0625 C 1.300781 0.0625 1.082031 0.0390625 0.875 0 C 0.675781 -0.0507812 0.503906 -0.125 0.359375 -0.21875 L 0.65625 -0.84375 C 0.875 -0.695312 1.15625 -0.625 1.5 -0.625 C 1.9375 -0.625 2.273438 -0.753906 2.515625 -1.015625 C 2.753906 -1.285156 2.875 -1.664062 2.875 -2.15625 L 2.875 -2.171875 C 2.738281 -2.015625 2.566406 -1.894531 2.359375 -1.8125 C 2.160156 -1.738281 1.9375 -1.703125 1.6875 -1.703125 C 1.394531 -1.703125 1.128906 -1.757812 0.890625 -1.875 C 0.660156 -1.988281 0.476562 -2.148438 0.34375 -2.359375 C 0.21875 -2.566406 0.15625 -2.804688 0.15625 -3.078125 C 0.15625 -3.359375 0.222656 -3.609375 0.359375 -3.828125 C 0.503906 -4.046875 0.703125 -4.210938 0.953125 -4.328125 C 1.203125 -4.453125 1.476562 -4.515625 1.78125 -4.515625 Z M 1.84375 -2.359375 C 2.113281 -2.359375 2.332031 -2.425781 2.5 -2.5625 C 2.664062 -2.707031 2.75 -2.890625 2.75 -3.109375 C 2.75 -3.328125 2.664062 -3.503906 2.5 -3.640625 C 2.332031 -3.785156 2.109375 -3.859375 1.828125 -3.859375 C 1.566406 -3.859375 1.351562 -3.789062 1.1875 -3.65625 C 1.03125 -3.519531 0.953125 -3.335938 0.953125 -3.109375 C 0.953125 -2.878906 1.03125 -2.695312 1.1875 -2.5625 C 1.351562 -2.425781 1.570312 -2.359375 1.84375 -2.359375 Z M 1.84375 -2.359375 "/></g></g></g><g fill="#000000" fill-opacity="1"><g transform="translate(107.053224, 154.597585)"><g><path d="M 1.78125 -4.515625 C 2.394531 -4.515625 2.867188 -4.320312 3.203125 -3.9375 C 3.535156 -3.5625 3.703125 -3.015625 3.703125 -2.296875 C 3.703125 -1.796875 3.609375 -1.367188 3.421875 -1.015625 C 3.242188 -0.660156 2.988281 -0.390625 2.65625 -0.203125 C 2.332031 -0.0234375 1.957031 0.0625 1.53125 0.0625 C 1.300781 0.0625 1.082031 0.0390625 0.875 0 C 0.675781 -0.0507812 0.503906 -0.125 0.359375 -0.21875 L 0.65625 -0.84375 C 0.875 -0.695312 1.15625 -0.625 1.5 -0.625 C 1.9375 -0.625 2.273438 -0.753906 2.515625 -1.015625 C 2.753906 -1.285156 2.875 -1.664062 2.875 -2.15625 L 2.875 -2.171875 C 2.738281 -2.015625 2.566406 -1.894531 2.359375 -1.8125 C 2.160156 -1.738281 1.9375 -1.703125 1.6875 -1.703125 C 1.394531 -1.703125 1.128906 -1.757812 0.890625 -1.875 C 0.660156 -1.988281 0.476562 -2.148438 0.34375 -2.359375 C 0.21875 -2.566406 0.15625 -2.804688 0.15625 -3.078125 C 0.15625 -3.359375 0.222656 -3.609375 0.359375 -3.828125 C 0.503906 -4.046875 0.703125 -4.210938 0.953125 -4.328125 C 1.203125 -4.453125 1.476562 -4.515625 1.78125 -4.515625 Z M 1.84375 -2.359375 C 2.113281 -2.359375 2.332031 -2.425781 2.5 -2.5625 C 2.664062 -2.707031 2.75 -2.890625 2.75 -3.109375 C 2.75 -3.328125 2.664062 -3.503906 2.5 -3.640625 C 2.332031 -3.785156 2.109375 -3.859375 1.828125 -3.859375 C 1.566406 -3.859375 1.351562 -3.789062 1.1875 -3.65625 C 1.03125 -3.519531 0.953125 -3.335938 0.953125 -3.109375 C 0.953125 -2.878906 1.03125 -2.695312 1.1875 -2.5625 C 1.351562 -2.425781 1.570312 -2.359375 1.84375 -2.359375 Z M 1.84375 -2.359375 "/></g></g></g><g fill="#000000" fill-opacity="1"><g transform="translate(111.488185, 154.597585)"><g><path d="M 3.5 -0.703125 L 3.5 0 L 0.21875 0 L 0.21875 -0.546875 L 1.984375 -2.234375 C 2.191406 -2.421875 2.328125 -2.582031 2.390625 -2.71875 C 2.460938 -2.863281 2.5 -3.007812 2.5 -3.15625 C 2.5 -3.363281 2.425781 -3.519531 2.28125 -3.625 C 2.144531 -3.738281 1.941406 -3.796875 1.671875 -3.796875 C 1.210938 -3.796875 0.863281 -3.640625 0.625 -3.328125 L 0.046875 -3.78125 C 0.222656 -4.007812 0.457031 -4.1875 0.75 -4.3125 C 1.050781 -4.445312 1.382812 -4.515625 1.75 -4.515625 C 2.226562 -4.515625 2.609375 -4.398438 2.890625 -4.171875 C 3.179688 -3.941406 3.328125 -3.628906 3.328125 -3.234375 C 3.328125 -2.992188 3.273438 -2.765625 3.171875 -2.546875 C 3.078125 -2.335938 2.882812 -2.097656 2.59375 -1.828125 L 1.40625 -0.703125 Z M 3.5 -0.703125 "/></g></g></g><g fill="#000000" fill-opacity="1"><g transform="translate(115.636813, 154.597585)"><g/></g></g><g fill="#000000" fill-opacity="1"><g transform="translate(117.838391, 154.597585)"><g><path d="M 3.515625 0 L 2.59375 -1.296875 C 2.5625 -1.296875 2.503906 -1.296875 2.421875 -1.296875 L 1.421875 -1.296875 L 1.421875 0 L 0.59375 0 L 0.59375 -4.453125 L 2.421875 -4.453125 C 2.816406 -4.453125 3.15625 -4.382812 3.4375 -4.25 C 3.71875 -4.125 3.9375 -3.941406 4.09375 -3.703125 C 4.25 -3.472656 4.328125 -3.195312 4.328125 -2.875 C 4.328125 -2.53125 4.242188 -2.238281 4.078125 -2 C 3.910156 -1.757812 3.675781 -1.582031 3.375 -1.46875 L 4.40625 0 Z M 3.484375 -2.875 C 3.484375 -3.15625 3.390625 -3.367188 3.203125 -3.515625 C 3.023438 -3.671875 2.753906 -3.75 2.390625 -3.75 L 1.421875 -3.75 L 1.421875 -1.984375 L 2.390625 -1.984375 C 2.753906 -1.984375 3.023438 -2.054688 3.203125 -2.203125 C 3.390625 -2.359375 3.484375 -2.582031 3.484375 -2.875 Z M 3.484375 -2.875 "/></g></g></g><g fill="#000000" fill-opacity="1"><g transform="translate(122.935103, 154.597585)"><g><path d="M 2.671875 0.0625 C 2.222656 0.0625 1.816406 -0.0351562 1.453125 -0.234375 C 1.085938 -0.429688 0.800781 -0.703125 0.59375 -1.046875 C 0.382812 -1.398438 0.28125 -1.789062 0.28125 -2.21875 C 0.28125 -2.65625 0.382812 -3.046875 0.59375 -3.390625 C 0.800781 -3.742188 1.085938 -4.019531 1.453125 -4.21875 C 1.816406 -4.414062 2.222656 -4.515625 2.671875 -4.515625 C 3.128906 -4.515625 3.539062 -4.414062 3.90625 -4.21875 C 4.269531 -4.019531 4.554688 -3.742188 4.765625 -3.390625 C 4.972656 -3.046875 5.078125 -2.65625 5.078125 -2.21875 C 5.078125 -1.789062 4.972656 -1.398438 4.765625 -1.046875 C 4.554688 -0.703125 4.269531 -0.429688 3.90625 -0.234375 C 3.539062 -0.0351562 3.128906 0.0625 2.671875 0.0625 Z M 2.671875 -0.65625 C 2.972656 -0.65625 3.238281 -0.722656 3.46875 -0.859375 C 3.707031 -0.992188 3.894531 -1.179688 4.03125 -1.421875 C 4.164062 -1.660156 4.234375 -1.925781 4.234375 -2.21875 C 4.234375 -2.519531 4.164062 -2.789062 4.03125 -3.03125 C 3.894531 -3.269531 3.707031 -3.457031 3.46875 -3.59375 C 3.238281 -3.726562 2.972656 -3.796875 2.671875 -3.796875 C 2.378906 -3.796875 2.113281 -3.726562 1.875 -3.59375 C 1.632812 -3.457031 1.445312 -3.269531 1.3125 -3.03125 C 1.175781 -2.789062 1.109375 -2.519531 1.109375 -2.21875 C 1.109375 -1.925781 1.175781 -1.660156 1.3125 -1.421875 C 1.445312 -1.179688 1.632812 -0.992188 1.875 -0.859375 C 2.113281 -0.722656 2.378906 -0.65625 2.671875 -0.65625 Z M 2.671875 -0.65625 "/></g></g></g><g fill="#000000" fill-opacity="1"><g transform="translate(128.738099, 154.597585)"><g><path d="M 2.125 -1.859375 L 1.421875 -1.140625 L 1.421875 0 L 0.59375 0 L 0.59375 -4.453125 L 1.421875 -4.453125 L 1.421875 -2.171875 L 3.625 -4.453125 L 4.546875 -4.453125 L 2.6875 -2.46875 L 4.671875 0 L 3.703125 0 Z M 2.125 -1.859375 "/></g></g></g><g fill="#000000" fill-opacity="1"><g transform="translate(133.82208, 154.597585)"><g><path d="M 2.515625 0.0625 C 1.898438 0.0625 1.421875 -0.109375 1.078125 -0.453125 C 0.734375 -0.796875 0.5625 -1.289062 0.5625 -1.9375 L 0.5625 -4.453125 L 1.390625 -4.453125 L 1.390625 -1.96875 C 1.390625 -1.09375 1.765625 -0.65625 2.515625 -0.65625 C 3.265625 -0.65625 3.640625 -1.09375 3.640625 -1.96875 L 3.640625 -4.453125 L 4.453125 -4.453125 L 4.453125 -1.9375 C 4.453125 -1.289062 4.28125 -0.796875 3.9375 -0.453125 C 3.601562 -0.109375 3.128906 0.0625 2.515625 0.0625 Z M 2.515625 0.0625 "/></g></g></g></svg>