<svg xmlns="http://www.w3.org/2000/svg" xmlns:xlink="http://www.w3.org/1999/xlink" width="300" zoomAndPan="magnify" viewBox="0 0 224.87999 225" height="300" preserveAspectRatio="xMidYMid meet" version="1.0"><defs><g/><clipPath id="e367522959"><path d="M 0 0.0585938 L 224.761719 0.0585938 L 224.761719 224.9375 L 0 224.9375 Z M 0 0.0585938 " clip-rule="nonzero"/></clipPath><clipPath id="121dda979f"><path d="M 32.902344 32.964844 L 192 32.964844 L 192 192 L 32.902344 192 Z M 32.902344 32.964844 " clip-rule="nonzero"/></clipPath><clipPath id="c9b2bb46df"><path d="M 112.441406 192.035156 C 91.203125 192.035156 71.210938 183.769531 56.203125 168.734375 C 41.167969 153.730469 32.902344 133.734375 32.902344 112.5 C 32.902344 91.265625 41.167969 71.269531 56.203125 56.265625 C 71.210938 41.230469 91.203125 32.964844 112.441406 32.964844 C 133.675781 32.964844 153.671875 41.230469 168.675781 56.265625 C 183.710938 71.300781 191.976562 91.265625 191.976562 112.5 C 191.976562 133.734375 183.710938 153.730469 168.675781 168.734375 C 153.671875 183.769531 133.675781 192.035156 112.441406 192.035156 M 112.441406 37.730469 C 92.476562 37.730469 73.6875 45.519531 59.574219 59.632812 C 45.460938 73.75 37.671875 92.535156 37.671875 112.5 C 37.671875 132.464844 45.460938 151.25 59.574219 165.367188 C 73.6875 179.480469 92.476562 187.269531 112.441406 187.269531 C 132.402344 187.269531 151.191406 179.480469 165.304688 165.367188 C 179.417969 151.25 187.207031 132.464844 187.207031 112.5 C 187.207031 92.535156 179.417969 73.75 165.304688 59.632812 C 151.191406 45.519531 132.402344 37.730469 112.441406 37.730469 " clip-rule="nonzero"/></clipPath><clipPath id="c5e7e35604"><path d="M 101 49.84375 L 126 49.84375 L 126 74 L 101 74 Z M 101 49.84375 " clip-rule="nonzero"/></clipPath></defs><g clip-path="url(#e367522959)"><path fill="#ffffff" d="M 0 0.0585938 L 224.878906 0.0585938 L 224.878906 232.4375 L 0 232.4375 Z M 0 0.0585938 " fill-opacity="1" fill-rule="nonzero"/><path fill="#ffffff" d="M 0 0.0585938 L 224.878906 0.0585938 L 224.878906 224.941406 L 0 224.941406 Z M 0 0.0585938 " fill-opacity="1" fill-rule="nonzero"/><path fill="#f5d2aa" d="M 0 0.0585938 L 224.878906 0.0585938 L 224.878906 224.941406 L 0 224.941406 Z M 0 0.0585938 " fill-opacity="1" fill-rule="nonzero"/></g><g clip-path="url(#121dda979f)"><g clip-path="url(#c9b2bb46df)"><path fill="#2f4c72" d="M 32.902344 32.964844 L 191.847656 32.964844 L 191.847656 191.910156 L 32.902344 191.910156 Z M 32.902344 32.964844 " fill-opacity="1" fill-rule="nonzero"/></g></g><g fill="#2f4c72" fill-opacity="1"><g transform="translate(91.876744, 176.250009)"><g><path d="M 3.140625 -7.8125 L 0.0625 -7.8125 L 0.0625 -9.640625 L 8.453125 -9.640625 L 8.453125 -7.8125 L 5.375 -7.8125 L 5.375 0 L 3.140625 0 Z M 3.140625 -7.8125 "/></g></g></g><g fill="#2f4c72" fill-opacity="1"><g transform="translate(101.346112, 176.250009)"><g><path d="M 8.609375 -1.796875 L 8.609375 0 L 1.140625 0 L 1.140625 -9.640625 L 8.421875 -9.640625 L 8.421875 -7.84375 L 3.359375 -7.84375 L 3.359375 -5.75 L 7.828125 -5.75 L 7.828125 -4.015625 L 3.359375 -4.015625 L 3.359375 -1.796875 Z M 8.609375 -1.796875 "/></g></g></g><g fill="#2f4c72" fill-opacity="1"><g transform="translate(111.544869, 176.250009)"><g><path d="M 7.484375 -2.0625 L 3.015625 -2.0625 L 2.15625 0 L -0.125 0 L 4.171875 -9.640625 L 6.375 -9.640625 L 10.6875 0 L 8.34375 0 Z M 6.78125 -3.765625 L 5.265625 -7.453125 L 3.734375 -3.765625 Z M 6.78125 -3.765625 "/></g></g></g><g fill="#2f4c72" fill-opacity="1"><g transform="translate(123.051047, 176.250009)"><g><path d="M 9.90625 0 L 9.890625 -5.78125 L 7.0625 -1.015625 L 6.0625 -1.015625 L 3.234375 -5.65625 L 3.234375 0 L 1.140625 0 L 1.140625 -9.640625 L 2.984375 -9.640625 L 6.59375 -3.640625 L 10.140625 -9.640625 L 11.96875 -9.640625 L 12 0 Z M 9.90625 0 "/></g></g></g><g clip-path="url(#c5e7e35604)"><path fill="#2f4c72" d="M 113.574219 73.308594 C 120.019531 73.308594 125.257812 68.046875 125.257812 61.578125 C 125.257812 55.109375 120.015625 49.84375 113.570312 49.84375 C 107.128906 49.84375 101.886719 55.109375 101.886719 61.578125 C 101.886719 68.046875 107.128906 73.308594 113.570312 73.308594 Z M 113.574219 52.546875 C 118.535156 52.546875 122.570312 56.597656 122.570312 61.578125 C 122.570312 66.558594 118.535156 70.609375 113.574219 70.609375 C 108.613281 70.609375 104.578125 66.558594 104.578125 61.578125 C 104.578125 56.597656 108.613281 52.546875 113.570312 52.546875 Z M 113.574219 52.546875 " fill-opacity="1" fill-rule="nonzero"/></g><path fill="#2f4c72" d="M 81.664062 95.414062 C 81.496094 97.421875 82.117188 99.375 83.410156 100.910156 C 83.945312 101.542969 84.570312 102.078125 85.261719 102.496094 L 95.171875 108.507812 C 96.523438 109.324219 98.105469 109.570312 99.636719 109.1875 C 100.464844 108.980469 101.21875 108.609375 101.867188 108.097656 L 101.988281 109.453125 L 92.316406 150.242188 C 91.828125 152.300781 92.167969 154.425781 93.273438 156.230469 C 94.375 158.03125 96.113281 159.292969 98.160156 159.785156 C 98.773438 159.929688 99.386719 160 99.992188 160 C 103.558594 159.996094 106.804688 157.546875 107.664062 153.914062 L 113.574219 129 L 119.480469 153.914062 C 120.488281 158.164062 124.761719 160.785156 128.984375 159.785156 C 131.03125 159.292969 132.769531 158.03125 133.871094 156.230469 C 134.980469 154.425781 135.316406 152.300781 134.828125 150.242188 L 125.15625 109.453125 L 125.277344 108.09375 C 127.152344 109.570312 129.816406 109.816406 131.972656 108.507812 L 141.882812 102.496094 C 143.597656 101.457031 144.804688 99.808594 145.285156 97.851562 C 145.769531 95.898438 145.464844 93.875 144.425781 92.152344 C 144.003906 91.449219 143.46875 90.820312 142.84375 90.292969 L 130.054688 79.441406 C 126.882812 76.75 122.847656 75.269531 118.699219 75.269531 L 108.445312 75.269531 C 104.296875 75.269531 100.261719 76.75 97.089844 79.441406 L 84.308594 90.292969 C 82.777344 91.59375 81.835938 93.410156 81.667969 95.414062 Z M 86.035156 92.355469 L 98.824219 81.503906 C 101.515625 79.226562 104.933594 77.96875 108.449219 77.96875 L 118.699219 77.96875 C 122.214844 77.96875 125.632812 79.226562 128.324219 81.503906 L 141.113281 92.355469 L 141.113281 92.359375 C 141.511719 92.695312 141.851562 93.097656 142.125 93.546875 C 142.789062 94.652344 142.984375 95.953125 142.675781 97.207031 C 142.367188 98.460938 141.59375 99.515625 140.492188 100.183594 L 130.585938 106.195312 C 129.066406 107.113281 127.089844 106.625 126.175781 105.105469 C 125.265625 103.582031 125.753906 101.601562 127.265625 100.683594 L 133.664062 96.804688 C 134.035156 96.578125 134.273438 96.1875 134.308594 95.753906 C 134.339844 95.320312 134.164062 94.894531 133.835938 94.617188 L 126.496094 88.390625 C 126.109375 88.0625 125.574219 87.976562 125.117188 88.171875 C 124.652344 88.363281 124.332031 88.796875 124.289062 89.296875 L 122.457031 109.429688 C 122.445312 109.574219 122.453125 109.722656 122.488281 109.863281 L 132.214844 150.871094 C 132.878906 153.667969 131.148438 156.488281 128.359375 157.15625 C 125.59375 157.828125 122.765625 156.089844 122.097656 153.289062 L 114.882812 122.859375 C 114.59375 121.644531 112.554688 121.644531 112.265625 122.859375 L 105.035156 153.285156 C 104.367188 156.085938 101.5625 157.820312 98.773438 157.152344 C 95.984375 156.488281 94.253906 153.664062 94.921875 150.867188 L 104.644531 109.859375 C 104.679688 109.71875 104.691406 109.570312 104.675781 109.425781 L 102.84375 89.292969 C 102.796875 88.792969 102.480469 88.355469 102.015625 88.164062 C 101.847656 88.097656 101.675781 88.066406 101.503906 88.066406 C 101.191406 88.066406 100.882812 88.175781 100.636719 88.382812 L 93.300781 94.609375 C 92.96875 94.890625 92.792969 95.316406 92.828125 95.75 C 92.859375 96.183594 93.101562 96.574219 93.46875 96.796875 L 99.867188 100.675781 C 101.378906 101.59375 101.871094 103.578125 100.957031 105.097656 C 100.511719 105.835938 99.808594 106.351562 98.980469 106.558594 C 98.15625 106.769531 97.289062 106.636719 96.550781 106.191406 L 86.640625 100.175781 C 86.195312 99.90625 85.792969 99.566406 85.453125 99.160156 C 84.621094 98.175781 84.226562 96.925781 84.332031 95.636719 C 84.441406 94.351562 85.039062 93.183594 86.023438 92.351562 Z M 126.183594 98.183594 L 126.730469 92.125 L 130.667969 95.464844 L 126.179688 98.183594 Z M 100.964844 98.183594 L 96.480469 95.464844 L 100.414062 92.125 Z M 100.964844 98.183594 " fill-opacity="1" fill-rule="nonzero"/><path fill="#2f4c72" d="M 80.207031 86.132812 C 85.511719 86.132812 89.824219 81.800781 89.824219 76.476562 C 89.824219 71.152344 85.511719 66.820312 80.207031 66.820312 C 74.902344 66.820312 70.589844 71.152344 70.589844 76.476562 C 70.589844 81.800781 74.902344 86.132812 80.207031 86.132812 Z M 80.207031 69.519531 C 84.027344 69.519531 87.132812 72.640625 87.132812 76.476562 C 87.132812 80.3125 84.027344 83.429688 80.207031 83.429688 C 76.386719 83.429688 73.277344 80.3125 73.277344 76.476562 C 73.277344 72.640625 76.386719 69.519531 80.207031 69.519531 Z M 80.207031 69.519531 " fill-opacity="1" fill-rule="nonzero"/><path fill="#2f4c72" d="M 57.417969 109.441406 L 65.347656 114.25 C 66.488281 114.941406 67.828125 115.144531 69.121094 114.828125 C 69.660156 114.691406 70.164062 114.472656 70.617188 114.183594 L 70.667969 114.757812 L 62.9375 147.347656 C 62.097656 150.890625 64.285156 154.460938 67.816406 155.304688 C 68.328125 155.425781 68.835938 155.484375 69.339844 155.484375 C 72.316406 155.484375 75.019531 153.4375 75.742188 150.40625 L 80.207031 131.582031 L 84.671875 150.40625 C 85.367188 153.34375 87.953125 155.433594 90.964844 155.484375 L 90.984375 155.484375 C 91.71875 155.484375 92.316406 154.894531 92.332031 154.15625 C 92.34375 153.410156 91.75 152.792969 91.007812 152.78125 C 89.226562 152.753906 87.699219 151.519531 87.289062 149.78125 L 81.515625 125.4375 C 81.226562 124.222656 79.1875 124.222656 78.898438 125.4375 L 73.125 149.78125 C 72.628906 151.878906 70.496094 153.171875 68.441406 152.675781 C 66.351562 152.175781 65.058594 150.066406 65.554688 147.972656 L 73.335938 115.167969 C 73.371094 115.023438 73.382812 114.875 73.367188 114.730469 L 72.902344 109.632812 C 72.898438 109.554688 72.890625 109.480469 72.882812 109.40625 L 71.902344 98.628906 C 71.855469 98.128906 71.535156 97.691406 71.070312 97.503906 C 70.613281 97.3125 70.078125 97.394531 69.695312 97.71875 L 63.824219 102.699219 C 63.492188 102.980469 63.316406 103.402344 63.351562 103.839844 C 63.386719 104.273438 63.625 104.664062 63.996094 104.886719 L 69.113281 107.992188 C 69.636719 108.308594 70.007812 108.8125 70.15625 109.410156 C 70.179688 109.507812 70.195312 109.605469 70.207031 109.703125 L 70.21875 109.816406 C 70.25 110.28125 70.136719 110.746094 69.890625 111.15625 C 69.574219 111.683594 69.074219 112.058594 68.476562 112.203125 C 67.882812 112.355469 67.265625 112.261719 66.738281 111.941406 L 58.808594 107.125 C 58.476562 106.925781 58.179688 106.671875 57.925781 106.371094 C 57.308594 105.636719 57.011719 104.707031 57.09375 103.746094 C 57.171875 102.789062 57.617188 101.921875 58.347656 101.300781 L 68.582031 92.621094 C 70.683594 90.839844 73.355469 89.855469 76.105469 89.855469 L 84.316406 89.855469 C 85.0625 89.855469 85.664062 89.253906 85.664062 88.507812 C 85.664062 87.761719 85.0625 87.15625 84.316406 87.15625 L 76.105469 87.15625 C 72.71875 87.15625 69.429688 88.363281 66.847656 90.558594 L 56.613281 99.238281 C 55.332031 100.324219 54.550781 101.84375 54.410156 103.519531 C 54.269531 105.199219 54.789062 106.828125 55.871094 108.113281 C 56.316406 108.640625 56.835938 109.085938 57.417969 109.4375 Z M 66.992188 103.546875 L 69.457031 101.457031 L 69.804688 105.253906 Z M 66.992188 103.546875 " fill-opacity="1" fill-rule="nonzero"/><path fill="#2f4c72" d="M 89.273438 105.085938 C 88.550781 105.015625 87.878906 105.5625 87.808594 106.308594 L 87.042969 114.730469 C 87.027344 114.875 87.039062 115.023438 87.074219 115.167969 L 92.546875 138.242188 C 92.695312 138.863281 93.246094 139.277344 93.855469 139.277344 C 93.960938 139.277344 94.066406 139.265625 94.167969 139.242188 C 94.890625 139.070312 95.339844 138.339844 95.164062 137.617188 L 89.742188 114.757812 L 90.488281 106.554688 C 90.558594 105.808594 90.011719 105.152344 89.273438 105.082031 Z M 89.273438 105.085938 " fill-opacity="1" fill-rule="nonzero"/><path fill="#2f4c72" d="M 146.945312 86.132812 C 152.246094 86.132812 156.5625 81.800781 156.5625 76.476562 C 156.5625 71.152344 152.25 66.820312 146.945312 66.820312 C 141.640625 66.820312 137.324219 71.152344 137.324219 76.476562 C 137.324219 81.800781 141.636719 86.132812 146.941406 86.132812 Z M 146.945312 69.519531 C 150.765625 69.519531 153.871094 72.640625 153.871094 76.476562 C 153.871094 80.3125 150.765625 83.429688 146.945312 83.429688 C 143.125 83.429688 140.015625 80.3125 140.015625 76.476562 C 140.007812 72.640625 143.125 69.519531 146.941406 69.519531 Z M 146.945312 69.519531 " fill-opacity="1" fill-rule="nonzero"/><path fill="#2f4c72" d="M 170.53125 99.242188 L 160.300781 90.5625 C 157.714844 88.367188 154.425781 87.160156 151.039062 87.160156 L 142.828125 87.160156 C 142.082031 87.160156 141.480469 87.761719 141.480469 88.507812 C 141.480469 89.253906 142.082031 89.859375 142.828125 89.859375 L 151.039062 89.859375 C 153.789062 89.859375 156.460938 90.839844 158.5625 92.625 L 168.792969 101.304688 C 169.09375 101.558594 169.347656 101.855469 169.550781 102.191406 C 170.570312 103.890625 170.027344 106.105469 168.332031 107.128906 L 160.40625 111.9375 C 159.882812 112.257812 159.269531 112.351562 158.667969 112.203125 C 158.070312 112.054688 157.570312 111.683594 157.253906 111.15625 C 157.007812 110.746094 156.894531 110.28125 156.925781 109.816406 L 156.9375 109.699219 C 156.949219 109.605469 156.964844 109.507812 156.988281 109.410156 C 157.136719 108.8125 157.507812 108.308594 158.03125 107.988281 L 163.148438 104.886719 C 163.519531 104.660156 163.757812 104.273438 163.792969 103.835938 C 163.824219 103.402344 163.648438 102.980469 163.320312 102.699219 L 157.449219 97.71875 C 157.066406 97.394531 156.535156 97.3125 156.074219 97.503906 C 155.609375 97.691406 155.289062 98.128906 155.242188 98.628906 L 154.261719 109.40625 C 154.253906 109.480469 154.246094 109.554688 154.242188 109.632812 L 153.777344 114.730469 C 153.765625 114.875 153.773438 115.023438 153.808594 115.167969 L 161.585938 147.972656 C 162.082031 150.066406 160.792969 152.175781 158.703125 152.675781 C 156.636719 153.183594 154.515625 151.875 154.019531 149.78125 L 148.246094 125.4375 C 147.957031 124.222656 145.917969 124.222656 145.628906 125.4375 L 139.855469 149.78125 C 139.441406 151.519531 137.914062 152.753906 136.136719 152.78125 C 135.390625 152.792969 134.796875 153.40625 134.8125 154.15625 C 134.824219 154.894531 135.421875 155.484375 136.15625 155.484375 L 136.175781 155.484375 C 139.1875 155.433594 141.777344 153.347656 142.472656 150.40625 L 146.9375 131.582031 L 151.40625 150.40625 C 152.125 153.4375 154.828125 155.484375 157.804688 155.484375 C 158.308594 155.484375 158.820312 155.425781 159.332031 155.304688 C 162.859375 154.460938 165.042969 150.890625 164.203125 147.347656 L 156.476562 114.757812 L 156.527344 114.183594 C 156.980469 114.472656 157.484375 114.691406 158.023438 114.824219 C 159.316406 115.144531 160.65625 114.941406 161.796875 114.25 L 169.726562 109.441406 C 172.683594 107.648438 173.640625 103.769531 171.851562 100.792969 C 171.480469 100.214844 171.039062 99.691406 170.511719 99.246094 Z M 157.691406 101.457031 L 160.15625 103.546875 L 157.347656 105.253906 Z M 157.691406 101.457031 " fill-opacity="1" fill-rule="nonzero"/><path fill="#2f4c72" d="M 132.976562 139.238281 C 133.082031 139.261719 133.183594 139.273438 133.289062 139.273438 C 133.898438 139.273438 134.449219 138.859375 134.597656 138.238281 L 140.070312 115.164062 C 140.105469 115.019531 140.117188 114.875 140.101562 114.726562 L 139.335938 106.304688 C 139.269531 105.558594 138.597656 105.007812 137.871094 105.082031 C 137.132812 105.152344 136.585938 105.808594 136.65625 106.550781 L 137.402344 114.753906 L 131.980469 137.613281 C 131.8125 138.347656 132.253906 139.078125 132.976562 139.246094 Z M 132.976562 139.238281 " fill-opacity="1" fill-rule="nonzero"/></svg>