<svg xmlns="http://www.w3.org/2000/svg" xmlns:xlink="http://www.w3.org/1999/xlink" width="300" zoomAndPan="magnify" viewBox="0 0 224.87999 225" height="300" preserveAspectRatio="xMidYMid meet" version="1.0"><defs><clipPath id="05a47c94a4"><path d="M 0 0.0585938 L 224.761719 0.0585938 L 224.761719 224.9375 L 0 224.9375 Z M 0 0.0585938 " clip-rule="nonzero"/></clipPath><clipPath id="2fb747646e"><path d="M 32.902344 32.964844 L 192 32.964844 L 192 192 L 32.902344 192 Z M 32.902344 32.964844 " clip-rule="nonzero"/></clipPath><clipPath id="2d347f49e7"><path d="M 112.441406 192.035156 C 91.203125 192.035156 71.210938 183.769531 56.203125 168.734375 C 41.167969 153.730469 32.902344 133.734375 32.902344 112.5 C 32.902344 91.265625 41.167969 71.269531 56.203125 56.265625 C 71.210938 41.230469 91.203125 32.964844 112.441406 32.964844 C 133.675781 32.964844 153.671875 41.230469 168.675781 56.265625 C 183.710938 71.300781 191.976562 91.265625 191.976562 112.5 C 191.976562 133.734375 183.710938 153.730469 168.675781 168.734375 C 153.671875 183.769531 133.675781 192.035156 112.441406 192.035156 M 112.441406 37.730469 C 92.476562 37.730469 73.6875 45.519531 59.574219 59.632812 C 45.460938 73.75 37.671875 92.535156 37.671875 112.5 C 37.671875 132.464844 45.460938 151.25 59.574219 165.367188 C 73.6875 179.480469 92.476562 187.269531 112.441406 187.269531 C 132.402344 187.269531 151.191406 179.480469 165.304688 165.367188 C 179.417969 151.25 187.207031 132.464844 187.207031 112.5 C 187.207031 92.535156 179.417969 73.75 165.304688 59.632812 C 151.191406 45.519531 132.402344 37.730469 112.441406 37.730469 " clip-rule="nonzero"/></clipPath><clipPath id="50b1996a5d"><path d="M 32.902344 32.964844 L 192 32.964844 L 192 192 L 32.902344 192 Z M 32.902344 32.964844 " clip-rule="nonzero"/></clipPath><clipPath id="3b7bd1ca22"><path d="M 112.441406 32.964844 C 68.511719 32.964844 32.902344 68.574219 32.902344 112.5 C 32.902344 156.425781 68.511719 192.035156 112.441406 192.035156 C 156.367188 192.035156 191.976562 156.425781 191.976562 112.5 C 191.976562 68.574219 156.367188 32.964844 112.441406 32.964844 " clip-rule="nonzero"/></clipPath><clipPath id="1f70e59d1b"><path d="M 49.613281 79.253906 L 175.546875 79.253906 L 175.546875 145.96875 L 49.613281 145.96875 Z M 49.613281 79.253906 " clip-rule="nonzero"/></clipPath></defs><g clip-path="url(#05a47c94a4)"><path fill="#ffffff" d="M 0 0.0585938 L 224.878906 0.0585938 L 224.878906 232.4375 L 0 232.4375 Z M 0 0.0585938 " fill-opacity="1" fill-rule="nonzero"/><path fill="#ffffff" d="M 0 0.0585938 L 224.878906 0.0585938 L 224.878906 224.941406 L 0 224.941406 Z M 0 0.0585938 " fill-opacity="1" fill-rule="nonzero"/><path fill="#f5d2aa" d="M 0 0.0585938 L 224.878906 0.0585938 L 224.878906 224.941406 L 0 224.941406 Z M 0 0.0585938 " fill-opacity="1" fill-rule="nonzero"/></g><g clip-path="url(#2fb747646e)"><g clip-path="url(#2d347f49e7)"><path fill="#2f4c72" d="M 32.902344 32.964844 L 191.847656 32.964844 L 191.847656 191.910156 L 32.902344 191.910156 Z M 32.902344 32.964844 " fill-opacity="1" fill-rule="nonzero"/></g></g><g clip-path="url(#50b1996a5d)"><g clip-path="url(#3b7bd1ca22)"><path fill="#2f4c72" d="M 32.902344 32.964844 L 191.691406 32.964844 L 191.691406 191.75 L 32.902344 191.75 Z M 32.902344 32.964844 " fill-opacity="1" fill-rule="nonzero"/></g></g><g clip-path="url(#1f70e59d1b)"><path fill="#f5d2aa" d="M 73.898438 122.125 C 75.621094 122.8125 77.113281 123.75 78.351562 125.039062 C 78.984375 125.726562 79.566406 126.460938 80.125 127.21875 C 80.503906 127.75 80.480469 128.308594 79.972656 128.738281 C 79.464844 129.171875 78.984375 128.890625 78.605469 128.511719 C 78.351562 128.257812 78.101562 127.980469 77.898438 127.648438 C 76.835938 125.925781 75.214844 124.886719 73.417969 123.875 C 73.164062 124.8125 72.859375 125.648438 72.734375 126.535156 C 71.925781 131.703125 68.8125 135.300781 64.660156 138.113281 C 62.992188 139.253906 61.09375 140.089844 59.320312 141.054688 C 59.195312 141.128906 59.042969 141.15625 58.917969 141.230469 C 57.320312 142.421875 55.753906 143.613281 54.160156 144.777344 C 53.957031 144.929688 53.652344 144.90625 53.375 144.957031 C 53.375 144.675781 53.246094 144.347656 53.375 144.144531 C 53.601562 143.6875 53.957031 143.308594 54.335938 142.800781 C 54.058594 142.777344 53.753906 142.675781 53.578125 142.777344 C 52.613281 143.308594 51.628906 143.816406 51.121094 144.878906 C 51.046875 145.03125 51.046875 145.234375 50.917969 145.363281 C 50.667969 145.589844 50.386719 145.765625 50.109375 145.96875 C 49.957031 145.664062 49.652344 145.363281 49.652344 145.058594 C 49.652344 144.121094 49.957031 143.257812 50.539062 142.472656 C 51.78125 140.824219 53.324219 140.039062 55.375 140.066406 C 56.488281 140.089844 57.371094 139.585938 58.183594 138.722656 C 60.585938 136.0625 63.09375 133.476562 65.546875 130.84375 C 65.722656 130.664062 65.925781 130.414062 65.976562 130.183594 C 66.535156 127.246094 67.089844 124.28125 67.648438 121.339844 C 67.671875 121.164062 67.671875 121.011719 67.699219 120.835938 C 66.9375 121.085938 66.253906 121.390625 65.523438 121.59375 C 64.207031 121.925781 62.914062 121.773438 61.699219 121.238281 C 61.269531 121.039062 60.964844 121.085938 60.714844 121.492188 C 60.714844 121.519531 60.6875 121.542969 60.664062 121.542969 C 60.183594 121.898438 59.675781 122.558594 59.246094 122.507812 C 58.234375 122.40625 57.421875 121.722656 56.839844 120.835938 C 56.738281 120.707031 56.816406 120.351562 56.941406 120.175781 C 57.246094 119.746094 57.625 119.3125 58.003906 118.960938 C 58.386719 118.605469 58.410156 118.273438 58.082031 117.894531 C 57.804688 117.566406 57.550781 117.1875 57.296875 116.855469 C 57.222656 116.855469 57.171875 116.855469 57.121094 116.882812 C 55.625 117.71875 55.625 117.71875 54.511719 116.398438 C 54.007812 115.792969 53.550781 115.160156 53.070312 114.550781 C 52.589844 113.96875 52.691406 113.488281 53.246094 113.03125 C 53.550781 112.777344 53.855469 112.550781 54.160156 112.296875 C 52.816406 110.371094 53.121094 107.988281 54.917969 106.46875 C 57.042969 104.667969 59.449219 103.757812 62.257812 104.085938 C 63.394531 104.214844 64.359375 104.695312 65.167969 105.53125 C 65.472656 105.835938 65.648438 106.289062 66.304688 106.113281 C 66.988281 105.910156 66.738281 105.378906 66.863281 105 C 66.914062 104.898438 66.886719 104.769531 66.914062 104.566406 C 66.105469 104.441406 65.875 103.882812 65.824219 103.148438 C 65.800781 102.691406 65.671875 102.238281 65.597656 101.753906 C 65.496094 100.996094 65.824219 100.539062 66.609375 100.414062 C 66.988281 100.335938 67.394531 100.285156 67.875 100.210938 C 67.851562 99.90625 67.800781 99.574219 67.800781 99.273438 C 67.699219 97.953125 68.332031 97.144531 69.621094 96.964844 C 75.039062 96.179688 80.480469 95.421875 85.894531 94.636719 C 91.640625 93.824219 97.382812 93.011719 103.128906 92.203125 C 104.496094 92 105.28125 92.582031 105.457031 93.976562 C 105.761719 96.207031 106.089844 98.460938 106.417969 100.691406 C 106.597656 101.933594 106.015625 102.742188 104.773438 102.921875 C 102.015625 103.324219 99.257812 103.707031 96.472656 104.113281 C 97.359375 104.464844 98.21875 104.796875 99.128906 105.152344 C 102.191406 103.757812 105.332031 103.882812 108.546875 105.101562 C 110.796875 105.9375 113.152344 106.46875 115.480469 107.074219 C 118.871094 107.964844 122.285156 108.800781 125.730469 109.660156 C 129.472656 104.746094 134.714844 101.601562 139.699219 98.15625 C 140.6875 97.472656 141.648438 96.738281 142.507812 95.902344 C 143.367188 95.066406 143.648438 94.179688 142.710938 93.113281 C 142.050781 92.355469 142.332031 91.417969 143.265625 90.988281 C 143.875 90.707031 144.558594 90.53125 145.214844 90.328125 C 147.46875 89.617188 149.71875 88.910156 151.949219 88.199219 C 153.214844 87.792969 154.097656 86.90625 154.832031 85.867188 C 155.492188 84.929688 155.996094 83.867188 156.578125 82.878906 C 156.707031 82.675781 156.882812 82.398438 157.085938 82.347656 C 159.742188 81.714844 162.222656 80.648438 164.804688 79.253906 C 164.804688 79.789062 164.957031 80.242188 164.804688 80.574219 C 164.5 81.28125 164.09375 81.992188 163.613281 82.574219 C 161.566406 85.03125 159.234375 87.210938 156.453125 88.757812 C 152.097656 91.1875 148.503906 94.40625 145.367188 98.234375 C 143.015625 101.097656 140.507812 103.859375 138.027344 106.746094 C 138.207031 106.796875 138.308594 106.824219 138.40625 106.824219 C 141.648438 106.824219 144.910156 106.847656 148.152344 106.847656 C 148.605469 106.847656 149.085938 106.847656 149.542969 106.824219 C 150.53125 106.746094 151.0625 106.316406 151.367188 105.378906 C 152.050781 103.25 152.679688 102.972656 154.707031 103.910156 C 155.742188 104.363281 156.757812 104.871094 157.742188 105.402344 C 160.984375 107.226562 164.425781 107.609375 168.019531 106.949219 C 168.21875 106.925781 168.472656 106.875 168.652344 106.925781 C 170.902344 107.683594 173.15625 108.46875 175.507812 109.28125 C 174.699219 110.117188 173.738281 110.371094 172.75 110.496094 C 170.167969 110.851562 167.636719 110.445312 165.132812 109.964844 C 163.132812 109.585938 161.160156 109.050781 159.136719 108.75 C 156.074219 108.292969 153.113281 109 150.226562 109.988281 C 145.671875 111.5625 141.167969 113.257812 136.609375 114.828125 C 132.941406 116.097656 129.246094 117.414062 125.375 117.769531 C 122.488281 118.023438 119.578125 118.046875 116.667969 117.945312 C 111.9375 117.792969 107.230469 117.488281 102.523438 117.238281 C 102.421875 117.238281 102.320312 117.238281 102.117188 117.238281 C 102.242188 117.769531 102.371094 118.25 102.496094 118.730469 C 103.304688 121.722656 102.269531 123.773438 99.359375 124.835938 C 98.699219 125.089844 97.964844 125.167969 97.308594 125.421875 C 96.878906 125.574219 96.449219 125.824219 96.09375 126.105469 C 95.941406 126.207031 95.867188 126.585938 95.941406 126.761719 C 96.828125 129.171875 97.332031 131.679688 97.535156 134.238281 C 97.5625 134.390625 97.585938 134.59375 97.6875 134.695312 C 98.828125 135.808594 99.964844 136.925781 101.078125 138.039062 C 101.28125 138.242188 101.359375 138.597656 101.507812 138.875 C 101.207031 138.925781 100.851562 139.050781 100.574219 138.976562 C 100.144531 138.851562 99.738281 138.597656 99.207031 138.316406 C 99.257812 138.621094 99.207031 138.949219 99.359375 139.101562 C 100.066406 139.914062 100.726562 140.773438 101.839844 141.078125 C 102.015625 141.128906 102.191406 141.105469 102.34375 141.207031 C 102.621094 141.382812 102.875 141.636719 103.15625 141.839844 C 102.851562 142.066406 102.574219 142.449219 102.242188 142.523438 C 101.257812 142.699219 100.34375 142.5 99.410156 142.015625 C 97.816406 141.15625 96.953125 139.9375 96.371094 138.214844 C 95.6875 136.164062 94.523438 134.261719 93.539062 132.3125 C 92.753906 130.792969 91.816406 129.324219 91.109375 127.75 C 90.578125 126.613281 89.816406 125.773438 88.679688 125.242188 C 87.996094 126.128906 87.640625 128.003906 87.894531 129.347656 C 89.109375 129.195312 89.132812 129.222656 89.539062 130.414062 C 89.714844 130.996094 89.917969 131.578125 90.09375 132.160156 C 90.246094 132.667969 90.121094 132.996094 89.640625 133.25 C 89.234375 133.453125 89.007812 133.78125 88.398438 133.707031 C 87.742188 133.628906 87.414062 133.453125 87.234375 132.84375 C 87.058594 132.238281 86.882812 131.628906 86.652344 131.019531 C 86.402344 130.335938 86.503906 129.804688 87.335938 129.550781 C 86.550781 128.105469 85.667969 126.761719 84.25 126.027344 C 80.933594 124.355469 77.519531 122.8125 74.101562 121.164062 C 74.050781 121.59375 73.976562 121.847656 73.898438 122.125 Z M 87.867188 124.28125 C 84.730469 123.496094 81.59375 122.734375 78.429688 121.949219 C 78.402344 122.023438 78.378906 122.101562 78.351562 122.203125 C 79.289062 122.710938 80.25 123.214844 81.1875 123.699219 C 83.390625 124.8125 85.71875 125.726562 87.085938 127.980469 C 87.363281 126.738281 87.617188 125.574219 87.867188 124.28125 Z M 67.953125 117.238281 C 65.824219 118.226562 63.523438 118.808594 61.625 120.429688 C 63.394531 121.265625 65.421875 121.1875 67.039062 120.277344 C 67.851562 119.769531 68.332031 118.226562 67.953125 117.238281 Z M 70.988281 107.914062 C 69.976562 107.457031 69.066406 107.027344 68.152344 106.621094 C 68.078125 106.695312 68.003906 106.773438 67.925781 106.847656 C 68.230469 107.609375 68.535156 108.367188 68.886719 109.179688 C 69.671875 108.699219 70.304688 108.316406 70.988281 107.914062 Z M 75.671875 124.6875 C 76.050781 125.066406 76.304688 125.496094 76.683594 125.648438 C 76.910156 125.75 77.316406 125.472656 77.617188 125.320312 C 77.667969 125.292969 77.617188 124.863281 77.519531 124.789062 C 77.011719 124.507812 76.453125 124.304688 75.671875 124.6875 Z M 68.457031 104.339844 C 68.382812 104.339844 68.304688 104.3125 68.253906 104.3125 C 68.128906 104.746094 68.027344 105.152344 67.875 105.683594 C 68.203125 105.65625 68.433594 105.65625 68.683594 105.632812 C 68.585938 105.125 68.507812 104.746094 68.457031 104.339844 Z M 68.457031 104.339844 " fill-opacity="1" fill-rule="nonzero"/></g></svg>