<svg xmlns="http://www.w3.org/2000/svg" xmlns:xlink="http://www.w3.org/1999/xlink" width="230" zoomAndPan="magnify" viewBox="0 0 172.5 113.999999" height="152" preserveAspectRatio="xMidYMid meet" version="1.0"><defs><g/><clipPath id="bd57ed23ce"><path d="M 45.0625 45.730469 L 127.5625 45.730469 L 127.5625 89.230469 L 45.0625 89.230469 Z M 45.0625 45.730469 " clip-rule="nonzero"/></clipPath></defs><g fill="#2f4c72" fill-opacity="1"><g transform="translate(45.831113, 37.471231)"><g><path d="M 8.78125 -2.765625 C 8.78125 -1.828125 8.429688 -1.109375 7.734375 -0.609375 C 7.035156 -0.109375 6.007812 0.140625 4.65625 0.140625 C 3.425781 0.140625 2.457031 -0.078125 1.75 -0.515625 C 1.050781 -0.953125 0.601562 -1.613281 0.40625 -2.5 L 2.34375 -2.828125 C 2.476562 -2.316406 2.734375 -1.945312 3.109375 -1.71875 C 3.492188 -1.488281 4.03125 -1.375 4.71875 -1.375 C 6.125 -1.375 6.828125 -1.800781 6.828125 -2.65625 C 6.828125 -2.925781 6.742188 -3.148438 6.578125 -3.328125 C 6.421875 -3.503906 6.191406 -3.648438 5.890625 -3.765625 C 5.597656 -3.890625 5.035156 -4.035156 4.203125 -4.203125 C 3.484375 -4.367188 2.984375 -4.503906 2.703125 -4.609375 C 2.421875 -4.710938 2.164062 -4.832031 1.9375 -4.96875 C 1.707031 -5.113281 1.515625 -5.28125 1.359375 -5.46875 C 1.203125 -5.664062 1.078125 -5.894531 0.984375 -6.15625 C 0.898438 -6.425781 0.859375 -6.734375 0.859375 -7.078125 C 0.859375 -7.941406 1.179688 -8.601562 1.828125 -9.0625 C 2.484375 -9.53125 3.4375 -9.765625 4.6875 -9.765625 C 5.875 -9.765625 6.765625 -9.578125 7.359375 -9.203125 C 7.960938 -8.828125 8.351562 -8.210938 8.53125 -7.359375 L 6.578125 -7.09375 C 6.472656 -7.5 6.265625 -7.804688 5.953125 -8.015625 C 5.648438 -8.234375 5.210938 -8.34375 4.640625 -8.34375 C 3.421875 -8.34375 2.8125 -7.957031 2.8125 -7.1875 C 2.8125 -6.9375 2.875 -6.734375 3 -6.578125 C 3.132812 -6.421875 3.328125 -6.285156 3.578125 -6.171875 C 3.835938 -6.054688 4.359375 -5.914062 5.140625 -5.75 C 6.054688 -5.550781 6.710938 -5.367188 7.109375 -5.203125 C 7.515625 -5.035156 7.832031 -4.84375 8.0625 -4.625 C 8.289062 -4.40625 8.46875 -4.140625 8.59375 -3.828125 C 8.71875 -3.523438 8.78125 -3.171875 8.78125 -2.765625 Z M 8.78125 -2.765625 "/></g></g></g><g fill="#2f4c72" fill-opacity="1"><g transform="translate(55.162132, 37.471231)"><g><path d="M 8.140625 0 L 0.421875 0 L 0.421875 -1.421875 L 5.625 -8.046875 L 0.9375 -8.046875 L 0.9375 -9.625 L 7.859375 -9.625 L 7.859375 -8.21875 L 2.65625 -1.578125 L 8.140625 -1.578125 Z M 8.140625 0 "/></g></g></g><g fill="#2f4c72" fill-opacity="1"><g transform="translate(63.707596, 37.471231)"><g><path d="M 7.59375 0 L 4.140625 -4.421875 L 2.953125 -3.515625 L 2.953125 0 L 0.9375 0 L 0.9375 -9.625 L 2.953125 -9.625 L 2.953125 -5.25 L 7.28125 -9.625 L 9.640625 -9.625 L 5.53125 -5.546875 L 9.96875 0 Z M 7.59375 0 "/></g></g></g><g fill="#2f4c72" fill-opacity="1"><g transform="translate(73.810508, 37.471231)"><g><path d="M 10.296875 -4.859375 C 10.296875 -3.859375 10.097656 -2.976562 9.703125 -2.21875 C 9.304688 -1.457031 8.738281 -0.875 8 -0.46875 C 7.257812 -0.0625 6.398438 0.140625 5.421875 0.140625 C 3.898438 0.140625 2.710938 -0.300781 1.859375 -1.1875 C 1.003906 -2.082031 0.578125 -3.304688 0.578125 -4.859375 C 0.578125 -6.398438 1.003906 -7.601562 1.859375 -8.46875 C 2.710938 -9.332031 3.898438 -9.765625 5.421875 -9.765625 C 6.953125 -9.765625 8.144531 -9.328125 9 -8.453125 C 9.863281 -7.578125 10.296875 -6.378906 10.296875 -4.859375 Z M 8.234375 -4.859375 C 8.234375 -5.890625 7.988281 -6.703125 7.5 -7.296875 C 7.007812 -7.890625 6.316406 -8.1875 5.421875 -8.1875 C 4.523438 -8.1875 3.832031 -7.890625 3.34375 -7.296875 C 2.851562 -6.710938 2.609375 -5.898438 2.609375 -4.859375 C 2.609375 -3.796875 2.859375 -2.960938 3.359375 -2.359375 C 3.859375 -1.753906 4.546875 -1.453125 5.421875 -1.453125 C 6.316406 -1.453125 7.007812 -1.742188 7.5 -2.328125 C 7.988281 -2.921875 8.234375 -3.765625 8.234375 -4.859375 Z M 8.234375 -4.859375 "/></g></g></g><g fill="#2f4c72" fill-opacity="1"><g transform="translate(84.692142, 37.471231)"><g><path d="M 0.9375 0 L 0.9375 -9.625 L 2.953125 -9.625 L 2.953125 -1.5625 L 8.109375 -1.5625 L 8.109375 0 Z M 0.9375 0 "/></g></g></g><g fill="#2f4c72" fill-opacity="1"><g transform="translate(93.237607, 37.471231)"><g><path d="M 0.9375 0 L 0.9375 -9.625 L 8.5 -9.625 L 8.5 -8.0625 L 2.953125 -8.0625 L 2.953125 -5.640625 L 8.078125 -5.640625 L 8.078125 -4.09375 L 2.953125 -4.09375 L 2.953125 -1.5625 L 8.78125 -1.5625 L 8.78125 0 Z M 0.9375 0 "/></g></g></g><g fill="#2f4c72" fill-opacity="1"><g transform="translate(102.568626, 37.471231)"><g><path d="M 6.796875 0 L 2.609375 -7.40625 C 2.679688 -6.6875 2.71875 -6.109375 2.71875 -5.671875 L 2.71875 0 L 0.9375 0 L 0.9375 -9.625 L 3.234375 -9.625 L 7.484375 -2.15625 C 7.410156 -2.84375 7.375 -3.46875 7.375 -4.03125 L 7.375 -9.625 L 9.15625 -9.625 L 9.15625 0 Z M 6.796875 0 "/></g></g></g><g fill="#2f4c72" fill-opacity="1"><g transform="translate(112.671537, 37.471231)"><g><path d="M 0.9375 0 L 0.9375 -9.625 L 2.953125 -9.625 L 2.953125 0 Z M 0.9375 0 "/></g></g></g><g fill="#2f4c72" fill-opacity="1"><g transform="translate(116.558323, 37.471231)"><g><path d="M 7.734375 0 L 6.890625 -2.453125 L 3.21875 -2.453125 L 2.359375 0 L 0.34375 0 L 3.859375 -9.625 L 6.234375 -9.625 L 9.734375 0 Z M 5.046875 -8.140625 L 5 -7.984375 C 4.957031 -7.828125 4.90625 -7.640625 4.84375 -7.421875 C 4.78125 -7.210938 4.390625 -6.0625 3.671875 -3.96875 L 6.4375 -3.96875 L 5.484375 -6.734375 L 5.1875 -7.671875 Z M 5.046875 -8.140625 "/></g></g></g><g clip-path="url(#bd57ed23ce)"><path fill="#2f4c72" d="M 60.996094 73.6875 C 62.121094 74.132812 63.097656 74.742188 63.910156 75.585938 C 64.324219 76.03125 64.707031 76.511719 65.070312 77.007812 C 65.316406 77.355469 65.300781 77.71875 64.96875 77.996094 C 64.640625 78.277344 64.324219 78.097656 64.074219 77.847656 C 63.910156 77.683594 63.746094 77.503906 63.613281 77.289062 C 62.917969 76.164062 61.855469 75.488281 60.679688 74.824219 C 60.515625 75.4375 60.316406 75.980469 60.234375 76.558594 C 59.703125 79.929688 57.664062 82.277344 54.949219 84.109375 C 53.855469 84.855469 52.613281 85.398438 51.453125 86.027344 C 51.371094 86.078125 51.269531 86.09375 51.1875 86.144531 C 50.144531 86.917969 49.117188 87.695312 48.074219 88.457031 C 47.941406 88.554688 47.742188 88.539062 47.5625 88.570312 C 47.5625 88.390625 47.476562 88.175781 47.5625 88.042969 C 47.710938 87.746094 47.941406 87.496094 48.191406 87.167969 C 48.007812 87.152344 47.808594 87.085938 47.691406 87.152344 C 47.0625 87.496094 46.417969 87.828125 46.085938 88.523438 C 46.035156 88.621094 46.035156 88.753906 45.953125 88.835938 C 45.789062 88.984375 45.605469 89.101562 45.421875 89.230469 C 45.324219 89.035156 45.125 88.835938 45.125 88.636719 C 45.125 88.027344 45.324219 87.464844 45.707031 86.953125 C 46.515625 85.878906 47.527344 85.367188 48.871094 85.382812 C 49.597656 85.398438 50.179688 85.070312 50.707031 84.507812 C 52.28125 82.773438 53.921875 81.085938 55.527344 79.367188 C 55.644531 79.253906 55.777344 79.089844 55.808594 78.941406 C 56.175781 77.023438 56.539062 75.089844 56.902344 73.171875 C 56.917969 73.058594 56.917969 72.957031 56.9375 72.84375 C 56.4375 73.007812 55.992188 73.207031 55.511719 73.339844 C 54.648438 73.554688 53.804688 73.453125 53.011719 73.109375 C 52.730469 72.976562 52.53125 73.007812 52.363281 73.273438 C 52.363281 73.289062 52.347656 73.304688 52.332031 73.304688 C 52.015625 73.539062 51.683594 73.964844 51.402344 73.933594 C 50.742188 73.867188 50.210938 73.421875 49.828125 72.84375 C 49.765625 72.761719 49.8125 72.53125 49.894531 72.414062 C 50.09375 72.132812 50.34375 71.851562 50.59375 71.621094 C 50.839844 71.390625 50.855469 71.175781 50.640625 70.925781 C 50.460938 70.710938 50.292969 70.464844 50.128906 70.25 C 50.078125 70.25 50.046875 70.25 50.011719 70.265625 C 49.035156 70.8125 49.035156 70.8125 48.304688 69.953125 C 47.976562 69.554688 47.675781 69.140625 47.363281 68.746094 C 47.046875 68.367188 47.113281 68.050781 47.476562 67.753906 C 47.675781 67.589844 47.875 67.441406 48.074219 67.277344 C 47.195312 66.019531 47.394531 64.46875 48.570312 63.476562 C 49.960938 62.304688 51.535156 61.707031 53.375 61.921875 C 54.121094 62.003906 54.75 62.320312 55.28125 62.863281 C 55.480469 63.0625 55.59375 63.359375 56.023438 63.246094 C 56.472656 63.113281 56.308594 62.765625 56.390625 62.519531 C 56.421875 62.453125 56.40625 62.367188 56.421875 62.238281 C 55.894531 62.152344 55.742188 61.789062 55.710938 61.3125 C 55.695312 61.015625 55.609375 60.71875 55.5625 60.402344 C 55.496094 59.90625 55.710938 59.609375 56.222656 59.527344 C 56.472656 59.476562 56.738281 59.445312 57.050781 59.394531 C 57.035156 59.195312 57.003906 58.980469 57.003906 58.785156 C 56.9375 57.925781 57.351562 57.394531 58.195312 57.28125 C 61.738281 56.769531 65.300781 56.273438 68.847656 55.761719 C 72.605469 55.230469 76.367188 54.703125 80.125 54.175781 C 81.019531 54.042969 81.535156 54.421875 81.652344 55.332031 C 81.851562 56.785156 82.066406 58.253906 82.28125 59.710938 C 82.394531 60.519531 82.015625 61.046875 81.203125 61.164062 C 79.398438 61.425781 77.59375 61.675781 75.769531 61.9375 C 76.351562 62.171875 76.914062 62.386719 77.507812 62.617188 C 79.515625 61.707031 81.566406 61.789062 83.671875 62.582031 C 85.144531 63.128906 86.6875 63.476562 88.210938 63.871094 C 90.429688 64.449219 92.667969 64.996094 94.917969 65.558594 C 97.371094 62.351562 100.800781 60.304688 104.0625 58.058594 C 104.710938 57.609375 105.339844 57.132812 105.902344 56.585938 C 106.464844 56.042969 106.648438 55.464844 106.035156 54.769531 C 105.605469 54.273438 105.785156 53.664062 106.398438 53.382812 C 106.796875 53.199219 107.242188 53.085938 107.675781 52.953125 C 109.148438 52.488281 110.621094 52.027344 112.082031 51.5625 C 112.910156 51.300781 113.488281 50.722656 113.96875 50.042969 C 114.398438 49.433594 114.730469 48.738281 115.113281 48.09375 C 115.195312 47.960938 115.308594 47.78125 115.441406 47.746094 C 117.183594 47.335938 118.804688 46.640625 120.496094 45.730469 C 120.496094 46.078125 120.59375 46.375 120.496094 46.589844 C 120.296875 47.054688 120.03125 47.515625 119.714844 47.894531 C 118.375 49.5 116.851562 50.917969 115.027344 51.925781 C 112.179688 53.511719 109.828125 55.613281 107.773438 58.105469 C 106.234375 59.972656 104.59375 61.773438 102.96875 63.65625 C 103.085938 63.691406 103.152344 63.707031 103.21875 63.707031 C 105.339844 63.707031 107.476562 63.722656 109.59375 63.722656 C 109.894531 63.722656 110.207031 63.722656 110.507812 63.707031 C 111.152344 63.65625 111.5 63.375 111.699219 62.765625 C 112.148438 61.378906 112.5625 61.195312 113.886719 61.808594 C 114.566406 62.105469 115.226562 62.433594 115.875 62.78125 C 117.992188 63.972656 120.246094 64.21875 122.597656 63.789062 C 122.730469 63.773438 122.898438 63.738281 123.011719 63.773438 C 124.488281 64.269531 125.960938 64.78125 127.503906 65.308594 C 126.972656 65.855469 126.34375 66.019531 125.695312 66.101562 C 124.007812 66.332031 122.351562 66.070312 120.710938 65.753906 C 119.402344 65.507812 118.109375 65.160156 116.785156 64.960938 C 114.78125 64.664062 112.84375 65.128906 110.953125 65.773438 C 107.972656 66.796875 105.023438 67.902344 102.042969 68.929688 C 99.640625 69.753906 97.222656 70.613281 94.6875 70.84375 C 92.800781 71.007812 90.894531 71.027344 88.988281 70.960938 C 85.890625 70.859375 82.808594 70.664062 79.730469 70.496094 C 79.664062 70.496094 79.597656 70.496094 79.464844 70.496094 C 79.546875 70.84375 79.628906 71.15625 79.710938 71.472656 C 80.242188 73.421875 79.5625 74.757812 77.660156 75.453125 C 77.226562 75.617188 76.746094 75.667969 76.316406 75.832031 C 76.035156 75.933594 75.753906 76.097656 75.523438 76.28125 C 75.421875 76.347656 75.371094 76.59375 75.421875 76.710938 C 76.003906 78.277344 76.332031 79.914062 76.464844 81.582031 C 76.484375 81.683594 76.5 81.8125 76.566406 81.878906 C 77.3125 82.605469 78.054688 83.335938 78.785156 84.0625 C 78.917969 84.191406 78.96875 84.425781 79.066406 84.605469 C 78.867188 84.640625 78.636719 84.722656 78.453125 84.671875 C 78.171875 84.589844 77.90625 84.425781 77.558594 84.242188 C 77.59375 84.441406 77.558594 84.65625 77.660156 84.753906 C 78.121094 85.285156 78.554688 85.84375 79.28125 86.042969 C 79.398438 86.078125 79.515625 86.058594 79.613281 86.125 C 79.796875 86.242188 79.960938 86.40625 80.144531 86.539062 C 79.945312 86.6875 79.761719 86.9375 79.546875 86.984375 C 78.902344 87.101562 78.304688 86.96875 77.691406 86.65625 C 76.648438 86.09375 76.085938 85.300781 75.703125 84.175781 C 75.257812 82.839844 74.496094 81.597656 73.847656 80.328125 C 73.335938 79.335938 72.722656 78.378906 72.257812 77.355469 C 71.910156 76.609375 71.414062 76.066406 70.667969 75.71875 C 70.222656 76.296875 69.988281 77.519531 70.15625 78.394531 C 70.949219 78.296875 70.964844 78.3125 71.230469 79.089844 C 71.347656 79.46875 71.480469 79.847656 71.597656 80.226562 C 71.695312 80.558594 71.613281 80.773438 71.296875 80.9375 C 71.03125 81.070312 70.882812 81.285156 70.484375 81.234375 C 70.054688 81.1875 69.839844 81.070312 69.722656 80.675781 C 69.609375 80.277344 69.492188 79.882812 69.34375 79.484375 C 69.175781 79.039062 69.242188 78.691406 69.789062 78.527344 C 69.277344 77.585938 68.695312 76.710938 67.769531 76.230469 C 65.601562 75.140625 63.363281 74.132812 61.128906 73.058594 C 61.09375 73.339844 61.042969 73.503906 60.996094 73.6875 Z M 70.136719 75.089844 C 68.085938 74.578125 66.03125 74.082031 63.960938 73.570312 C 63.941406 73.621094 63.925781 73.667969 63.910156 73.734375 C 64.523438 74.066406 65.152344 74.394531 65.765625 74.710938 C 67.207031 75.4375 68.730469 76.03125 69.625 77.503906 C 69.808594 76.691406 69.972656 75.933594 70.136719 75.089844 Z M 57.101562 70.496094 C 55.710938 71.140625 54.203125 71.523438 52.960938 72.578125 C 54.121094 73.125 55.445312 73.074219 56.503906 72.480469 C 57.035156 72.148438 57.351562 71.140625 57.101562 70.496094 Z M 59.089844 64.417969 C 58.425781 64.121094 57.832031 63.839844 57.234375 63.574219 C 57.183594 63.625 57.136719 63.675781 57.085938 63.722656 C 57.285156 64.21875 57.484375 64.714844 57.714844 65.242188 C 58.226562 64.929688 58.640625 64.683594 59.089844 64.417969 Z M 62.152344 75.355469 C 62.402344 75.601562 62.566406 75.882812 62.816406 75.980469 C 62.964844 76.046875 63.230469 75.867188 63.429688 75.765625 C 63.460938 75.75 63.429688 75.46875 63.363281 75.421875 C 63.03125 75.238281 62.667969 75.105469 62.152344 75.355469 Z M 57.433594 62.089844 C 57.382812 62.089844 57.332031 62.070312 57.300781 62.070312 C 57.21875 62.351562 57.152344 62.617188 57.050781 62.964844 C 57.265625 62.945312 57.417969 62.945312 57.582031 62.929688 C 57.515625 62.601562 57.464844 62.351562 57.433594 62.089844 Z M 57.433594 62.089844 " fill-opacity="1" fill-rule="nonzero"/></g></svg>