<svg xmlns="http://www.w3.org/2000/svg" xmlns:xlink="http://www.w3.org/1999/xlink" width="230" zoomAndPan="magnify" viewBox="0 0 172.5 113.999999" height="152" preserveAspectRatio="xMidYMid meet" version="1.0"><defs><g/><clipPath id="7793ced20e"><path d="M 45.0625 24.148438 L 127.5625 24.148438 L 127.5625 67.648438 L 45.0625 67.648438 Z M 45.0625 24.148438 " clip-rule="nonzero"/></clipPath></defs><g fill="#2f4c72" fill-opacity="1"><g transform="translate(45.831113, 15.885882)"><g><path d="M 8.78125 -2.765625 C 8.78125 -1.828125 8.429688 -1.109375 7.734375 -0.609375 C 7.035156 -0.109375 6.007812 0.140625 4.65625 0.140625 C 3.425781 0.140625 2.457031 -0.078125 1.75 -0.515625 C 1.050781 -0.953125 0.601562 -1.613281 0.40625 -2.5 L 2.34375 -2.828125 C 2.476562 -2.316406 2.734375 -1.945312 3.109375 -1.71875 C 3.492188 -1.488281 4.03125 -1.375 4.71875 -1.375 C 6.125 -1.375 6.828125 -1.800781 6.828125 -2.65625 C 6.828125 -2.925781 6.742188 -3.148438 6.578125 -3.328125 C 6.421875 -3.503906 6.191406 -3.648438 5.890625 -3.765625 C 5.597656 -3.890625 5.035156 -4.035156 4.203125 -4.203125 C 3.484375 -4.367188 2.984375 -4.503906 2.703125 -4.609375 C 2.421875 -4.710938 2.164062 -4.832031 1.9375 -4.96875 C 1.707031 -5.113281 1.515625 -5.28125 1.359375 -5.46875 C 1.203125 -5.664062 1.078125 -5.894531 0.984375 -6.15625 C 0.898438 -6.425781 0.859375 -6.734375 0.859375 -7.078125 C 0.859375 -7.941406 1.179688 -8.601562 1.828125 -9.0625 C 2.484375 -9.53125 3.4375 -9.765625 4.6875 -9.765625 C 5.875 -9.765625 6.765625 -9.578125 7.359375 -9.203125 C 7.960938 -8.828125 8.351562 -8.210938 8.53125 -7.359375 L 6.578125 -7.09375 C 6.472656 -7.5 6.265625 -7.804688 5.953125 -8.015625 C 5.648438 -8.234375 5.210938 -8.34375 4.640625 -8.34375 C 3.421875 -8.34375 2.8125 -7.957031 2.8125 -7.1875 C 2.8125 -6.9375 2.875 -6.734375 3 -6.578125 C 3.132812 -6.421875 3.328125 -6.285156 3.578125 -6.171875 C 3.835938 -6.054688 4.359375 -5.914062 5.140625 -5.75 C 6.054688 -5.550781 6.710938 -5.367188 7.109375 -5.203125 C 7.515625 -5.035156 7.832031 -4.84375 8.0625 -4.625 C 8.289062 -4.40625 8.46875 -4.140625 8.59375 -3.828125 C 8.71875 -3.523438 8.78125 -3.171875 8.78125 -2.765625 Z M 8.78125 -2.765625 "/></g></g></g><g fill="#2f4c72" fill-opacity="1"><g transform="translate(55.162132, 15.885882)"><g><path d="M 8.140625 0 L 0.421875 0 L 0.421875 -1.421875 L 5.625 -8.046875 L 0.9375 -8.046875 L 0.9375 -9.625 L 7.859375 -9.625 L 7.859375 -8.21875 L 2.65625 -1.578125 L 8.140625 -1.578125 Z M 8.140625 0 "/></g></g></g><g fill="#2f4c72" fill-opacity="1"><g transform="translate(63.707596, 15.885882)"><g><path d="M 7.59375 0 L 4.140625 -4.421875 L 2.953125 -3.515625 L 2.953125 0 L 0.9375 0 L 0.9375 -9.625 L 2.953125 -9.625 L 2.953125 -5.25 L 7.28125 -9.625 L 9.640625 -9.625 L 5.53125 -5.546875 L 9.96875 0 Z M 7.59375 0 "/></g></g></g><g fill="#2f4c72" fill-opacity="1"><g transform="translate(73.810508, 15.885882)"><g><path d="M 10.296875 -4.859375 C 10.296875 -3.859375 10.097656 -2.976562 9.703125 -2.21875 C 9.304688 -1.457031 8.738281 -0.875 8 -0.46875 C 7.257812 -0.0625 6.398438 0.140625 5.421875 0.140625 C 3.898438 0.140625 2.710938 -0.300781 1.859375 -1.1875 C 1.003906 -2.082031 0.578125 -3.304688 0.578125 -4.859375 C 0.578125 -6.398438 1.003906 -7.601562 1.859375 -8.46875 C 2.710938 -9.332031 3.898438 -9.765625 5.421875 -9.765625 C 6.953125 -9.765625 8.144531 -9.328125 9 -8.453125 C 9.863281 -7.578125 10.296875 -6.378906 10.296875 -4.859375 Z M 8.234375 -4.859375 C 8.234375 -5.890625 7.988281 -6.703125 7.5 -7.296875 C 7.007812 -7.890625 6.316406 -8.1875 5.421875 -8.1875 C 4.523438 -8.1875 3.832031 -7.890625 3.34375 -7.296875 C 2.851562 -6.710938 2.609375 -5.898438 2.609375 -4.859375 C 2.609375 -3.796875 2.859375 -2.960938 3.359375 -2.359375 C 3.859375 -1.753906 4.546875 -1.453125 5.421875 -1.453125 C 6.316406 -1.453125 7.007812 -1.742188 7.5 -2.328125 C 7.988281 -2.921875 8.234375 -3.765625 8.234375 -4.859375 Z M 8.234375 -4.859375 "/></g></g></g><g fill="#2f4c72" fill-opacity="1"><g transform="translate(84.692142, 15.885882)"><g><path d="M 0.9375 0 L 0.9375 -9.625 L 2.953125 -9.625 L 2.953125 -1.5625 L 8.109375 -1.5625 L 8.109375 0 Z M 0.9375 0 "/></g></g></g><g fill="#2f4c72" fill-opacity="1"><g transform="translate(93.237607, 15.885882)"><g><path d="M 0.9375 0 L 0.9375 -9.625 L 8.5 -9.625 L 8.5 -8.0625 L 2.953125 -8.0625 L 2.953125 -5.640625 L 8.078125 -5.640625 L 8.078125 -4.09375 L 2.953125 -4.09375 L 2.953125 -1.5625 L 8.78125 -1.5625 L 8.78125 0 Z M 0.9375 0 "/></g></g></g><g fill="#2f4c72" fill-opacity="1"><g transform="translate(102.568626, 15.885882)"><g><path d="M 6.796875 0 L 2.609375 -7.40625 C 2.679688 -6.6875 2.71875 -6.109375 2.71875 -5.671875 L 2.71875 0 L 0.9375 0 L 0.9375 -9.625 L 3.234375 -9.625 L 7.484375 -2.15625 C 7.410156 -2.84375 7.375 -3.46875 7.375 -4.03125 L 7.375 -9.625 L 9.15625 -9.625 L 9.15625 0 Z M 6.796875 0 "/></g></g></g><g fill="#2f4c72" fill-opacity="1"><g transform="translate(112.671537, 15.885882)"><g><path d="M 0.9375 0 L 0.9375 -9.625 L 2.953125 -9.625 L 2.953125 0 Z M 0.9375 0 "/></g></g></g><g fill="#2f4c72" fill-opacity="1"><g transform="translate(116.558323, 15.885882)"><g><path d="M 7.734375 0 L 6.890625 -2.453125 L 3.21875 -2.453125 L 2.359375 0 L 0.34375 0 L 3.859375 -9.625 L 6.234375 -9.625 L 9.734375 0 Z M 5.046875 -8.140625 L 5 -7.984375 C 4.957031 -7.828125 4.90625 -7.640625 4.84375 -7.421875 C 4.78125 -7.210938 4.390625 -6.0625 3.671875 -3.96875 L 6.4375 -3.96875 L 5.484375 -6.734375 L 5.1875 -7.671875 Z M 5.046875 -8.140625 "/></g></g></g><g clip-path="url(#7793ced20e)"><path fill="#2f4c72" d="M 60.996094 52.101562 C 62.121094 52.546875 63.097656 53.15625 63.910156 54 C 64.324219 54.445312 64.707031 54.925781 65.070312 55.421875 C 65.316406 55.769531 65.300781 56.132812 64.96875 56.414062 C 64.640625 56.695312 64.324219 56.511719 64.074219 56.265625 C 63.910156 56.097656 63.746094 55.917969 63.613281 55.703125 C 62.917969 54.578125 61.855469 53.902344 60.679688 53.242188 C 60.515625 53.851562 60.316406 54.398438 60.234375 54.976562 C 59.703125 58.34375 57.664062 60.691406 54.949219 62.523438 C 53.855469 63.269531 52.613281 63.8125 51.453125 64.441406 C 51.371094 64.492188 51.269531 64.507812 51.1875 64.558594 C 50.144531 65.332031 49.117188 66.109375 48.074219 66.871094 C 47.941406 66.96875 47.742188 66.953125 47.5625 66.984375 C 47.5625 66.804688 47.476562 66.589844 47.5625 66.457031 C 47.710938 66.160156 47.941406 65.914062 48.191406 65.582031 C 48.007812 65.566406 47.808594 65.5 47.691406 65.566406 C 47.0625 65.914062 46.417969 66.242188 46.085938 66.9375 C 46.035156 67.035156 46.035156 67.167969 45.953125 67.25 C 45.789062 67.398438 45.605469 67.515625 45.421875 67.648438 C 45.324219 67.449219 45.125 67.25 45.125 67.050781 C 45.125 66.441406 45.324219 65.878906 45.707031 65.367188 C 46.515625 64.292969 47.527344 63.78125 48.871094 63.796875 C 49.597656 63.8125 50.179688 63.484375 50.707031 62.921875 C 52.28125 61.1875 53.921875 59.5 55.527344 57.785156 C 55.644531 57.667969 55.777344 57.503906 55.808594 57.355469 C 56.175781 55.4375 56.539062 53.503906 56.902344 51.589844 C 56.917969 51.472656 56.917969 51.375 56.9375 51.257812 C 56.4375 51.421875 55.992188 51.621094 55.511719 51.753906 C 54.648438 51.96875 53.804688 51.871094 53.011719 51.523438 C 52.730469 51.390625 52.53125 51.421875 52.363281 51.6875 C 52.363281 51.703125 52.347656 51.71875 52.332031 51.71875 C 52.015625 51.953125 51.683594 52.382812 51.402344 52.347656 C 50.742188 52.28125 50.210938 51.835938 49.828125 51.257812 C 49.765625 51.175781 49.8125 50.945312 49.894531 50.828125 C 50.09375 50.546875 50.34375 50.265625 50.59375 50.035156 C 50.839844 49.804688 50.855469 49.589844 50.640625 49.339844 C 50.460938 49.125 50.292969 48.878906 50.128906 48.664062 C 50.078125 48.664062 50.046875 48.664062 50.011719 48.679688 C 49.035156 49.226562 49.035156 49.226562 48.304688 48.367188 C 47.976562 47.96875 47.675781 47.558594 47.363281 47.160156 C 47.046875 46.78125 47.113281 46.46875 47.476562 46.167969 C 47.675781 46.003906 47.875 45.855469 48.074219 45.691406 C 47.195312 44.433594 47.394531 42.882812 48.570312 41.890625 C 49.960938 40.71875 51.535156 40.121094 53.375 40.335938 C 54.121094 40.421875 54.75 40.734375 55.28125 41.277344 C 55.480469 41.476562 55.59375 41.773438 56.023438 41.660156 C 56.472656 41.527344 56.308594 41.179688 56.390625 40.933594 C 56.421875 40.867188 56.40625 40.785156 56.421875 40.652344 C 55.894531 40.570312 55.742188 40.207031 55.710938 39.726562 C 55.695312 39.429688 55.609375 39.132812 55.5625 38.816406 C 55.496094 38.320312 55.710938 38.023438 56.222656 37.941406 C 56.472656 37.890625 56.738281 37.859375 57.050781 37.808594 C 57.035156 37.613281 57.003906 37.398438 57.003906 37.199219 C 56.9375 36.339844 57.351562 35.8125 58.195312 35.695312 C 61.738281 35.183594 65.300781 34.6875 68.847656 34.175781 C 72.605469 33.644531 76.367188 33.117188 80.125 32.589844 C 81.019531 32.457031 81.535156 32.835938 81.652344 33.746094 C 81.851562 35.199219 82.066406 36.667969 82.28125 38.125 C 82.394531 38.933594 82.015625 39.460938 81.203125 39.578125 C 79.398438 39.84375 77.59375 40.089844 75.769531 40.355469 C 76.351562 40.585938 76.914062 40.800781 77.507812 41.03125 C 79.515625 40.121094 81.566406 40.207031 83.671875 41 C 85.144531 41.542969 86.6875 41.890625 88.210938 42.285156 C 90.429688 42.863281 92.667969 43.410156 94.917969 43.972656 C 97.371094 40.765625 100.800781 38.71875 104.0625 36.472656 C 104.710938 36.027344 105.339844 35.546875 105.902344 35 C 106.464844 34.457031 106.648438 33.878906 106.035156 33.183594 C 105.605469 32.6875 105.785156 32.078125 106.398438 31.796875 C 106.796875 31.613281 107.242188 31.5 107.675781 31.367188 C 109.148438 30.902344 110.621094 30.441406 112.082031 29.980469 C 112.910156 29.714844 113.488281 29.136719 113.96875 28.457031 C 114.398438 27.847656 114.730469 27.152344 115.113281 26.507812 C 115.195312 26.378906 115.308594 26.195312 115.441406 26.164062 C 117.183594 25.75 118.804688 25.054688 120.496094 24.148438 C 120.496094 24.492188 120.59375 24.792969 120.496094 25.007812 C 120.296875 25.46875 120.03125 25.929688 119.714844 26.3125 C 118.375 27.914062 116.851562 29.335938 115.027344 30.34375 C 112.179688 31.929688 109.828125 34.027344 107.773438 36.519531 C 106.234375 38.386719 104.59375 40.1875 102.96875 42.070312 C 103.085938 42.105469 103.152344 42.121094 103.21875 42.121094 C 105.339844 42.121094 107.476562 42.136719 109.59375 42.136719 C 109.894531 42.136719 110.207031 42.136719 110.507812 42.121094 C 111.152344 42.070312 111.5 41.792969 111.699219 41.179688 C 112.148438 39.792969 112.5625 39.609375 113.886719 40.222656 C 114.566406 40.519531 115.226562 40.851562 115.875 41.195312 C 117.992188 42.386719 120.246094 42.632812 122.597656 42.203125 C 122.730469 42.1875 122.898438 42.15625 123.011719 42.1875 C 124.488281 42.683594 125.960938 43.195312 127.503906 43.722656 C 126.972656 44.269531 126.34375 44.433594 125.695312 44.515625 C 124.007812 44.75 122.351562 44.484375 120.710938 44.171875 C 119.402344 43.921875 118.109375 43.574219 116.785156 43.378906 C 114.78125 43.078125 112.84375 43.542969 110.953125 44.1875 C 107.972656 45.210938 105.023438 46.316406 102.042969 47.34375 C 99.640625 48.167969 97.222656 49.027344 94.6875 49.257812 C 92.800781 49.425781 90.894531 49.441406 88.988281 49.375 C 85.890625 49.277344 82.808594 49.078125 79.730469 48.910156 C 79.664062 48.910156 79.597656 48.910156 79.464844 48.910156 C 79.546875 49.257812 79.628906 49.574219 79.710938 49.886719 C 80.242188 51.835938 79.5625 53.175781 77.660156 53.867188 C 77.226562 54.035156 76.746094 54.082031 76.316406 54.25 C 76.035156 54.347656 75.753906 54.511719 75.523438 54.695312 C 75.421875 54.761719 75.371094 55.007812 75.421875 55.125 C 76.003906 56.695312 76.332031 58.328125 76.464844 59.996094 C 76.484375 60.097656 76.5 60.230469 76.566406 60.296875 C 77.3125 61.023438 78.054688 61.75 78.785156 62.476562 C 78.917969 62.609375 78.96875 62.839844 79.066406 63.019531 C 78.867188 63.054688 78.636719 63.136719 78.453125 63.085938 C 78.171875 63.003906 77.90625 62.839844 77.558594 62.65625 C 77.59375 62.855469 77.558594 63.070312 77.660156 63.167969 C 78.121094 63.699219 78.554688 64.261719 79.28125 64.457031 C 79.398438 64.492188 79.515625 64.476562 79.613281 64.539062 C 79.796875 64.65625 79.960938 64.820312 80.144531 64.953125 C 79.945312 65.101562 79.761719 65.351562 79.546875 65.398438 C 78.902344 65.515625 78.304688 65.382812 77.691406 65.070312 C 76.648438 64.507812 76.085938 63.714844 75.703125 62.589844 C 75.257812 61.253906 74.496094 60.015625 73.847656 58.742188 C 73.335938 57.75 72.722656 56.792969 72.257812 55.769531 C 71.910156 55.023438 71.414062 54.480469 70.667969 54.132812 C 70.222656 54.710938 69.988281 55.933594 70.15625 56.808594 C 70.949219 56.710938 70.964844 56.726562 71.230469 57.503906 C 71.347656 57.882812 71.480469 58.261719 71.597656 58.644531 C 71.695312 58.972656 71.613281 59.1875 71.296875 59.351562 C 71.03125 59.484375 70.882812 59.699219 70.484375 59.652344 C 70.054688 59.601562 69.839844 59.484375 69.722656 59.089844 C 69.609375 58.691406 69.492188 58.296875 69.34375 57.898438 C 69.175781 57.453125 69.242188 57.105469 69.789062 56.941406 C 69.277344 56 68.695312 55.125 67.769531 54.644531 C 65.601562 53.554688 63.363281 52.546875 61.128906 51.472656 C 61.09375 51.753906 61.042969 51.917969 60.996094 52.101562 Z M 70.136719 53.503906 C 68.085938 52.992188 66.03125 52.496094 63.960938 51.984375 C 63.941406 52.035156 63.925781 52.085938 63.910156 52.148438 C 64.523438 52.480469 65.152344 52.8125 65.765625 53.125 C 67.207031 53.851562 68.730469 54.445312 69.625 55.917969 C 69.808594 55.105469 69.972656 54.347656 70.136719 53.503906 Z M 57.101562 48.910156 C 55.710938 49.554688 54.203125 49.9375 52.960938 50.992188 C 54.121094 51.539062 55.445312 51.488281 56.503906 50.894531 C 57.035156 50.5625 57.351562 49.554688 57.101562 48.910156 Z M 59.089844 42.832031 C 58.425781 42.535156 57.832031 42.253906 57.234375 41.988281 C 57.183594 42.039062 57.136719 42.089844 57.085938 42.136719 C 57.285156 42.632812 57.484375 43.128906 57.714844 43.660156 C 58.226562 43.34375 58.640625 43.097656 59.089844 42.832031 Z M 62.152344 53.769531 C 62.402344 54.015625 62.566406 54.296875 62.816406 54.398438 C 62.964844 54.464844 63.230469 54.28125 63.429688 54.183594 C 63.460938 54.164062 63.429688 53.886719 63.363281 53.835938 C 63.03125 53.652344 62.667969 53.519531 62.152344 53.769531 Z M 57.433594 40.503906 C 57.382812 40.503906 57.332031 40.484375 57.300781 40.484375 C 57.21875 40.765625 57.152344 41.03125 57.050781 41.378906 C 57.265625 41.363281 57.417969 41.363281 57.582031 41.34375 C 57.515625 41.015625 57.464844 40.765625 57.433594 40.503906 Z M 57.433594 40.503906 " fill-opacity="1" fill-rule="nonzero"/></g></svg>