<svg xmlns="http://www.w3.org/2000/svg" xmlns:xlink="http://www.w3.org/1999/xlink" width="300" zoomAndPan="magnify" viewBox="0 0 224.87999 225" height="300" preserveAspectRatio="xMidYMid meet" version="1.0"><defs><clipPath id="1cdd71a9cc"><path d="M 0 0.0585938 L 224.761719 0.0585938 L 224.761719 224.9375 L 0 224.9375 Z M 0 0.0585938 " clip-rule="nonzero"/></clipPath><clipPath id="11ffd35e80"><path d="M 32.902344 32.964844 L 192 32.964844 L 192 192 L 32.902344 192 Z M 32.902344 32.964844 " clip-rule="nonzero"/></clipPath><clipPath id="a28915907d"><path d="M 112.441406 192.035156 C 91.203125 192.035156 71.210938 183.769531 56.203125 168.734375 C 41.167969 153.730469 32.902344 133.734375 32.902344 112.5 C 32.902344 91.265625 41.167969 71.269531 56.203125 56.265625 C 71.210938 41.230469 91.203125 32.964844 112.441406 32.964844 C 133.675781 32.964844 153.671875 41.230469 168.675781 56.265625 C 183.710938 71.300781 191.976562 91.265625 191.976562 112.5 C 191.976562 133.734375 183.710938 153.730469 168.675781 168.734375 C 153.671875 183.769531 133.675781 192.035156 112.441406 192.035156 M 112.441406 37.730469 C 92.476562 37.730469 73.6875 45.519531 59.574219 59.632812 C 45.460938 73.75 37.671875 92.535156 37.671875 112.5 C 37.671875 132.464844 45.460938 151.25 59.574219 165.367188 C 73.6875 179.480469 92.476562 187.269531 112.441406 187.269531 C 132.402344 187.269531 151.191406 179.480469 165.304688 165.367188 C 179.417969 151.25 187.207031 132.464844 187.207031 112.5 C 187.207031 92.535156 179.417969 73.75 165.304688 59.632812 C 151.191406 45.519531 132.402344 37.730469 112.441406 37.730469 " clip-rule="nonzero"/></clipPath><clipPath id="7a5324e95f"><path d="M 32.902344 32.964844 L 192 32.964844 L 192 192 L 32.902344 192 Z M 32.902344 32.964844 " clip-rule="nonzero"/></clipPath><clipPath id="dbb274a8f5"><path d="M 112.441406 32.964844 C 68.511719 32.964844 32.902344 68.574219 32.902344 112.5 C 32.902344 156.425781 68.511719 192.035156 112.441406 192.035156 C 156.367188 192.035156 191.976562 156.425781 191.976562 112.5 C 191.976562 68.574219 156.367188 32.964844 112.441406 32.964844 " clip-rule="nonzero"/></clipPath><clipPath id="d072039eab"><path d="M 100 57.164062 L 124 57.164062 L 124 81 L 100 81 Z M 100 57.164062 " clip-rule="nonzero"/></clipPath><clipPath id="f3625b3bda"><path d="M 52.371094 94 L 91 94 L 91 163 L 52.371094 163 Z M 52.371094 94 " clip-rule="nonzero"/></clipPath></defs><g clip-path="url(#1cdd71a9cc)"><path fill="#ffffff" d="M 0 0.0585938 L 224.878906 0.0585938 L 224.878906 232.4375 L 0 232.4375 Z M 0 0.0585938 " fill-opacity="1" fill-rule="nonzero"/><path fill="#ffffff" d="M 0 0.0585938 L 224.878906 0.0585938 L 224.878906 224.941406 L 0 224.941406 Z M 0 0.0585938 " fill-opacity="1" fill-rule="nonzero"/><path fill="#f5d2aa" d="M 0 0.0585938 L 224.878906 0.0585938 L 224.878906 224.941406 L 0 224.941406 Z M 0 0.0585938 " fill-opacity="1" fill-rule="nonzero"/></g><g clip-path="url(#11ffd35e80)"><g clip-path="url(#a28915907d)"><path fill="#2f4c72" d="M 32.902344 32.964844 L 191.847656 32.964844 L 191.847656 191.910156 L 32.902344 191.910156 Z M 32.902344 32.964844 " fill-opacity="1" fill-rule="nonzero"/></g></g><g clip-path="url(#7a5324e95f)"><g clip-path="url(#dbb274a8f5)"><path fill="#2f4c72" d="M 32.902344 32.964844 L 191.691406 32.964844 L 191.691406 191.75 L 32.902344 191.75 Z M 32.902344 32.964844 " fill-opacity="1" fill-rule="nonzero"/></g></g><g clip-path="url(#d072039eab)"><path fill="#f5d2aa" d="M 111.972656 80.628906 C 118.417969 80.628906 123.65625 75.367188 123.65625 68.894531 C 123.65625 62.425781 118.414062 57.164062 111.96875 57.164062 C 105.527344 57.164062 100.285156 62.425781 100.285156 68.894531 C 100.285156 75.367188 105.527344 80.628906 111.96875 80.628906 Z M 111.972656 59.863281 C 116.933594 59.863281 120.96875 63.914062 120.96875 68.894531 C 120.96875 73.875 116.933594 77.929688 111.972656 77.929688 C 107.011719 77.929688 102.976562 73.875 102.976562 68.894531 C 102.976562 63.914062 107.011719 59.863281 111.96875 59.863281 Z M 111.972656 59.863281 " fill-opacity="1" fill-rule="nonzero"/></g><path fill="#f5d2aa" d="M 80.0625 102.734375 C 79.894531 104.742188 80.515625 106.691406 81.808594 108.230469 C 82.34375 108.863281 82.96875 109.394531 83.660156 109.8125 L 93.570312 115.828125 C 94.921875 116.644531 96.503906 116.890625 98.035156 116.503906 C 98.863281 116.300781 99.617188 115.929688 100.265625 115.417969 L 100.386719 116.773438 L 90.714844 157.5625 C 90.226562 159.621094 90.566406 161.746094 91.671875 163.546875 C 92.773438 165.347656 94.511719 166.609375 96.5625 167.101562 C 97.171875 167.25 97.785156 167.320312 98.390625 167.320312 C 101.957031 167.316406 105.203125 164.863281 106.0625 161.230469 L 111.972656 136.320312 L 117.878906 161.230469 C 118.886719 165.480469 123.160156 168.105469 127.382812 167.101562 C 129.429688 166.609375 131.167969 165.347656 132.269531 163.546875 C 133.378906 161.746094 133.714844 159.621094 133.226562 157.5625 L 123.554688 116.773438 L 123.675781 115.414062 C 125.550781 116.886719 128.214844 117.132812 130.371094 115.824219 L 140.28125 109.816406 C 141.996094 108.773438 143.203125 107.125 143.6875 105.171875 C 144.167969 103.21875 143.863281 101.195312 142.824219 99.472656 C 142.402344 98.765625 141.867188 98.140625 141.242188 97.609375 L 128.453125 86.761719 C 125.28125 84.070312 121.246094 82.585938 117.097656 82.585938 L 106.84375 82.585938 C 102.695312 82.585938 98.660156 84.070312 95.488281 86.761719 L 82.707031 97.613281 C 81.175781 98.910156 80.234375 100.730469 80.066406 102.734375 Z M 84.433594 99.675781 L 97.222656 88.824219 C 99.914062 86.542969 103.332031 85.289062 106.847656 85.289062 L 117.097656 85.289062 C 120.613281 85.289062 124.03125 86.542969 126.722656 88.824219 L 139.511719 99.675781 C 139.910156 100.015625 140.25 100.417969 140.523438 100.867188 C 141.1875 101.972656 141.382812 103.273438 141.074219 104.523438 C 140.765625 105.777344 139.992188 106.835938 138.890625 107.503906 L 128.984375 113.511719 C 127.464844 114.433594 125.488281 113.941406 124.574219 112.421875 C 123.664062 110.902344 124.152344 108.917969 125.664062 108 L 132.0625 104.121094 C 132.433594 103.898438 132.671875 103.507812 132.707031 103.074219 C 132.742188 102.636719 132.5625 102.214844 132.234375 101.933594 L 124.894531 95.707031 C 124.507812 95.382812 123.972656 95.296875 123.515625 95.492188 C 123.050781 95.679688 122.730469 96.117188 122.6875 96.617188 L 120.855469 116.746094 C 120.84375 116.894531 120.851562 117.039062 120.886719 117.183594 L 130.613281 158.1875 C 131.277344 160.988281 129.546875 163.808594 126.757812 164.476562 C 123.992188 165.148438 121.164062 163.410156 120.496094 160.609375 L 113.28125 130.179688 C 112.992188 128.964844 110.953125 128.964844 110.664062 130.179688 L 103.433594 160.605469 C 102.765625 163.40625 99.960938 165.140625 97.171875 164.472656 C 94.382812 163.804688 92.652344 160.984375 93.320312 158.1875 L 103.042969 117.179688 C 103.078125 117.039062 103.089844 116.890625 103.074219 116.746094 L 101.242188 96.613281 C 101.195312 96.109375 100.878906 95.675781 100.414062 95.484375 C 100.246094 95.417969 100.074219 95.382812 99.902344 95.382812 C 99.589844 95.382812 99.28125 95.492188 99.035156 95.703125 L 91.699219 101.929688 C 91.367188 102.210938 91.191406 102.632812 91.226562 103.066406 C 91.257812 103.5 91.5 103.890625 91.867188 104.117188 L 98.265625 107.996094 C 99.78125 108.914062 100.269531 110.898438 99.355469 112.417969 C 98.910156 113.152344 98.207031 113.671875 97.378906 113.878906 C 96.554688 114.089844 95.6875 113.957031 94.949219 113.507812 L 85.039062 107.496094 C 84.59375 107.226562 84.191406 106.886719 83.851562 106.480469 C 83.019531 105.492188 82.625 104.242188 82.730469 102.957031 C 82.839844 101.671875 83.4375 100.503906 84.421875 99.667969 Z M 124.582031 105.503906 L 125.128906 99.445312 L 129.066406 102.78125 L 124.578125 105.503906 Z M 99.363281 105.5 L 94.878906 102.78125 L 98.8125 99.445312 Z M 99.363281 105.5 " fill-opacity="1" fill-rule="nonzero"/><path fill="#f5d2aa" d="M 78.605469 93.449219 C 83.910156 93.449219 88.222656 89.117188 88.222656 83.792969 C 88.222656 78.46875 83.910156 74.140625 78.605469 74.140625 C 73.300781 74.140625 68.988281 78.46875 68.988281 83.792969 C 68.988281 89.117188 73.300781 93.449219 78.605469 93.449219 Z M 78.605469 76.839844 C 82.425781 76.839844 85.535156 79.960938 85.535156 83.792969 C 85.535156 87.628906 82.425781 90.75 78.605469 90.75 C 74.785156 90.75 71.675781 87.628906 71.675781 83.792969 C 71.675781 79.960938 74.785156 76.839844 78.605469 76.839844 Z M 78.605469 76.839844 " fill-opacity="1" fill-rule="nonzero"/><g clip-path="url(#f3625b3bda)"><path fill="#f5d2aa" d="M 55.816406 116.761719 L 63.746094 121.570312 C 64.886719 122.261719 66.226562 122.464844 67.519531 122.144531 C 68.058594 122.011719 68.5625 121.792969 69.015625 121.5 L 69.066406 122.074219 L 61.335938 154.667969 C 60.496094 158.207031 62.683594 161.777344 66.214844 162.621094 C 66.726562 162.746094 67.234375 162.804688 67.738281 162.804688 C 70.714844 162.804688 73.417969 160.757812 74.140625 157.726562 L 78.605469 138.898438 L 83.070312 157.722656 C 83.765625 160.664062 86.351562 162.75 89.363281 162.800781 L 89.382812 162.800781 C 90.117188 162.800781 90.714844 162.210938 90.730469 161.472656 C 90.742188 160.726562 90.148438 160.113281 89.40625 160.101562 C 87.625 160.070312 86.097656 158.839844 85.6875 157.101562 L 79.914062 132.757812 C 79.625 131.542969 77.585938 131.542969 77.296875 132.757812 L 71.523438 157.101562 C 71.027344 159.199219 68.894531 160.492188 66.839844 159.996094 C 64.75 159.496094 63.457031 157.386719 63.953125 155.292969 L 71.734375 122.484375 C 71.769531 122.34375 71.78125 122.195312 71.765625 122.050781 L 71.300781 116.949219 C 71.296875 116.875 71.289062 116.800781 71.28125 116.722656 L 70.300781 105.949219 C 70.257812 105.445312 69.933594 105.011719 69.46875 104.820312 C 69.011719 104.632812 68.476562 104.714844 68.09375 105.039062 L 62.222656 110.019531 C 61.890625 110.300781 61.714844 110.722656 61.75 111.15625 C 61.785156 111.589844 62.023438 111.980469 62.394531 112.207031 L 67.511719 115.308594 C 68.035156 115.628906 68.40625 116.132812 68.554688 116.730469 C 68.578125 116.828125 68.59375 116.921875 68.605469 117.019531 L 68.617188 117.136719 C 68.648438 117.601562 68.535156 118.066406 68.289062 118.476562 C 67.972656 119.003906 67.472656 119.375 66.875 119.523438 C 66.28125 119.671875 65.664062 119.578125 65.136719 119.257812 L 57.207031 114.445312 C 56.875 114.242188 56.578125 113.988281 56.324219 113.6875 C 55.707031 112.953125 55.410156 112.023438 55.492188 111.066406 C 55.570312 110.109375 56.015625 109.238281 56.746094 108.621094 L 66.980469 99.941406 C 69.082031 98.15625 71.753906 97.175781 74.503906 97.175781 L 82.714844 97.175781 C 83.460938 97.175781 84.0625 96.570312 84.0625 95.824219 C 84.0625 95.078125 83.460938 94.476562 82.714844 94.476562 L 74.503906 94.476562 C 71.117188 94.476562 67.828125 95.683594 65.246094 97.878906 L 55.011719 106.558594 C 53.730469 107.644531 52.949219 109.164062 52.808594 110.839844 C 52.667969 112.515625 53.1875 114.148438 54.269531 115.433594 C 54.714844 115.960938 55.234375 116.40625 55.816406 116.757812 Z M 65.390625 110.867188 L 67.855469 108.773438 L 68.203125 112.574219 Z M 65.390625 110.867188 " fill-opacity="1" fill-rule="nonzero"/></g><path fill="#f5d2aa" d="M 87.671875 112.40625 C 86.949219 112.335938 86.277344 112.882812 86.207031 113.628906 L 85.441406 122.050781 C 85.425781 122.195312 85.4375 122.34375 85.472656 122.484375 L 90.945312 145.558594 C 91.09375 146.179688 91.644531 146.597656 92.253906 146.597656 C 92.359375 146.597656 92.464844 146.585938 92.566406 146.5625 C 93.289062 146.386719 93.738281 145.660156 93.5625 144.933594 L 88.140625 122.074219 L 88.886719 113.871094 C 88.957031 113.128906 88.410156 112.472656 87.671875 112.402344 Z M 87.671875 112.40625 " fill-opacity="1" fill-rule="nonzero"/><path fill="#f5d2aa" d="M 145.34375 93.449219 C 150.648438 93.449219 154.960938 89.117188 154.960938 83.792969 C 154.960938 78.46875 150.648438 74.136719 145.34375 74.136719 C 140.039062 74.136719 135.722656 78.46875 135.722656 83.792969 C 135.722656 89.117188 140.035156 93.449219 145.339844 93.449219 Z M 145.34375 76.839844 C 149.164062 76.839844 152.269531 79.960938 152.269531 83.792969 C 152.269531 87.628906 149.164062 90.75 145.34375 90.75 C 141.523438 90.75 138.414062 87.628906 138.414062 83.792969 C 138.40625 79.957031 141.523438 76.839844 145.339844 76.839844 Z M 145.34375 76.839844 " fill-opacity="1" fill-rule="nonzero"/><path fill="#f5d2aa" d="M 168.929688 106.558594 L 158.699219 97.878906 C 156.113281 95.6875 152.824219 94.476562 149.4375 94.476562 L 141.226562 94.476562 C 140.480469 94.476562 139.878906 95.082031 139.878906 95.828125 C 139.878906 96.574219 140.480469 97.179688 141.226562 97.179688 L 149.4375 97.179688 C 152.1875 97.179688 154.859375 98.160156 156.960938 99.941406 L 167.191406 108.625 C 167.492188 108.875 167.746094 109.175781 167.949219 109.511719 C 168.96875 111.210938 168.425781 113.421875 166.730469 114.449219 L 158.804688 119.257812 C 158.28125 119.578125 157.667969 119.671875 157.066406 119.523438 C 156.472656 119.375 155.96875 119.003906 155.652344 118.476562 C 155.40625 118.066406 155.292969 117.601562 155.324219 117.132812 L 155.335938 117.019531 C 155.347656 116.921875 155.363281 116.824219 155.386719 116.730469 C 155.535156 116.132812 155.90625 115.628906 156.429688 115.308594 L 161.546875 112.203125 C 161.917969 111.980469 162.15625 111.589844 162.191406 111.15625 C 162.222656 110.722656 162.046875 110.300781 161.71875 110.019531 L 155.847656 105.039062 C 155.464844 104.710938 154.933594 104.632812 154.472656 104.820312 C 154.007812 105.011719 153.6875 105.445312 153.640625 105.945312 L 152.660156 116.722656 C 152.652344 116.796875 152.644531 116.875 152.640625 116.953125 L 152.175781 122.050781 C 152.164062 122.195312 152.171875 122.34375 152.207031 122.484375 L 159.984375 155.289062 C 160.480469 157.386719 159.191406 159.496094 157.105469 159.996094 C 155.035156 160.5 152.914062 159.195312 152.417969 157.101562 L 146.644531 132.757812 C 146.355469 131.542969 144.316406 131.542969 144.027344 132.757812 L 138.253906 157.101562 C 137.839844 158.835938 136.3125 160.070312 134.535156 160.101562 C 133.789062 160.113281 133.195312 160.726562 133.210938 161.472656 C 133.222656 162.210938 133.820312 162.800781 134.554688 162.800781 L 134.574219 162.800781 C 137.585938 162.75 140.175781 160.664062 140.871094 157.726562 L 145.335938 138.898438 L 149.804688 157.726562 C 150.523438 160.757812 153.226562 162.800781 156.207031 162.800781 C 156.707031 162.800781 157.21875 162.746094 157.730469 162.621094 C 161.257812 161.777344 163.441406 158.207031 162.601562 154.664062 L 154.875 122.074219 L 154.925781 121.503906 C 155.378906 121.792969 155.886719 122.011719 156.421875 122.144531 C 157.714844 122.460938 159.054688 122.257812 160.195312 121.570312 L 168.125 116.761719 C 171.082031 114.964844 172.039062 111.085938 170.25 108.113281 C 169.878906 107.53125 169.4375 107.007812 168.910156 106.566406 Z M 156.089844 108.773438 L 158.554688 110.867188 L 155.746094 112.570312 Z M 156.089844 108.773438 " fill-opacity="1" fill-rule="nonzero"/><path fill="#f5d2aa" d="M 131.375 146.558594 C 131.480469 146.582031 131.582031 146.59375 131.6875 146.59375 C 132.296875 146.59375 132.847656 146.175781 132.996094 145.554688 L 138.46875 122.480469 C 138.503906 122.339844 138.515625 122.191406 138.5 122.046875 L 137.734375 113.625 C 137.667969 112.878906 136.996094 112.328125 136.269531 112.402344 C 135.53125 112.46875 134.984375 113.125 135.054688 113.867188 L 135.800781 122.070312 L 130.378906 144.929688 C 130.210938 145.667969 130.652344 146.394531 131.375 146.566406 Z M 131.375 146.558594 " fill-opacity="1" fill-rule="nonzero"/></svg>