<svg xmlns="http://www.w3.org/2000/svg" xmlns:xlink="http://www.w3.org/1999/xlink" width="230" zoomAndPan="magnify" viewBox="0 0 172.5 113.999999" height="152" preserveAspectRatio="xMidYMid meet" version="1.0"><defs><g/><clipPath id="15accd3296"><path d="M 79 24.898438 L 93 24.898438 L 93 38 L 79 38 Z M 79 24.898438 " clip-rule="nonzero"/></clipPath><clipPath id="3b2407917e"><path d="M 54.5 44 L 75 44 L 75 81 L 54.5 81 Z M 54.5 44 " clip-rule="nonzero"/></clipPath></defs><g fill="#2f4c72" fill-opacity="1"><g transform="translate(66.437559, 15.885882)"><g><path d="M 5.28125 -8.0625 L 5.28125 0 L 3.265625 0 L 3.265625 -8.0625 L 0.15625 -8.0625 L 0.15625 -9.625 L 8.390625 -9.625 L 8.390625 -8.0625 Z M 5.28125 -8.0625 "/></g></g></g><g fill="#2f4c72" fill-opacity="1"><g transform="translate(74.983024, 15.885882)"><g><path d="M 0.9375 0 L 0.9375 -9.625 L 8.5 -9.625 L 8.5 -8.0625 L 2.953125 -8.0625 L 2.953125 -5.640625 L 8.078125 -5.640625 L 8.078125 -4.09375 L 2.953125 -4.09375 L 2.953125 -1.5625 L 8.78125 -1.5625 L 8.78125 0 Z M 0.9375 0 "/></g></g></g><g fill="#2f4c72" fill-opacity="1"><g transform="translate(84.314042, 15.885882)"><g><path d="M 7.734375 0 L 6.890625 -2.453125 L 3.21875 -2.453125 L 2.359375 0 L 0.34375 0 L 3.859375 -9.625 L 6.234375 -9.625 L 9.734375 0 Z M 5.046875 -8.140625 L 5 -7.984375 C 4.957031 -7.828125 4.90625 -7.640625 4.84375 -7.421875 C 4.78125 -7.210938 4.390625 -6.0625 3.671875 -3.96875 L 6.4375 -3.96875 L 5.484375 -6.734375 L 5.1875 -7.671875 Z M 5.046875 -8.140625 "/></g></g></g><g fill="#2f4c72" fill-opacity="1"><g transform="translate(94.416954, 15.885882)"><g><path d="M 8.921875 0 L 8.921875 -5.828125 C 8.921875 -5.960938 8.921875 -6.09375 8.921875 -6.21875 C 8.929688 -6.351562 8.957031 -6.921875 9 -7.921875 C 8.675781 -6.703125 8.4375 -5.847656 8.28125 -5.359375 L 6.546875 0 L 5.109375 0 L 3.375 -5.359375 L 2.640625 -7.921875 C 2.691406 -6.867188 2.71875 -6.171875 2.71875 -5.828125 L 2.71875 0 L 0.9375 0 L 0.9375 -9.625 L 3.625 -9.625 L 5.359375 -4.234375 L 5.5 -3.71875 L 5.828125 -2.4375 L 6.265625 -3.96875 L 8.03125 -9.625 L 10.71875 -9.625 L 10.71875 0 Z M 8.921875 0 "/></g></g></g><g clip-path="url(#15accd3296)"><path fill="#2f4c72" d="M 86.179688 37.269531 C 89.605469 37.269531 92.390625 34.496094 92.390625 31.082031 C 92.390625 27.671875 89.601562 24.898438 86.175781 24.898438 C 82.75 24.898438 79.964844 27.671875 79.964844 31.082031 C 79.964844 34.496094 82.75 37.269531 86.175781 37.269531 Z M 86.179688 26.320312 C 88.816406 26.320312 90.960938 28.457031 90.960938 31.082031 C 90.960938 33.710938 88.816406 35.847656 86.179688 35.847656 C 83.542969 35.847656 81.394531 33.710938 81.394531 31.082031 C 81.394531 28.457031 83.539062 26.320312 86.175781 26.320312 Z M 86.179688 26.320312 " fill-opacity="1" fill-rule="nonzero"/></g><path fill="#2f4c72" d="M 69.214844 48.925781 C 69.125 49.984375 69.457031 51.015625 70.144531 51.824219 C 70.429688 52.15625 70.761719 52.441406 71.128906 52.660156 L 76.398438 55.832031 C 77.113281 56.261719 77.953125 56.390625 78.769531 56.1875 C 79.210938 56.082031 79.609375 55.882812 79.953125 55.613281 L 80.019531 56.328125 L 74.878906 77.839844 C 74.617188 78.921875 74.800781 80.042969 75.386719 80.996094 C 75.972656 81.945312 76.894531 82.609375 77.984375 82.867188 C 78.3125 82.945312 78.636719 82.984375 78.957031 82.984375 C 80.855469 82.980469 82.578125 81.6875 83.035156 79.773438 L 86.175781 66.636719 L 89.316406 79.773438 C 89.851562 82.015625 92.125 83.398438 94.371094 82.867188 C 95.457031 82.609375 96.382812 81.945312 96.96875 80.996094 C 97.554688 80.042969 97.734375 78.921875 97.476562 77.839844 L 92.335938 56.328125 L 92.398438 55.613281 C 93.394531 56.390625 94.8125 56.519531 95.957031 55.828125 L 101.226562 52.660156 C 102.136719 52.113281 102.78125 51.242188 103.035156 50.210938 C 103.292969 49.183594 103.128906 48.113281 102.578125 47.207031 C 102.351562 46.835938 102.070312 46.503906 101.738281 46.226562 L 94.9375 40.503906 C 93.25 39.085938 91.109375 38.304688 88.902344 38.304688 L 83.453125 38.304688 C 81.246094 38.304688 79.101562 39.085938 77.414062 40.503906 L 70.621094 46.226562 C 69.808594 46.910156 69.308594 47.871094 69.21875 48.925781 Z M 71.539062 47.3125 L 78.339844 41.59375 C 79.769531 40.390625 81.585938 39.726562 83.453125 39.726562 L 88.902344 39.726562 C 90.769531 39.726562 92.589844 40.390625 94.019531 41.59375 L 100.816406 47.3125 L 100.816406 47.316406 C 101.03125 47.492188 101.210938 47.707031 101.355469 47.941406 C 101.707031 48.523438 101.8125 49.210938 101.648438 49.871094 C 101.484375 50.53125 101.070312 51.089844 100.488281 51.441406 L 95.21875 54.609375 C 94.414062 55.097656 93.363281 54.835938 92.878906 54.035156 C 92.394531 53.234375 92.652344 52.1875 93.457031 51.703125 L 96.855469 49.660156 C 97.054688 49.539062 97.179688 49.332031 97.199219 49.105469 C 97.21875 48.875 97.125 48.652344 96.949219 48.503906 L 93.046875 45.222656 C 92.84375 45.050781 92.554688 45.003906 92.316406 45.105469 C 92.066406 45.207031 91.898438 45.4375 91.875 45.699219 L 90.898438 56.316406 C 90.894531 56.394531 90.898438 56.46875 90.917969 56.546875 L 96.085938 78.167969 C 96.441406 79.644531 95.519531 81.132812 94.039062 81.484375 C 92.566406 81.835938 91.0625 80.921875 90.710938 79.445312 L 86.875 63.398438 C 86.71875 62.757812 85.636719 62.757812 85.484375 63.398438 L 81.640625 79.441406 C 81.285156 80.917969 79.792969 81.835938 78.3125 81.480469 C 76.828125 81.128906 75.910156 79.644531 76.261719 78.167969 L 81.433594 56.542969 C 81.449219 56.46875 81.457031 56.390625 81.449219 56.316406 L 80.472656 45.699219 C 80.449219 45.433594 80.28125 45.203125 80.03125 45.105469 C 79.945312 45.070312 79.855469 45.050781 79.761719 45.050781 C 79.597656 45.050781 79.433594 45.109375 79.300781 45.21875 L 75.402344 48.503906 C 75.226562 48.652344 75.132812 48.875 75.148438 49.101562 C 75.167969 49.332031 75.292969 49.535156 75.492188 49.65625 L 78.890625 51.699219 C 79.695312 52.183594 79.957031 53.230469 79.46875 54.03125 C 79.234375 54.421875 78.863281 54.695312 78.421875 54.804688 C 77.984375 54.914062 77.519531 54.84375 77.128906 54.609375 L 71.859375 51.4375 C 71.625 51.296875 71.410156 51.117188 71.230469 50.902344 C 70.789062 50.382812 70.578125 49.722656 70.636719 49.042969 C 70.691406 48.367188 71.011719 47.75 71.53125 47.3125 Z M 92.878906 50.386719 L 93.171875 47.191406 L 95.265625 48.953125 Z M 79.476562 50.386719 L 77.089844 48.953125 L 79.183594 47.191406 Z M 79.476562 50.386719 " fill-opacity="1" fill-rule="nonzero"/><path fill="#2f4c72" d="M 68.441406 44.03125 C 71.261719 44.03125 73.554688 41.746094 73.554688 38.9375 C 73.554688 36.132812 71.261719 33.847656 68.441406 33.847656 C 65.621094 33.847656 63.328125 36.132812 63.328125 38.941406 C 63.328125 41.746094 65.621094 44.03125 68.441406 44.03125 Z M 68.441406 35.273438 C 70.472656 35.273438 72.125 36.917969 72.125 38.941406 C 72.125 40.960938 70.472656 42.605469 68.441406 42.605469 C 66.410156 42.605469 64.757812 40.960938 64.757812 38.941406 C 64.757812 36.917969 66.410156 35.273438 68.441406 35.273438 Z M 68.441406 35.273438 " fill-opacity="1" fill-rule="nonzero"/><g clip-path="url(#3b2407917e)"><path fill="#2f4c72" d="M 56.328125 56.324219 L 60.542969 58.859375 C 61.148438 59.222656 61.859375 59.328125 62.546875 59.164062 C 62.835938 59.09375 63.101562 58.976562 63.34375 58.824219 L 63.371094 59.125 L 59.261719 76.3125 C 58.816406 78.179688 59.976562 80.0625 61.855469 80.507812 C 62.125 80.570312 62.398438 80.601562 62.664062 80.601562 C 64.246094 80.601562 65.683594 79.523438 66.066406 77.925781 L 68.441406 67.996094 L 70.816406 77.921875 C 71.183594 79.472656 72.558594 80.574219 74.160156 80.601562 L 74.171875 80.601562 C 74.558594 80.601562 74.878906 80.289062 74.886719 79.902344 C 74.894531 79.507812 74.578125 79.183594 74.183594 79.175781 C 73.238281 79.160156 72.425781 78.511719 72.207031 77.59375 L 69.136719 64.757812 C 68.984375 64.117188 67.898438 64.117188 67.746094 64.757812 L 64.675781 77.59375 C 64.414062 78.699219 63.28125 79.382812 62.1875 79.121094 C 61.074219 78.859375 60.390625 77.746094 60.652344 76.640625 L 64.789062 59.34375 C 64.808594 59.265625 64.8125 59.1875 64.804688 59.113281 L 64.558594 56.421875 C 64.554688 56.382812 64.554688 56.34375 64.546875 56.304688 L 64.027344 50.621094 C 64.003906 50.355469 63.832031 50.128906 63.585938 50.027344 C 63.34375 49.925781 63.058594 49.96875 62.855469 50.140625 L 59.734375 52.769531 C 59.554688 52.917969 59.464844 53.140625 59.480469 53.367188 C 59.5 53.597656 59.625 53.804688 59.824219 53.921875 L 62.542969 55.558594 C 62.824219 55.726562 63.019531 55.992188 63.097656 56.308594 C 63.109375 56.359375 63.121094 56.410156 63.125 56.460938 L 63.132812 56.519531 C 63.148438 56.765625 63.089844 57.011719 62.957031 57.226562 C 62.789062 57.507812 62.523438 57.703125 62.207031 57.777344 C 61.890625 57.859375 61.5625 57.808594 61.28125 57.640625 L 57.066406 55.101562 C 56.890625 54.996094 56.734375 54.863281 56.597656 54.703125 C 56.269531 54.316406 56.109375 53.824219 56.15625 53.320312 C 56.195312 52.816406 56.433594 52.355469 56.820312 52.03125 L 62.261719 47.453125 C 63.378906 46.511719 64.796875 45.996094 66.261719 45.996094 L 70.625 45.996094 C 71.023438 45.996094 71.339844 45.675781 71.339844 45.285156 C 71.339844 44.890625 71.023438 44.570312 70.625 44.570312 L 66.261719 44.570312 C 64.460938 44.570312 62.710938 45.207031 61.339844 46.367188 L 55.898438 50.941406 C 55.21875 51.515625 54.804688 52.316406 54.730469 53.199219 C 54.65625 54.085938 54.929688 54.945312 55.503906 55.621094 C 55.742188 55.902344 56.019531 56.136719 56.328125 56.320312 Z M 61.417969 53.214844 L 62.726562 52.113281 L 62.910156 54.113281 Z M 61.417969 53.214844 " fill-opacity="1" fill-rule="nonzero"/></g><path fill="#2f4c72" d="M 73.261719 54.027344 C 72.875 53.988281 72.519531 54.277344 72.484375 54.671875 L 72.074219 59.113281 C 72.066406 59.1875 72.074219 59.265625 72.089844 59.34375 L 75 71.507812 C 75.078125 71.835938 75.375 72.054688 75.695312 72.054688 C 75.75 72.054688 75.808594 72.050781 75.863281 72.035156 C 76.246094 71.945312 76.484375 71.5625 76.394531 71.179688 L 73.511719 59.125 L 73.90625 54.800781 C 73.945312 54.40625 73.652344 54.0625 73.261719 54.023438 Z M 73.261719 54.027344 " fill-opacity="1" fill-rule="nonzero"/><path fill="#2f4c72" d="M 103.917969 44.03125 C 106.734375 44.03125 109.027344 41.746094 109.027344 38.9375 C 109.027344 36.132812 106.734375 33.847656 103.917969 33.847656 C 101.097656 33.847656 98.804688 36.132812 98.804688 38.9375 C 98.804688 41.746094 101.09375 44.03125 103.917969 44.03125 Z M 103.917969 35.273438 C 105.945312 35.273438 107.597656 36.917969 107.597656 38.941406 C 107.597656 40.960938 105.945312 42.605469 103.917969 42.605469 C 101.886719 42.605469 100.234375 40.960938 100.234375 38.941406 C 100.230469 36.917969 101.886719 35.273438 103.917969 35.273438 Z M 103.917969 35.273438 " fill-opacity="1" fill-rule="nonzero"/><path fill="#2f4c72" d="M 116.453125 50.945312 L 111.015625 46.367188 C 109.640625 45.210938 107.894531 44.574219 106.09375 44.574219 L 101.726562 44.574219 C 101.332031 44.574219 101.011719 44.890625 101.011719 45.285156 C 101.011719 45.679688 101.332031 45.996094 101.726562 45.996094 L 106.09375 45.996094 C 107.554688 45.996094 108.976562 46.515625 110.09375 47.453125 L 115.53125 52.03125 C 115.691406 52.164062 115.824219 52.324219 115.933594 52.5 C 116.476562 53.394531 116.1875 54.5625 115.285156 55.105469 L 111.070312 57.640625 C 110.792969 57.808594 110.46875 57.859375 110.148438 57.777344 C 109.832031 57.703125 109.566406 57.503906 109.394531 57.226562 C 109.265625 57.011719 109.207031 56.765625 109.222656 56.519531 L 109.230469 56.460938 C 109.234375 56.410156 109.242188 56.359375 109.257812 56.308594 C 109.335938 55.992188 109.53125 55.726562 109.8125 55.558594 L 112.53125 53.921875 C 112.726562 53.800781 112.855469 53.597656 112.871094 53.367188 C 112.890625 53.140625 112.796875 52.914062 112.621094 52.769531 L 109.5 50.140625 C 109.296875 49.96875 109.015625 49.925781 108.769531 50.027344 C 108.523438 50.128906 108.351562 50.355469 108.328125 50.621094 L 107.808594 56.304688 C 107.800781 56.34375 107.796875 56.382812 107.796875 56.421875 L 107.546875 59.113281 C 107.542969 59.1875 107.546875 59.265625 107.566406 59.339844 L 111.699219 76.640625 C 111.964844 77.746094 111.277344 78.859375 110.167969 79.121094 C 109.066406 79.386719 107.941406 78.699219 107.679688 77.59375 L 104.609375 64.757812 C 104.457031 64.117188 103.371094 64.117188 103.21875 64.757812 L 100.148438 77.59375 C 99.929688 78.511719 99.117188 79.160156 98.171875 79.175781 C 97.777344 79.183594 97.460938 79.507812 97.46875 79.902344 C 97.472656 80.289062 97.792969 80.601562 98.183594 80.601562 L 98.195312 80.601562 C 99.792969 80.574219 101.167969 79.472656 101.539062 77.925781 L 103.914062 67.996094 L 106.289062 77.925781 C 106.671875 79.523438 108.105469 80.601562 109.691406 80.601562 C 109.957031 80.601562 110.230469 80.570312 110.5 80.507812 C 112.375 80.0625 113.539062 78.179688 113.089844 76.3125 L 108.984375 59.125 L 109.011719 58.824219 C 109.253906 58.976562 109.519531 59.09375 109.808594 59.164062 C 110.492188 59.328125 111.207031 59.222656 111.8125 58.859375 L 116.027344 56.324219 C 117.597656 55.378906 118.109375 53.332031 117.15625 51.761719 C 116.960938 51.457031 116.722656 51.179688 116.445312 50.949219 Z M 109.628906 52.113281 L 110.941406 53.214844 L 109.445312 54.113281 Z M 109.628906 52.113281 " fill-opacity="1" fill-rule="nonzero"/><path fill="#2f4c72" d="M 96.492188 72.035156 C 96.546875 72.046875 96.601562 72.054688 96.65625 72.054688 C 96.980469 72.054688 97.273438 71.835938 97.351562 71.507812 L 100.261719 59.339844 C 100.28125 59.265625 100.285156 59.1875 100.28125 59.109375 L 99.871094 54.667969 C 99.835938 54.277344 99.480469 53.984375 99.09375 54.023438 C 98.703125 54.058594 98.410156 54.40625 98.449219 54.796875 L 98.84375 59.125 L 95.960938 71.175781 C 95.871094 71.566406 96.109375 71.949219 96.492188 72.039062 Z M 96.492188 72.035156 " fill-opacity="1" fill-rule="nonzero"/></svg>