<svg xmlns="http://www.w3.org/2000/svg" xmlns:xlink="http://www.w3.org/1999/xlink" width="230" zoomAndPan="magnify" viewBox="0 0 172.5 113.999999" height="152" preserveAspectRatio="xMidYMid meet" version="1.0"><defs><g/><clipPath id="407238b877"><path d="M 81 45.761719 L 91 45.761719 L 91 55 L 81 55 Z M 81 45.761719 " clip-rule="nonzero"/></clipPath><clipPath id="e5a784a246"><path d="M 73 55 L 99 55 L 99 88.511719 L 73 88.511719 Z M 73 55 " clip-rule="nonzero"/></clipPath></defs><g fill="#2f4c72" fill-opacity="1"><g transform="translate(66.437559, 36.752379)"><g><path d="M 5.28125 -8.0625 L 5.28125 0 L 3.265625 0 L 3.265625 -8.0625 L 0.15625 -8.0625 L 0.15625 -9.625 L 8.390625 -9.625 L 8.390625 -8.0625 Z M 5.28125 -8.0625 "/></g></g></g><g fill="#2f4c72" fill-opacity="1"><g transform="translate(74.983024, 36.752379)"><g><path d="M 0.9375 0 L 0.9375 -9.625 L 8.5 -9.625 L 8.5 -8.0625 L 2.953125 -8.0625 L 2.953125 -5.640625 L 8.078125 -5.640625 L 8.078125 -4.09375 L 2.953125 -4.09375 L 2.953125 -1.5625 L 8.78125 -1.5625 L 8.78125 0 Z M 0.9375 0 "/></g></g></g><g fill="#2f4c72" fill-opacity="1"><g transform="translate(84.314042, 36.752379)"><g><path d="M 7.734375 0 L 6.890625 -2.453125 L 3.21875 -2.453125 L 2.359375 0 L 0.34375 0 L 3.859375 -9.625 L 6.234375 -9.625 L 9.734375 0 Z M 5.046875 -8.140625 L 5 -7.984375 C 4.957031 -7.828125 4.90625 -7.640625 4.84375 -7.421875 C 4.78125 -7.210938 4.390625 -6.0625 3.671875 -3.96875 L 6.4375 -3.96875 L 5.484375 -6.734375 L 5.1875 -7.671875 Z M 5.046875 -8.140625 "/></g></g></g><g fill="#2f4c72" fill-opacity="1"><g transform="translate(94.416954, 36.752379)"><g><path d="M 8.921875 0 L 8.921875 -5.828125 C 8.921875 -5.960938 8.921875 -6.09375 8.921875 -6.21875 C 8.929688 -6.351562 8.957031 -6.921875 9 -7.921875 C 8.675781 -6.703125 8.4375 -5.847656 8.28125 -5.359375 L 6.546875 0 L 5.109375 0 L 3.375 -5.359375 L 2.640625 -7.921875 C 2.691406 -6.867188 2.71875 -6.171875 2.71875 -5.828125 L 2.71875 0 L 0.9375 0 L 0.9375 -9.625 L 3.625 -9.625 L 5.359375 -4.234375 L 5.5 -3.71875 L 5.828125 -2.4375 L 6.265625 -3.96875 L 8.03125 -9.625 L 10.71875 -9.625 L 10.71875 0 Z M 8.921875 0 "/></g></g></g><g clip-path="url(#407238b877)"><path fill="#2f4c72" d="M 85.988281 54.804688 C 88.484375 54.804688 90.519531 52.777344 90.519531 50.285156 C 90.519531 47.792969 88.484375 45.761719 85.988281 45.761719 C 83.488281 45.761719 81.457031 47.792969 81.457031 50.285156 C 81.457031 52.777344 83.488281 54.804688 85.988281 54.804688 Z M 85.988281 46.804688 C 87.910156 46.804688 89.476562 48.367188 89.476562 50.285156 C 89.476562 52.203125 87.910156 53.765625 85.988281 53.765625 C 84.066406 53.765625 82.5 52.203125 82.5 50.285156 C 82.5 48.367188 84.0625 46.804688 85.988281 46.804688 Z M 85.988281 46.804688 " fill-opacity="1" fill-rule="nonzero"/></g><g clip-path="url(#e5a784a246)"><path fill="#2f4c72" d="M 73.617188 63.324219 C 73.550781 64.097656 73.792969 64.847656 74.292969 65.441406 C 74.5 65.683594 74.742188 65.890625 75.011719 66.050781 L 78.855469 68.367188 C 79.378906 68.683594 79.992188 68.777344 80.585938 68.628906 C 80.90625 68.550781 81.199219 68.40625 81.449219 68.210938 L 81.496094 68.734375 L 77.746094 84.453125 C 77.558594 85.246094 77.6875 86.0625 78.117188 86.757812 C 78.546875 87.453125 79.21875 87.9375 80.011719 88.128906 C 80.25 88.183594 80.488281 88.210938 80.722656 88.210938 C 82.105469 88.210938 83.363281 87.265625 83.695312 85.863281 L 85.988281 76.265625 L 88.277344 85.863281 C 88.667969 87.503906 90.324219 88.515625 91.960938 88.128906 C 92.757812 87.9375 93.429688 87.453125 93.855469 86.757812 C 94.285156 86.0625 94.417969 85.246094 94.226562 84.453125 L 90.476562 68.734375 L 90.527344 68.210938 C 91.253906 68.777344 92.285156 68.871094 93.121094 68.367188 L 96.960938 66.050781 C 97.628906 65.652344 98.097656 65.015625 98.28125 64.261719 C 98.46875 63.511719 98.351562 62.730469 97.949219 62.066406 C 97.785156 61.796875 97.578125 61.554688 97.335938 61.347656 L 92.378906 57.167969 C 91.148438 56.132812 89.582031 55.558594 87.972656 55.558594 L 84 55.558594 C 82.390625 55.558594 80.828125 56.132812 79.597656 57.167969 L 74.640625 61.351562 C 74.046875 61.851562 73.683594 62.550781 73.617188 63.324219 Z M 75.3125 62.144531 L 80.269531 57.964844 C 81.3125 57.085938 82.636719 56.601562 84 56.601562 L 87.976562 56.601562 C 89.335938 56.601562 90.664062 57.085938 91.707031 57.964844 L 96.664062 62.144531 C 96.820312 62.277344 96.949219 62.429688 97.058594 62.605469 C 97.316406 63.03125 97.390625 63.53125 97.269531 64.011719 C 97.152344 64.496094 96.851562 64.90625 96.421875 65.160156 L 92.582031 67.476562 C 91.992188 67.832031 91.226562 67.640625 90.875 67.058594 C 90.519531 66.472656 90.710938 65.707031 91.296875 65.351562 L 93.777344 63.859375 C 93.921875 63.773438 94.011719 63.621094 94.027344 63.453125 C 94.039062 63.285156 93.972656 63.125 93.84375 63.015625 L 90.996094 60.617188 C 90.847656 60.492188 90.640625 60.457031 90.464844 60.53125 C 90.28125 60.605469 90.160156 60.773438 90.140625 60.964844 L 89.429688 68.722656 C 89.425781 68.78125 89.429688 68.835938 89.445312 68.890625 L 93.214844 84.691406 C 93.472656 85.769531 92.800781 86.859375 91.71875 87.117188 C 90.648438 87.375 89.550781 86.703125 89.292969 85.625 L 86.496094 73.898438 C 86.382812 73.429688 85.59375 73.429688 85.480469 73.898438 L 82.675781 85.625 C 82.417969 86.703125 81.332031 87.371094 80.25 87.113281 C 79.167969 86.855469 78.5 85.769531 78.757812 84.691406 L 82.527344 68.890625 C 82.539062 68.835938 82.542969 68.777344 82.539062 68.722656 L 81.828125 60.964844 C 81.808594 60.773438 81.6875 60.605469 81.507812 60.53125 C 81.441406 60.503906 81.375 60.492188 81.308594 60.492188 C 81.1875 60.492188 81.066406 60.535156 80.972656 60.613281 L 78.128906 63.011719 C 78 63.121094 77.929688 63.285156 77.945312 63.453125 C 77.957031 63.621094 78.050781 63.769531 78.195312 63.855469 L 80.675781 65.351562 C 81.261719 65.703125 81.449219 66.46875 81.097656 67.054688 C 80.921875 67.339844 80.652344 67.539062 80.328125 67.617188 C 80.011719 67.699219 79.675781 67.648438 79.390625 67.476562 L 75.546875 65.160156 C 75.371094 65.054688 75.21875 64.921875 75.085938 64.765625 C 74.765625 64.386719 74.609375 63.90625 74.652344 63.410156 C 74.695312 62.914062 74.925781 62.464844 75.304688 62.144531 Z M 90.875 64.390625 L 91.089844 62.054688 L 92.613281 63.34375 Z M 81.101562 64.390625 L 79.359375 63.34375 L 80.886719 62.054688 Z M 81.101562 64.390625 " fill-opacity="1" fill-rule="nonzero"/></g><path fill="#2f4c72" d="M 73.050781 59.746094 C 75.109375 59.746094 76.78125 58.078125 76.78125 56.023438 C 76.78125 53.972656 75.109375 52.304688 73.050781 52.304688 C 70.996094 52.304688 69.324219 53.972656 69.324219 56.027344 C 69.324219 58.078125 70.996094 59.746094 73.050781 59.746094 Z M 73.050781 53.34375 C 74.53125 53.34375 75.738281 54.546875 75.738281 56.027344 C 75.738281 57.503906 74.53125 58.707031 73.050781 58.707031 C 71.570312 58.707031 70.367188 57.503906 70.367188 56.027344 C 70.367188 54.546875 71.570312 53.34375 73.050781 53.34375 Z M 73.050781 53.34375 " fill-opacity="1" fill-rule="nonzero"/><path fill="#2f4c72" d="M 64.21875 68.730469 L 67.292969 70.582031 C 67.734375 70.847656 68.253906 70.925781 68.753906 70.804688 C 68.960938 70.753906 69.15625 70.667969 69.335938 70.554688 L 69.355469 70.777344 L 66.355469 83.335938 C 66.03125 84.699219 66.878906 86.074219 68.246094 86.402344 C 68.445312 86.449219 68.644531 86.472656 68.839844 86.472656 C 69.992188 86.472656 71.042969 85.683594 71.320312 84.515625 L 73.050781 77.257812 L 74.785156 84.511719 C 75.050781 85.644531 76.054688 86.449219 77.222656 86.46875 L 77.230469 86.46875 C 77.515625 86.46875 77.746094 86.242188 77.753906 85.957031 C 77.757812 85.671875 77.527344 85.433594 77.238281 85.429688 C 76.550781 85.417969 75.957031 84.941406 75.796875 84.273438 L 73.558594 74.894531 C 73.445312 74.425781 72.65625 74.425781 72.542969 74.894531 L 70.304688 84.273438 C 70.113281 85.082031 69.289062 85.582031 68.488281 85.390625 C 67.679688 85.195312 67.179688 84.382812 67.371094 83.574219 L 70.386719 70.933594 C 70.402344 70.878906 70.40625 70.824219 70.402344 70.765625 L 70.21875 68.800781 C 70.21875 68.773438 70.214844 68.742188 70.210938 68.714844 L 69.832031 64.5625 C 69.816406 64.367188 69.691406 64.203125 69.511719 64.128906 C 69.332031 64.054688 69.125 64.085938 68.976562 64.210938 L 66.699219 66.128906 C 66.570312 66.238281 66.503906 66.402344 66.515625 66.570312 C 66.53125 66.738281 66.621094 66.886719 66.765625 66.972656 L 68.75 68.167969 C 68.953125 68.292969 69.097656 68.488281 69.15625 68.71875 C 69.164062 68.753906 69.171875 68.792969 69.175781 68.828125 L 69.179688 68.871094 C 69.191406 69.054688 69.148438 69.230469 69.054688 69.390625 C 68.929688 69.59375 68.734375 69.738281 68.503906 69.792969 C 68.273438 69.851562 68.035156 69.816406 67.832031 69.691406 L 64.753906 67.835938 C 64.628906 67.757812 64.511719 67.660156 64.414062 67.542969 C 64.175781 67.261719 64.058594 66.902344 64.089844 66.535156 C 64.121094 66.164062 64.292969 65.832031 64.578125 65.59375 L 68.546875 62.246094 C 69.359375 61.558594 70.394531 61.183594 71.460938 61.183594 L 74.644531 61.183594 C 74.933594 61.183594 75.167969 60.949219 75.167969 60.660156 C 75.167969 60.375 74.933594 60.140625 74.644531 60.140625 L 71.460938 60.140625 C 70.148438 60.140625 68.875 60.605469 67.871094 61.453125 L 63.90625 64.796875 C 63.410156 65.214844 63.105469 65.800781 63.050781 66.445312 C 62.996094 67.09375 63.199219 67.722656 63.617188 68.214844 C 63.789062 68.417969 63.992188 68.589844 64.21875 68.726562 Z M 67.929688 66.457031 L 68.886719 65.652344 L 69.019531 67.113281 Z M 67.929688 66.457031 " fill-opacity="1" fill-rule="nonzero"/><path fill="#2f4c72" d="M 76.566406 67.050781 C 76.285156 67.023438 76.027344 67.234375 76 67.519531 L 75.703125 70.765625 C 75.695312 70.824219 75.699219 70.878906 75.714844 70.933594 L 77.835938 79.828125 C 77.894531 80.066406 78.109375 80.226562 78.34375 80.226562 C 78.382812 80.226562 78.425781 80.222656 78.464844 80.210938 C 78.746094 80.144531 78.917969 79.863281 78.851562 79.585938 L 76.75 70.777344 L 77.039062 67.617188 C 77.066406 67.328125 76.851562 67.074219 76.566406 67.050781 Z M 76.566406 67.050781 " fill-opacity="1" fill-rule="nonzero"/><path fill="#2f4c72" d="M 98.925781 59.746094 C 100.980469 59.746094 102.652344 58.078125 102.652344 56.023438 C 102.652344 53.972656 100.980469 52.304688 98.925781 52.304688 C 96.867188 52.304688 95.195312 53.972656 95.195312 56.023438 C 95.195312 58.078125 96.867188 59.746094 98.925781 59.746094 Z M 98.925781 53.34375 C 100.40625 53.34375 101.609375 54.546875 101.609375 56.027344 C 101.609375 57.503906 100.40625 58.707031 98.925781 58.707031 C 97.445312 58.707031 96.238281 57.503906 96.238281 56.027344 C 96.238281 54.546875 97.445312 53.34375 98.925781 53.34375 Z M 98.925781 53.34375 " fill-opacity="1" fill-rule="nonzero"/><path fill="#2f4c72" d="M 108.070312 64.796875 L 104.101562 61.453125 C 103.101562 60.609375 101.824219 60.140625 100.511719 60.140625 L 97.328125 60.140625 C 97.039062 60.140625 96.808594 60.375 96.808594 60.664062 C 96.808594 60.949219 97.039062 61.183594 97.328125 61.183594 L 100.511719 61.183594 C 101.578125 61.183594 102.613281 61.5625 103.429688 62.25 L 107.394531 65.59375 C 107.511719 65.691406 107.609375 65.804688 107.6875 65.933594 C 108.085938 66.589844 107.875 67.441406 107.21875 67.835938 L 104.144531 69.691406 C 103.941406 69.816406 103.703125 69.851562 103.46875 69.792969 C 103.238281 69.734375 103.042969 69.59375 102.921875 69.390625 C 102.828125 69.230469 102.78125 69.050781 102.796875 68.871094 L 102.800781 68.828125 C 102.804688 68.789062 102.808594 68.753906 102.820312 68.71875 C 102.875 68.488281 103.019531 68.292969 103.222656 68.167969 L 105.207031 66.972656 C 105.351562 66.886719 105.441406 66.738281 105.457031 66.570312 C 105.46875 66.402344 105.402344 66.238281 105.273438 66.128906 L 102.996094 64.210938 C 102.847656 64.085938 102.644531 64.054688 102.464844 64.128906 C 102.285156 64.199219 102.160156 64.367188 102.140625 64.5625 L 101.761719 68.714844 C 101.757812 68.742188 101.757812 68.773438 101.753906 68.800781 L 101.574219 70.765625 C 101.570312 70.824219 101.574219 70.878906 101.585938 70.933594 L 104.601562 83.574219 C 104.792969 84.382812 104.292969 85.195312 103.484375 85.386719 C 102.683594 85.582031 101.859375 85.082031 101.667969 84.273438 L 99.429688 74.894531 C 99.316406 74.425781 98.527344 74.425781 98.414062 74.894531 L 96.175781 84.273438 C 96.015625 84.941406 95.425781 85.417969 94.734375 85.429688 C 94.445312 85.433594 94.214844 85.671875 94.222656 85.957031 C 94.226562 86.242188 94.457031 86.46875 94.742188 86.46875 L 94.75 86.46875 C 95.917969 86.449219 96.921875 85.648438 97.191406 84.515625 L 98.921875 77.257812 L 100.652344 84.515625 C 100.933594 85.683594 101.980469 86.46875 103.136719 86.46875 C 103.332031 86.46875 103.53125 86.449219 103.726562 86.402344 C 105.09375 86.074219 105.941406 84.699219 105.617188 83.335938 L 102.621094 70.777344 L 102.640625 70.554688 C 102.816406 70.667969 103.011719 70.753906 103.222656 70.804688 C 103.722656 70.925781 104.242188 70.847656 104.683594 70.582031 L 107.757812 68.730469 C 108.902344 68.039062 109.273438 66.542969 108.582031 65.394531 C 108.4375 65.171875 108.265625 64.972656 108.0625 64.800781 Z M 103.089844 65.652344 L 104.046875 66.457031 L 102.957031 67.113281 Z M 103.089844 65.652344 " fill-opacity="1" fill-rule="nonzero"/><path fill="#2f4c72" d="M 93.507812 80.210938 C 93.550781 80.21875 93.589844 80.226562 93.628906 80.226562 C 93.867188 80.226562 94.082031 80.0625 94.136719 79.824219 L 96.261719 70.933594 C 96.273438 70.878906 96.277344 70.820312 96.273438 70.765625 L 95.976562 67.519531 C 95.949219 67.234375 95.6875 67.019531 95.40625 67.046875 C 95.121094 67.074219 94.910156 67.328125 94.9375 67.613281 L 95.226562 70.773438 L 93.125 79.582031 C 93.058594 79.867188 93.230469 80.148438 93.507812 80.214844 Z M 93.507812 80.210938 " fill-opacity="1" fill-rule="nonzero"/></svg>