<svg xmlns="http://www.w3.org/2000/svg" xmlns:xlink="http://www.w3.org/1999/xlink" width="300" zoomAndPan="magnify" viewBox="0 0 224.87999 225" height="300" preserveAspectRatio="xMidYMid meet" version="1.0"><defs><clipPath id="69f4dcb5e4"><path d="M 0 0.0585938 L 224.761719 0.0585938 L 224.761719 224.9375 L 0 224.9375 Z M 0 0.0585938 " clip-rule="nonzero"/></clipPath><clipPath id="788afd3a3c"><path d="M 32.902344 32.964844 L 192 32.964844 L 192 192 L 32.902344 192 Z M 32.902344 32.964844 " clip-rule="nonzero"/></clipPath><clipPath id="ec883a2b69"><path d="M 112.441406 192.035156 C 91.203125 192.035156 71.210938 183.769531 56.203125 168.734375 C 41.167969 153.730469 32.902344 133.734375 32.902344 112.5 C 32.902344 91.265625 41.167969 71.269531 56.203125 56.265625 C 71.210938 41.230469 91.203125 32.964844 112.441406 32.964844 C 133.675781 32.964844 153.671875 41.230469 168.675781 56.265625 C 183.710938 71.300781 191.976562 91.265625 191.976562 112.5 C 191.976562 133.734375 183.710938 153.730469 168.675781 168.734375 C 153.671875 183.769531 133.675781 192.035156 112.441406 192.035156 M 112.441406 37.730469 C 92.476562 37.730469 73.6875 45.519531 59.574219 59.632812 C 45.460938 73.75 37.671875 92.535156 37.671875 112.5 C 37.671875 132.464844 45.460938 151.25 59.574219 165.367188 C 73.6875 179.480469 92.476562 187.269531 112.441406 187.269531 C 132.402344 187.269531 151.191406 179.480469 165.304688 165.367188 C 179.417969 151.25 187.207031 132.464844 187.207031 112.5 C 187.207031 92.535156 179.417969 73.75 165.304688 59.632812 C 151.191406 45.519531 132.402344 37.730469 112.441406 37.730469 " clip-rule="nonzero"/></clipPath><clipPath id="129e4d85ca"><path d="M 32.902344 32.964844 L 192 32.964844 L 192 192 L 32.902344 192 Z M 32.902344 32.964844 " clip-rule="nonzero"/></clipPath><clipPath id="e57ada536f"><path d="M 112.441406 32.964844 C 68.511719 32.964844 32.902344 68.574219 32.902344 112.5 C 32.902344 156.425781 68.511719 192.035156 112.441406 192.035156 C 156.367188 192.035156 191.976562 156.425781 191.976562 112.5 C 191.976562 68.574219 156.367188 32.964844 112.441406 32.964844 " clip-rule="nonzero"/></clipPath><clipPath id="4c510c3d87"><path d="M 70.105469 67.523438 L 154.8125 67.523438 L 154.8125 157.476562 L 70.105469 157.476562 Z M 70.105469 67.523438 " clip-rule="nonzero"/></clipPath></defs><g clip-path="url(#69f4dcb5e4)"><path fill="#ffffff" d="M 0 0.0585938 L 224.878906 0.0585938 L 224.878906 232.4375 L 0 232.4375 Z M 0 0.0585938 " fill-opacity="1" fill-rule="nonzero"/><path fill="#ffffff" d="M 0 0.0585938 L 224.878906 0.0585938 L 224.878906 224.941406 L 0 224.941406 Z M 0 0.0585938 " fill-opacity="1" fill-rule="nonzero"/><path fill="#f5d2aa" d="M 0 0.0585938 L 224.878906 0.0585938 L 224.878906 224.941406 L 0 224.941406 Z M 0 0.0585938 " fill-opacity="1" fill-rule="nonzero"/></g><g clip-path="url(#788afd3a3c)"><g clip-path="url(#ec883a2b69)"><path fill="#2f4c72" d="M 32.902344 32.964844 L 191.847656 32.964844 L 191.847656 191.910156 L 32.902344 191.910156 Z M 32.902344 32.964844 " fill-opacity="1" fill-rule="nonzero"/></g></g><g clip-path="url(#129e4d85ca)"><g clip-path="url(#e57ada536f)"><path fill="#2f4c72" d="M 32.902344 32.964844 L 191.691406 32.964844 L 191.691406 191.75 L 32.902344 191.75 Z M 32.902344 32.964844 " fill-opacity="1" fill-rule="nonzero"/></g></g><g clip-path="url(#4c510c3d87)"><path fill="#f5d2aa" d="M 83.8125 67.800781 Z M 83.519531 97.394531 Z M 105.304688 113.816406 L 105.609375 114.066406 L 105.351562 114.230469 Z M 94.300781 128.613281 L 94.378906 128.617188 L 94.414062 129.085938 L 94.378906 128.617188 L 94.300781 128.613281 L 94.296875 128.613281 Z M 94.414062 129.089844 Z M 132.761719 129.425781 C 133.011719 129.425781 133.257812 129.441406 133.5 129.464844 C 133.257812 129.441406 133.011719 129.425781 132.761719 129.425781 C 132.511719 129.425781 132.261719 129.441406 132.003906 129.464844 C 132.261719 129.441406 132.511719 129.425781 132.761719 129.425781 Z M 125.269531 129.464844 C 125.335938 129.464844 125.417969 129.484375 125.515625 129.519531 C 125.417969 129.484375 125.335938 129.464844 125.269531 129.464844 C 125.207031 129.464844 125.160156 129.484375 125.132812 129.519531 C 125.160156 129.484375 125.207031 129.464844 125.269531 129.464844 Z M 124.601562 132.148438 Z M 107.050781 116.164062 L 122.898438 133.457031 L 122.621094 133.785156 L 121.953125 133.113281 L 106.710938 116.523438 L 107.03125 116.183594 Z M 108.992188 146.566406 C 109.015625 146.566406 109.035156 146.566406 109.054688 146.566406 C 109.035156 146.566406 109.015625 146.566406 108.992188 146.566406 C 108.972656 146.566406 108.949219 146.566406 108.925781 146.566406 C 108.949219 146.566406 108.972656 146.566406 108.992188 146.566406 Z M 87.203125 150.15625 Z M 143.65625 155.679688 C 143.65625 155.679688 143.652344 155.679688 143.652344 155.679688 C 143.648438 155.679688 143.648438 155.679688 143.644531 155.679688 Z M 145.90625 157.222656 C 145.90625 157.222656 145.902344 157.222656 145.902344 157.222656 C 145.902344 157.222656 145.898438 157.222656 145.898438 157.222656 Z M 146.128906 157.226562 C 146.132812 157.226562 146.132812 157.226562 146.136719 157.226562 C 146.136719 157.226562 146.140625 157.226562 146.140625 157.226562 C 146.140625 157.226562 146.136719 157.226562 146.136719 157.226562 C 146.132812 157.226562 146.132812 157.226562 146.128906 157.226562 Z M 83.875 67.523438 C 83.160156 67.523438 82.03125 68.222656 80.496094 69.621094 C 79.796875 70.25 79.386719 71.042969 79.257812 71.996094 C 79.085938 72.847656 79.058594 74.558594 79.171875 77.125 C 79.207031 77.199219 79.238281 77.238281 79.277344 77.238281 C 79.335938 77.238281 79.402344 77.140625 79.472656 76.945312 C 79.546875 77.785156 79.714844 78.425781 79.984375 78.867188 C 80.917969 80.773438 81.5625 81.730469 81.917969 81.730469 C 81.949219 81.730469 81.980469 81.722656 82.003906 81.707031 L 82.324219 83.074219 L 80.011719 84.574219 C 79.773438 84.761719 79.585938 85.101562 79.449219 85.601562 C 79.199219 87.402344 79.316406 89.367188 79.800781 91.492188 L 79.484375 94.636719 C 78.394531 93.84375 77.417969 92.8125 76.554688 91.539062 L 76.695312 90.917969 C 76.59375 90.761719 76.375 90.605469 76.03125 90.445312 C 76.011719 89.484375 75.875 88.800781 75.625 88.394531 C 75.433594 88.039062 74.933594 87.839844 74.132812 87.792969 L 72.722656 85.640625 L 70.429688 85.832031 C 70.417969 85.832031 70.40625 85.832031 70.394531 85.832031 C 70.269531 85.832031 70.214844 85.902344 70.234375 86.039062 L 71.046875 87.566406 C 70.542969 88.074219 70.351562 88.394531 70.46875 88.527344 C 70.492188 88.773438 70.773438 89.125 71.320312 89.582031 L 71.0625 90.519531 C 71.167969 90.753906 71.335938 90.882812 71.5625 90.914062 C 71.535156 91.339844 71.578125 91.625 71.691406 91.769531 L 72.773438 93.003906 L 74.847656 93.40625 L 77.578125 98.222656 C 78.070312 98.9375 78.734375 99.640625 79.570312 100.328125 C 80.445312 101.027344 81.117188 101.375 81.585938 101.375 C 81.714844 101.375 81.828125 101.347656 81.925781 101.296875 C 83.203125 100.546875 83.832031 99.332031 83.804688 97.652344 L 84.886719 97.992188 C 85.101562 98.269531 85.339844 98.792969 85.605469 99.566406 C 86.441406 102.015625 86.84375 103.597656 86.8125 104.316406 C 86.957031 104.695312 87.117188 104.910156 87.292969 104.953125 L 89.316406 111.25 C 88.707031 113.332031 88.242188 117.453125 87.917969 123.613281 C 87.792969 126.652344 87.773438 128.53125 87.855469 129.261719 L 88.664062 133.164062 L 88.257812 136.648438 C 88.394531 140.21875 88.410156 142.507812 88.300781 143.523438 C 88.234375 144.832031 88.015625 146.328125 87.644531 148.007812 C 87.585938 148.109375 87.65625 148.238281 87.859375 148.394531 L 87.195312 149.808594 C 87.042969 149.785156 86.921875 149.769531 86.828125 149.769531 C 86.664062 149.769531 86.589844 149.8125 86.609375 149.890625 C 85.382812 151.488281 84.453125 152.570312 83.8125 153.132812 C 83.1875 153.78125 82.296875 154.105469 81.144531 154.105469 C 81.015625 154.105469 80.878906 154.101562 80.742188 154.09375 C 80.464844 154.234375 80.296875 154.597656 80.238281 155.175781 C 80.195312 155.980469 80.363281 156.5625 80.734375 156.929688 C 82.804688 157.1875 84.222656 157.316406 84.992188 157.316406 C 85.003906 157.316406 85.015625 157.316406 85.023438 157.316406 C 85.074219 157.316406 85.121094 157.316406 85.171875 157.316406 C 85.964844 157.316406 86.566406 157.230469 86.972656 157.0625 L 89.238281 155.679688 L 89.355469 157.222656 L 89.507812 157.300781 L 93.632812 157.21875 C 93.660156 157.226562 93.683594 157.226562 93.707031 157.226562 C 93.800781 157.226562 93.859375 157.171875 93.878906 157.058594 C 93.730469 155.890625 93.753906 154.25 93.949219 152.132812 C 94.011719 151.847656 93.683594 151.253906 92.964844 150.351562 C 92.84375 150.109375 92.792969 149.707031 92.8125 149.136719 C 92.945312 145.820312 93.722656 141.941406 95.148438 137.496094 L 94.773438 130.21875 C 95.707031 131.691406 97.476562 133.550781 100.074219 135.800781 L 101.785156 138.089844 L 105.960938 142.867188 L 108.738281 146.785156 L 109.167969 146.929688 L 110.503906 149.136719 C 110.238281 149.546875 110.1875 149.753906 110.355469 149.753906 C 112.0625 151.445312 113.007812 152.582031 113.195312 153.152344 C 113.453125 153.472656 113.285156 154.308594 112.699219 155.65625 C 112.6875 155.976562 112.863281 156.335938 113.230469 156.726562 C 113.652344 156.953125 114.054688 157.0625 114.4375 157.0625 C 115.707031 157.0625 116.777344 155.835938 117.640625 153.375 C 118.207031 152.632812 117.855469 151.101562 116.585938 148.785156 L 118.449219 148.816406 L 118.960938 144.644531 L 114.628906 143.5 L 112.667969 143.59375 L 112.03125 143.015625 C 111.496094 142.621094 109.917969 139.824219 107.285156 134.625 C 103.40625 130.882812 101.5625 128.738281 101.75 128.1875 L 100.289062 115.304688 C 101.988281 112.996094 102.539062 110.761719 101.941406 108.605469 L 102.816406 110.652344 C 102.644531 111.582031 102.65625 112.273438 102.859375 112.722656 L 104.097656 114.554688 C 104.246094 114.925781 104.203125 115.496094 103.96875 116.265625 L 104.085938 116.222656 L 104.0625 116.347656 C 104.082031 116.347656 104.101562 116.347656 104.121094 116.347656 C 104.414062 116.347656 104.761719 116.464844 105.164062 116.703125 L 107.777344 119.398438 C 112.339844 124.800781 116.851562 129.847656 121.3125 134.542969 L 121.726562 135.082031 C 121.410156 135.777344 121.367188 136.394531 121.597656 136.929688 C 121.761719 137.421875 122.097656 137.949219 122.601562 138.515625 L 134.46875 149.984375 L 138.503906 155.070312 C 138.519531 155.144531 138.566406 155.183594 138.640625 155.183594 C 138.707031 155.183594 138.800781 155.152344 138.914062 155.09375 C 138.964844 155.582031 139.175781 155.976562 139.550781 156.28125 C 139.832031 156.542969 140.226562 156.675781 140.738281 156.675781 C 140.8125 156.675781 140.886719 156.671875 140.96875 156.664062 C 141.4375 156.636719 141.84375 156.355469 142.175781 155.824219 C 142.894531 155.914062 143.414062 155.960938 143.738281 155.960938 C 144 155.960938 144.136719 155.929688 144.144531 155.871094 C 144.5 156.949219 145.101562 157.488281 145.945312 157.488281 C 146.199219 157.488281 146.46875 157.4375 146.765625 157.34375 L 152.433594 151.769531 L 152.878906 151.773438 L 154.6875 149.71875 C 154.703125 149.578125 154.644531 149.507812 154.511719 149.507812 C 154.503906 149.507812 154.496094 149.507812 154.488281 149.507812 L 152.734375 149.175781 L 152.488281 148.523438 C 153.226562 147.859375 153.429688 147.339844 153.105469 146.96875 C 152.273438 145.625 151.40625 144.5 150.515625 143.601562 C 149.386719 142.335938 144.628906 137.859375 136.242188 130.175781 C 135.152344 129.492188 133.984375 129.152344 132.730469 129.152344 C 131.210938 129.152344 129.566406 129.65625 127.804688 130.667969 C 126.464844 129.660156 125.609375 129.152344 125.238281 129.152344 C 125.140625 129.152344 125.074219 129.1875 125.042969 129.253906 C 124.515625 129.398438 124.09375 129.835938 123.777344 130.5625 C 123.609375 130.949219 123.769531 131.480469 124.261719 132.164062 C 124.292969 132.214844 124.195312 132.332031 123.972656 132.523438 L 108.617188 116.03125 L 108.644531 115.59375 L 107.492188 114.347656 C 107.734375 113.40625 107.699219 112.726562 107.386719 112.316406 C 105.746094 110.855469 104.910156 109.949219 104.882812 109.589844 C 104.601562 109.023438 104.257812 107.84375 103.84375 106.042969 C 106.625 103.8125 108.054688 101.953125 108.136719 100.464844 C 108.230469 99.867188 108.097656 99.066406 107.734375 98.0625 L 105.175781 92.804688 C 103.125 90.199219 101.183594 88.402344 99.351562 87.414062 C 100.207031 86.824219 100.375 86.28125 99.855469 85.789062 C 99.640625 85.679688 99.460938 85.625 99.3125 85.625 C 99.214844 85.625 99.128906 85.648438 99.0625 85.703125 L 97.070312 87.246094 C 95.015625 84.703125 93.675781 83.234375 93.042969 82.84375 L 87.730469 80.578125 C 87.558594 80.476562 87.511719 79.660156 87.59375 78.132812 C 89.007812 77.910156 89.671875 75.71875 89.589844 71.558594 C 89.398438 70.789062 88.9375 70.074219 88.207031 69.417969 C 87.9375 69.15625 87.550781 69.027344 87.046875 69.027344 C 86.96875 69.027344 86.886719 69.03125 86.804688 69.035156 C 86.015625 68.078125 85.121094 67.578125 84.113281 67.539062 L 84.046875 67.539062 C 83.992188 67.527344 83.933594 67.523438 83.875 67.523438 Z M 83.875 67.523438 " fill-opacity="1" fill-rule="nonzero"/></g></svg>