<svg xmlns="http://www.w3.org/2000/svg" xmlns:xlink="http://www.w3.org/1999/xlink" width="230" zoomAndPan="magnify" viewBox="0 0 172.5 113.999999" height="152" preserveAspectRatio="xMidYMid meet" version="1.0"><defs><g/><clipPath id="f8070dc920"><path d="M 55.878906 24.898438 L 116.628906 24.898438 L 116.628906 89.398438 L 55.878906 89.398438 Z M 55.878906 24.898438 " clip-rule="nonzero"/></clipPath></defs><g fill="#2f4c72" fill-opacity="1"><g transform="translate(48.950437, 15.885882)"><g><path d="M 10.703125 0 L 8.3125 0 L 7 -5.5625 C 6.84375 -6.21875 6.710938 -6.90625 6.609375 -7.625 C 6.492188 -7.019531 6.398438 -6.5625 6.328125 -6.25 C 6.265625 -5.945312 5.78125 -3.863281 4.875 0 L 2.5 0 L 0.015625 -9.625 L 2.0625 -9.625 L 3.453125 -3.40625 L 3.765625 -1.90625 C 3.890625 -2.539062 4.007812 -3.144531 4.125 -3.71875 C 4.25 -4.289062 4.707031 -6.257812 5.5 -9.625 L 7.75 -9.625 L 8.96875 -4.5 C 9.0625 -4.113281 9.222656 -3.25 9.453125 -1.90625 L 9.625 -2.703125 L 9.984375 -4.265625 L 11.140625 -9.625 L 13.1875 -9.625 Z M 10.703125 0 "/></g></g></g><g fill="#2f4c72" fill-opacity="1"><g transform="translate(62.15458, 15.885882)"><g><path d="M 5.671875 -3.953125 L 5.671875 0 L 3.671875 0 L 3.671875 -3.953125 L 0.234375 -9.625 L 2.34375 -9.625 L 4.65625 -5.546875 L 7 -9.625 L 9.109375 -9.625 Z M 5.671875 -3.953125 "/></g></g></g><g fill="#2f4c72" fill-opacity="1"><g transform="translate(71.485599, 15.885882)"><g><path d="M 8.84375 -6.578125 C 8.84375 -5.953125 8.703125 -5.394531 8.421875 -4.90625 C 8.140625 -4.425781 7.734375 -4.050781 7.203125 -3.78125 C 6.679688 -3.519531 6.0625 -3.390625 5.34375 -3.390625 L 2.953125 -3.390625 L 2.953125 0 L 0.9375 0 L 0.9375 -9.625 L 5.25 -9.625 C 6.40625 -9.625 7.289062 -9.359375 7.90625 -8.828125 C 8.53125 -8.296875 8.84375 -7.546875 8.84375 -6.578125 Z M 6.828125 -6.546875 C 6.828125 -7.554688 6.226562 -8.0625 5.03125 -8.0625 L 2.953125 -8.0625 L 2.953125 -4.9375 L 5.09375 -4.9375 C 5.644531 -4.9375 6.070312 -5.070312 6.375 -5.34375 C 6.675781 -5.625 6.828125 -6.023438 6.828125 -6.546875 Z M 6.828125 -6.546875 "/></g></g></g><g fill="#2f4c72" fill-opacity="1"><g transform="translate(80.816618, 15.885882)"><g><path d="M 7.546875 0 L 5.3125 -3.65625 L 2.953125 -3.65625 L 2.953125 0 L 0.9375 0 L 0.9375 -9.625 L 5.75 -9.625 C 6.894531 -9.625 7.773438 -9.375 8.390625 -8.875 C 9.015625 -8.382812 9.328125 -7.675781 9.328125 -6.75 C 9.328125 -6.082031 9.132812 -5.503906 8.75 -5.015625 C 8.375 -4.523438 7.859375 -4.203125 7.203125 -4.046875 L 9.8125 0 Z M 7.3125 -6.671875 C 7.3125 -7.597656 6.71875 -8.0625 5.53125 -8.0625 L 2.953125 -8.0625 L 2.953125 -5.21875 L 5.578125 -5.21875 C 6.148438 -5.21875 6.582031 -5.34375 6.875 -5.59375 C 7.164062 -5.851562 7.3125 -6.210938 7.3125 -6.671875 Z M 7.3125 -6.671875 "/></g></g></g><g fill="#2f4c72" fill-opacity="1"><g transform="translate(90.919529, 15.885882)"><g><path d="M 7.734375 0 L 6.890625 -2.453125 L 3.21875 -2.453125 L 2.359375 0 L 0.34375 0 L 3.859375 -9.625 L 6.234375 -9.625 L 9.734375 0 Z M 5.046875 -8.140625 L 5 -7.984375 C 4.957031 -7.828125 4.90625 -7.640625 4.84375 -7.421875 C 4.78125 -7.210938 4.390625 -6.0625 3.671875 -3.96875 L 6.4375 -3.96875 L 5.484375 -6.734375 L 5.1875 -7.671875 Z M 5.046875 -8.140625 "/></g></g></g><g fill="#2f4c72" fill-opacity="1"><g transform="translate(101.022441, 15.885882)"><g><path d="M 10.703125 0 L 8.3125 0 L 7 -5.5625 C 6.84375 -6.21875 6.710938 -6.90625 6.609375 -7.625 C 6.492188 -7.019531 6.398438 -6.5625 6.328125 -6.25 C 6.265625 -5.945312 5.78125 -3.863281 4.875 0 L 2.5 0 L 0.015625 -9.625 L 2.0625 -9.625 L 3.453125 -3.40625 L 3.765625 -1.90625 C 3.890625 -2.539062 4.007812 -3.144531 4.125 -3.71875 C 4.25 -4.289062 4.707031 -6.257812 5.5 -9.625 L 7.75 -9.625 L 8.96875 -4.5 C 9.0625 -4.113281 9.222656 -3.25 9.453125 -1.90625 L 9.625 -2.703125 L 9.984375 -4.265625 L 11.140625 -9.625 L 13.1875 -9.625 Z M 10.703125 0 "/></g></g></g><g fill="#2f4c72" fill-opacity="1"><g transform="translate(114.226584, 15.885882)"><g><path d="M 5.671875 -3.953125 L 5.671875 0 L 3.671875 0 L 3.671875 -3.953125 L 0.234375 -9.625 L 2.34375 -9.625 L 4.65625 -5.546875 L 7 -9.625 L 9.109375 -9.625 Z M 5.671875 -3.953125 "/></g></g></g><g clip-path="url(#f8070dc920)"><path fill="#2f4c72" d="M 65.707031 25.09375 C 65.707031 25.09375 65.707031 25.09375 65.710938 25.09375 Z M 65.496094 46.3125 Z M 81.121094 58.089844 L 81.339844 58.269531 L 81.15625 58.386719 L 81.121094 58.09375 Z M 73.230469 68.699219 L 73.285156 68.703125 L 73.3125 69.039062 L 73.285156 68.703125 Z M 73.3125 69.042969 Z M 100.8125 69.285156 C 100.992188 69.285156 101.167969 69.292969 101.34375 69.3125 C 101.167969 69.292969 100.992188 69.285156 100.8125 69.285156 C 100.636719 69.285156 100.453125 69.292969 100.273438 69.3125 C 100.453125 69.292969 100.636719 69.285156 100.8125 69.285156 Z M 95.441406 69.3125 C 95.488281 69.3125 95.546875 69.324219 95.617188 69.351562 C 95.546875 69.324219 95.488281 69.3125 95.441406 69.3125 C 95.394531 69.3125 95.363281 69.324219 95.34375 69.351562 C 95.363281 69.324219 95.394531 69.3125 95.441406 69.3125 Z M 94.960938 71.234375 Z M 82.375 59.773438 L 93.738281 72.175781 L 93.539062 72.410156 L 93.0625 71.929688 L 82.128906 60.03125 L 82.359375 59.789062 Z M 83.765625 81.574219 C 83.78125 81.574219 83.796875 81.574219 83.8125 81.574219 C 83.796875 81.574219 83.78125 81.574219 83.765625 81.574219 C 83.75 81.574219 83.734375 81.574219 83.71875 81.574219 C 83.734375 81.574219 83.75 81.574219 83.765625 81.574219 Z M 68.140625 84.148438 Z M 108.628906 88.109375 C 108.625 88.109375 108.625 88.109375 108.625 88.109375 C 108.621094 88.109375 108.621094 88.109375 108.621094 88.109375 Z M 110.242188 89.214844 C 110.242188 89.214844 110.238281 89.214844 110.238281 89.214844 C 110.238281 89.214844 110.234375 89.214844 110.234375 89.214844 Z M 110.402344 89.21875 C 110.402344 89.21875 110.402344 89.21875 110.40625 89.21875 C 110.40625 89.21875 110.40625 89.21875 110.410156 89.21875 C 110.40625 89.21875 110.40625 89.21875 110.40625 89.21875 C 110.402344 89.21875 110.402344 89.21875 110.402344 89.21875 Z M 65.753906 24.894531 C 65.238281 24.894531 64.433594 25.398438 63.328125 26.398438 C 62.828125 26.851562 62.535156 27.417969 62.441406 28.105469 C 62.320312 28.714844 62.300781 29.941406 62.382812 31.78125 C 62.402344 31.835938 62.429688 31.863281 62.457031 31.863281 C 62.496094 31.863281 62.546875 31.792969 62.597656 31.652344 C 62.648438 32.253906 62.769531 32.714844 62.960938 33.03125 C 63.632812 34.398438 64.09375 35.082031 64.351562 35.082031 C 64.371094 35.082031 64.394531 35.078125 64.414062 35.066406 L 64.640625 36.046875 L 62.980469 37.125 C 62.8125 37.257812 62.675781 37.5 62.578125 37.859375 C 62.398438 39.152344 62.484375 40.558594 62.832031 42.085938 L 62.605469 44.339844 C 61.824219 43.769531 61.121094 43.03125 60.503906 42.117188 L 60.601562 41.671875 C 60.53125 41.558594 60.375 41.445312 60.128906 41.332031 C 60.113281 40.644531 60.015625 40.152344 59.835938 39.863281 C 59.699219 39.609375 59.339844 39.464844 58.765625 39.429688 L 57.753906 37.886719 L 56.109375 38.027344 C 56.101562 38.023438 56.09375 38.023438 56.085938 38.023438 C 55.996094 38.023438 55.957031 38.074219 55.96875 38.171875 L 56.554688 39.269531 C 56.191406 39.632812 56.054688 39.863281 56.136719 39.957031 C 56.152344 40.132812 56.359375 40.382812 56.75 40.710938 L 56.5625 41.386719 C 56.640625 41.554688 56.761719 41.648438 56.925781 41.671875 C 56.902344 41.972656 56.933594 42.179688 57.015625 42.28125 L 57.792969 43.167969 L 59.277344 43.457031 L 61.234375 46.910156 C 61.589844 47.421875 62.066406 47.925781 62.664062 48.417969 C 63.292969 48.917969 63.773438 49.167969 64.113281 49.167969 C 64.203125 49.167969 64.285156 49.152344 64.355469 49.113281 C 65.273438 48.578125 65.722656 47.707031 65.703125 46.5 L 66.476562 46.742188 C 66.632812 46.941406 66.804688 47.320312 66.992188 47.871094 C 67.59375 49.628906 67.882812 50.765625 67.859375 51.277344 C 67.964844 51.550781 68.078125 51.703125 68.203125 51.738281 L 69.65625 56.25 C 69.21875 57.742188 68.886719 60.699219 68.652344 65.117188 C 68.5625 67.292969 68.546875 68.644531 68.609375 69.164062 L 69.1875 71.964844 L 68.894531 74.464844 C 68.996094 77.023438 69.007812 78.664062 68.925781 79.390625 C 68.878906 80.332031 68.722656 81.402344 68.457031 82.609375 C 68.414062 82.683594 68.464844 82.773438 68.613281 82.886719 L 68.132812 83.898438 C 68.023438 83.882812 67.9375 83.871094 67.871094 83.871094 C 67.753906 83.871094 67.699219 83.902344 67.714844 83.957031 C 66.835938 85.105469 66.167969 85.878906 65.710938 86.285156 C 65.257812 86.75 64.621094 86.980469 63.796875 86.980469 C 63.703125 86.980469 63.605469 86.976562 63.507812 86.972656 C 63.308594 87.074219 63.1875 87.332031 63.144531 87.746094 C 63.113281 88.324219 63.234375 88.742188 63.5 89.003906 C 64.984375 89.191406 66.003906 89.28125 66.554688 89.28125 C 66.5625 89.28125 66.570312 89.28125 66.578125 89.28125 C 66.613281 89.28125 66.648438 89.28125 66.683594 89.28125 C 67.253906 89.28125 67.683594 89.222656 67.976562 89.101562 L 69.601562 88.109375 L 69.683594 89.214844 L 69.792969 89.269531 L 72.75 89.210938 C 72.769531 89.214844 72.789062 89.21875 72.804688 89.21875 C 72.871094 89.21875 72.914062 89.179688 72.925781 89.097656 C 72.820312 88.261719 72.835938 87.082031 72.980469 85.5625 C 73.023438 85.359375 72.789062 84.933594 72.273438 84.289062 C 72.183594 84.117188 72.148438 83.824219 72.160156 83.417969 C 72.257812 81.039062 72.816406 78.257812 73.839844 75.070312 L 73.566406 69.851562 L 73.570312 69.851562 C 74.238281 70.90625 75.507812 72.242188 77.371094 73.855469 L 78.597656 75.496094 L 81.59375 78.921875 L 83.585938 81.730469 L 83.890625 81.835938 L 84.851562 83.417969 C 84.660156 83.710938 84.625 83.859375 84.742188 83.859375 C 84.742188 83.859375 84.746094 83.859375 84.746094 83.859375 C 85.96875 85.074219 86.648438 85.886719 86.78125 86.296875 C 86.964844 86.527344 86.847656 87.125 86.425781 88.089844 C 86.417969 88.324219 86.542969 88.578125 86.804688 88.859375 C 87.109375 89.019531 87.398438 89.101562 87.671875 89.101562 C 88.582031 89.101562 89.347656 88.21875 89.96875 86.457031 C 90.375 85.921875 90.125 84.828125 89.214844 83.167969 L 90.550781 83.1875 L 90.917969 80.195312 L 87.808594 79.375 L 86.402344 79.441406 L 85.945312 79.027344 C 85.5625 78.746094 84.429688 76.738281 82.542969 73.011719 C 79.761719 70.328125 78.4375 68.789062 78.574219 68.394531 L 77.523438 59.15625 C 78.746094 57.5 79.140625 55.902344 78.710938 54.355469 L 79.335938 55.824219 C 79.214844 56.488281 79.222656 56.984375 79.367188 57.308594 L 80.257812 58.621094 C 80.363281 58.886719 80.332031 59.292969 80.164062 59.847656 L 80.246094 59.816406 L 80.230469 59.90625 C 80.246094 59.90625 80.257812 59.90625 80.273438 59.90625 C 80.484375 59.90625 80.734375 59.988281 81.019531 60.160156 L 82.894531 62.09375 C 86.167969 65.96875 89.402344 69.585938 92.601562 72.953125 L 92.898438 73.339844 C 92.671875 73.835938 92.640625 74.277344 92.808594 74.664062 C 92.925781 75.015625 93.164062 75.394531 93.527344 75.800781 L 102.039062 84.027344 L 104.933594 87.671875 C 104.945312 87.726562 104.976562 87.753906 105.03125 87.753906 C 105.078125 87.753906 105.144531 87.730469 105.226562 87.6875 C 105.261719 88.039062 105.414062 88.324219 105.683594 88.542969 C 105.886719 88.726562 106.167969 88.820312 106.53125 88.820312 C 106.585938 88.820312 106.640625 88.820312 106.699219 88.816406 C 107.035156 88.796875 107.324219 88.59375 107.566406 88.210938 C 108.078125 88.277344 108.453125 88.308594 108.6875 88.308594 C 108.875 88.308594 108.972656 88.289062 108.976562 88.246094 C 109.230469 89.019531 109.664062 89.40625 110.269531 89.40625 C 110.449219 89.40625 110.644531 89.371094 110.855469 89.304688 L 114.921875 85.304688 L 115.242188 85.308594 L 116.539062 83.835938 C 116.550781 83.734375 116.507812 83.683594 116.414062 83.683594 C 116.40625 83.683594 116.402344 83.683594 116.394531 83.683594 L 115.136719 83.445312 L 114.960938 82.976562 C 115.488281 82.5 115.636719 82.128906 115.40625 81.863281 C 114.804688 80.898438 114.1875 80.09375 113.546875 79.449219 C 112.734375 78.539062 109.324219 75.332031 103.3125 69.820312 C 102.53125 69.332031 101.691406 69.085938 100.792969 69.085938 C 99.699219 69.085938 98.523438 69.449219 97.257812 70.175781 C 96.300781 69.449219 95.683594 69.089844 95.417969 69.089844 C 95.347656 69.089844 95.300781 69.113281 95.277344 69.160156 C 94.902344 69.265625 94.597656 69.578125 94.371094 70.097656 C 94.25 70.375 94.363281 70.757812 94.71875 71.246094 C 94.738281 71.28125 94.671875 71.367188 94.511719 71.503906 L 83.5 59.679688 L 83.519531 59.363281 L 82.691406 58.472656 C 82.863281 57.796875 82.839844 57.308594 82.617188 57.015625 C 81.4375 55.96875 80.839844 55.316406 80.820312 55.058594 C 80.617188 54.65625 80.371094 53.808594 80.074219 52.515625 C 82.066406 50.917969 83.09375 49.585938 83.152344 48.515625 C 83.21875 48.089844 83.125 47.511719 82.863281 46.792969 L 81.03125 43.023438 C 79.558594 41.15625 78.167969 39.867188 76.851562 39.15625 C 77.46875 38.734375 77.589844 38.347656 77.214844 37.992188 C 77.058594 37.914062 76.929688 37.875 76.824219 37.875 C 76.753906 37.875 76.695312 37.894531 76.644531 37.933594 L 75.214844 39.039062 C 73.742188 37.214844 72.78125 36.164062 72.328125 35.882812 L 68.519531 34.257812 C 68.394531 34.183594 68.363281 33.601562 68.417969 32.503906 C 69.433594 32.34375 69.910156 30.773438 69.851562 27.789062 C 69.714844 27.238281 69.382812 26.726562 68.859375 26.253906 C 68.664062 26.066406 68.386719 25.976562 68.027344 25.976562 C 67.972656 25.976562 67.914062 25.976562 67.851562 25.980469 C 67.289062 25.292969 66.648438 24.933594 65.925781 24.90625 L 65.878906 24.90625 C 65.835938 24.898438 65.796875 24.894531 65.753906 24.894531 Z M 65.753906 24.894531 " fill-opacity="1" fill-rule="nonzero"/></g></svg>